<?xml version="1.0" encoding="utf-8" standalone="no"?>
<!DOCTYPE svg PUBLIC "-//W3C//DTD SVG 1.1//EN"
  "http://www.w3.org/Graphics/SVG/1.1/DTD/svg11.dtd">
<!-- Created with matplotlib (https://matplotlib.org/) -->
<svg height="135.99625pt" version="1.1" viewBox="0 0 712.863125 135.99625" width="712.863125pt" xmlns="http://www.w3.org/2000/svg" xmlns:xlink="http://www.w3.org/1999/xlink">
 <metadata>
  <rdf:RDF xmlns:cc="http://creativecommons.org/ns#" xmlns:dc="http://purl.org/dc/elements/1.1/" xmlns:rdf="http://www.w3.org/1999/02/22-rdf-syntax-ns#">
   <cc:Work>
    <dc:type rdf:resource="http://purl.org/dc/dcmitype/StillImage"/>
    <dc:date>2025-02-15T11:42:14.321263</dc:date>
    <dc:format>image/svg+xml</dc:format>
    <dc:creator>
     <cc:Agent>
      <dc:title>Matplotlib v3.3.4, https://matplotlib.org/</dc:title>
     </cc:Agent>
    </dc:creator>
   </cc:Work>
  </rdf:RDF>
 </metadata>
 <defs>
  <style type="text/css">*{stroke-linecap:butt;stroke-linejoin:round;}</style>
 </defs>
 <g id="figure_1">
  <g id="patch_1">
   <path d="M 0 135.99625 
L 712.863125 135.99625 
L 712.863125 0 
L 0 0 
z
" style="fill:#ffffff;"/>
  </g>
  <g id="axes_1">
   <g id="patch_2">
    <path d="M 30.103125 98.44 
L 351.063125 98.44 
L 351.063125 7.2 
L 30.103125 7.2 
z
" style="fill:#ffffff;"/>
   </g>
   <g id="PolyCollection_1">
    <defs>
     <path d="M 44.692216 -41.703523 
L 44.692216 -41.703523 
L 47.639507 -52.91541 
L 50.586798 -55.685704 
L 53.534089 -56.368294 
L 56.48138 -56.361032 
L 59.428671 -56.905651 
L 62.375962 -56.615188 
L 65.323254 -66.185957 
L 68.270545 -66.759622 
L 71.217836 -76.649901 
L 74.165127 -85.737777 
L 77.112418 -89.110781 
L 80.059709 -89.902295 
L 83.007 -99.995895 
L 85.954291 -98.503643 
L 88.901582 -112.188097 
L 91.848873 -113.694875 
L 94.796164 -115.136299 
L 97.743456 -116.41434 
L 100.690747 -113.745708 
L 103.638038 -124.648977 
L 106.585329 -112.449513 
L 109.53262 -113.447985 
L 112.479911 -112.986874 
L 115.427202 -116.334461 
L 118.374493 -109.991468 
L 121.321784 -109.929743 
L 124.269075 -117.601611 
L 127.216367 -114.722393 
L 130.163658 -114.954762 
L 133.110949 -111.883111 
L 136.05824 -108.793305 
L 139.005531 -108.916755 
L 141.952822 -99.353248 
L 144.900113 -99.037365 
L 147.847404 -87.752865 
L 150.794695 -89.945861 
L 153.741986 -90.000323 
L 156.689277 -101.11055 
L 159.636569 -92.708897 
L 162.58386 -83.904225 
L 165.531151 -83.156281 
L 168.478442 -83.39228 
L 171.425733 -83.406805 
L 174.373024 -83.486685 
L 177.320315 -86.67089 
L 180.267606 -85.17137 
L 183.214897 -82.640708 
L 186.162188 -82.295782 
L 189.109479 -70.408569 
L 192.056771 -71.210972 
L 195.004062 -74.623918 
L 197.951353 -67.318763 
L 200.898644 -72.227596 
L 203.845935 -74.660227 
L 206.793226 -75.742202 
L 209.740517 -74.798197 
L 212.687808 -75.030567 
L 215.635099 -68.364433 
L 218.58239 -66.374759 
L 221.529681 -72.133194 
L 224.476973 -72.024272 
L 227.424264 -72.343781 
L 230.371555 -71.443345 
L 233.318846 -69.235821 
L 236.266137 -68.985297 
L 239.213428 -58.085658 
L 242.160719 -59.675945 
L 245.10801 -56.938328 
L 248.055301 -56.419125 
L 251.002592 -56.513526 
L 253.949883 -56.622449 
L 256.897175 -56.611556 
L 259.844466 -57.573716 
L 262.791757 -57.646333 
L 265.739048 -57.729841 
L 268.686339 -57.798826 
L 271.63363 -57.787933 
L 274.580921 -57.751625 
L 277.528212 -57.755256 
L 280.475503 -57.82061 
L 283.422794 -57.896857 
L 286.370086 -58.151012 
L 289.317377 -58.310768 
L 292.264668 -58.154644 
L 295.211959 -58.234521 
L 298.15925 -58.303507 
L 301.106541 -59.044187 
L 304.053832 -59.087757 
L 307.001123 -58.993356 
L 309.948414 -58.721047 
L 312.895705 -58.677478 
L 315.842996 -58.800924 
L 318.790288 -58.790032 
L 321.737579 -58.764616 
L 324.68487 -58.281721 
L 327.632161 -58.292614 
L 330.579452 -57.947688 
L 333.526743 -57.976735 
L 336.474034 -57.693533 
L 336.474034 -41.703523 
L 336.474034 -41.703523 
L 333.526743 -41.703523 
L 330.579452 -41.703523 
L 327.632161 -41.703523 
L 324.68487 -41.703523 
L 321.737579 -41.703523 
L 318.790288 -41.703523 
L 315.842996 -41.703523 
L 312.895705 -41.703523 
L 309.948414 -41.703523 
L 307.001123 -41.703523 
L 304.053832 -41.703523 
L 301.106541 -41.703523 
L 298.15925 -41.703523 
L 295.211959 -41.703523 
L 292.264668 -41.703523 
L 289.317377 -41.703523 
L 286.370086 -41.703523 
L 283.422794 -41.703523 
L 280.475503 -41.703523 
L 277.528212 -41.703523 
L 274.580921 -41.703523 
L 271.63363 -41.703523 
L 268.686339 -41.703523 
L 265.739048 -41.703523 
L 262.791757 -41.703523 
L 259.844466 -41.703523 
L 256.897175 -41.703523 
L 253.949883 -41.703523 
L 251.002592 -41.703523 
L 248.055301 -41.703523 
L 245.10801 -41.703523 
L 242.160719 -41.703523 
L 239.213428 -41.703523 
L 236.266137 -41.703523 
L 233.318846 -41.703523 
L 230.371555 -41.703523 
L 227.424264 -41.703523 
L 224.476973 -41.703523 
L 221.529681 -41.703523 
L 218.58239 -41.703523 
L 215.635099 -41.703523 
L 212.687808 -41.703523 
L 209.740517 -41.703523 
L 206.793226 -41.703523 
L 203.845935 -41.703523 
L 200.898644 -41.703523 
L 197.951353 -41.703523 
L 195.004062 -41.703523 
L 192.056771 -41.703523 
L 189.109479 -41.703523 
L 186.162188 -41.703523 
L 183.214897 -41.703523 
L 180.267606 -41.703523 
L 177.320315 -41.703523 
L 174.373024 -41.703523 
L 171.425733 -41.703523 
L 168.478442 -41.703523 
L 165.531151 -41.703523 
L 162.58386 -41.703523 
L 159.636569 -41.703523 
L 156.689277 -41.703523 
L 153.741986 -41.703523 
L 150.794695 -41.703523 
L 147.847404 -41.703523 
L 144.900113 -41.703523 
L 141.952822 -41.703523 
L 139.005531 -41.703523 
L 136.05824 -41.703523 
L 133.110949 -41.703523 
L 130.163658 -41.703523 
L 127.216367 -41.703523 
L 124.269075 -41.703523 
L 121.321784 -41.703523 
L 118.374493 -41.703523 
L 115.427202 -41.703523 
L 112.479911 -41.703523 
L 109.53262 -41.703523 
L 106.585329 -41.703523 
L 103.638038 -41.703523 
L 100.690747 -41.703523 
L 97.743456 -41.703523 
L 94.796164 -41.703523 
L 91.848873 -41.703523 
L 88.901582 -41.703523 
L 85.954291 -41.703523 
L 83.007 -41.703523 
L 80.059709 -41.703523 
L 77.112418 -41.703523 
L 74.165127 -41.703523 
L 71.217836 -41.703523 
L 68.270545 -41.703523 
L 65.323254 -41.703523 
L 62.375962 -41.703523 
L 59.428671 -41.703523 
L 56.48138 -41.703523 
L 53.534089 -41.703523 
L 50.586798 -41.703523 
L 47.639507 -41.703523 
L 44.692216 -41.703523 
z
" id="m09391c2895" style="stroke:#0000ff;stroke-opacity:0.1;"/>
    </defs>
    <g clip-path="url(#pfc28a6c2af)">
     <use style="fill:#0000ff;fill-opacity:0.1;stroke:#0000ff;stroke-opacity:0.1;" x="0" xlink:href="#m09391c2895" y="135.99625"/>
    </g>
   </g>
   <g id="matplotlib.axis_1">
    <g id="xtick_1">
     <g id="line2d_1">
      <path clip-path="url(#pfc28a6c2af)" d="M 44.692216 98.44 
L 44.692216 7.2 
" style="fill:none;stroke:#808080;stroke-linecap:square;stroke-opacity:0.5;stroke-width:0.5;"/>
     </g>
     <g id="line2d_2">
      <defs>
       <path d="M 0 0 
L 0 3.5 
" id="m974a708139" style="stroke:#000000;stroke-width:0.8;"/>
      </defs>
      <g>
       <use style="stroke:#000000;stroke-width:0.8;" x="44.692216" xlink:href="#m974a708139" y="98.44"/>
      </g>
     </g>
     <g id="text_1">
      <!-- 0.0 -->
      <g transform="translate(36.740653 113.038438)scale(0.1 -0.1)">
       <defs>
        <path d="M 31.78125 66.40625 
Q 24.171875 66.40625 20.328125 58.90625 
Q 16.5 51.421875 16.5 36.375 
Q 16.5 21.390625 20.328125 13.890625 
Q 24.171875 6.390625 31.78125 6.390625 
Q 39.453125 6.390625 43.28125 13.890625 
Q 47.125 21.390625 47.125 36.375 
Q 47.125 51.421875 43.28125 58.90625 
Q 39.453125 66.40625 31.78125 66.40625 
z
M 31.78125 74.21875 
Q 44.046875 74.21875 50.515625 64.515625 
Q 56.984375 54.828125 56.984375 36.375 
Q 56.984375 17.96875 50.515625 8.265625 
Q 44.046875 -1.421875 31.78125 -1.421875 
Q 19.53125 -1.421875 13.0625 8.265625 
Q 6.59375 17.96875 6.59375 36.375 
Q 6.59375 54.828125 13.0625 64.515625 
Q 19.53125 74.21875 31.78125 74.21875 
z
" id="DejaVuSans-48"/>
        <path d="M 10.6875 12.40625 
L 21 12.40625 
L 21 0 
L 10.6875 0 
z
" id="DejaVuSans-46"/>
       </defs>
       <use xlink:href="#DejaVuSans-48"/>
       <use x="63.623047" xlink:href="#DejaVuSans-46"/>
       <use x="95.410156" xlink:href="#DejaVuSans-48"/>
      </g>
     </g>
    </g>
    <g id="xtick_2">
     <g id="line2d_3">
      <path clip-path="url(#pfc28a6c2af)" d="M 103.04858 98.44 
L 103.04858 7.2 
" style="fill:none;stroke:#808080;stroke-linecap:square;stroke-opacity:0.5;stroke-width:0.5;"/>
     </g>
     <g id="line2d_4">
      <g>
       <use style="stroke:#000000;stroke-width:0.8;" x="103.04858" xlink:href="#m974a708139" y="98.44"/>
      </g>
     </g>
     <g id="text_2">
      <!-- 0.2 -->
      <g transform="translate(95.097017 113.038438)scale(0.1 -0.1)">
       <defs>
        <path d="M 19.1875 8.296875 
L 53.609375 8.296875 
L 53.609375 0 
L 7.328125 0 
L 7.328125 8.296875 
Q 12.9375 14.109375 22.625 23.890625 
Q 32.328125 33.6875 34.8125 36.53125 
Q 39.546875 41.84375 41.421875 45.53125 
Q 43.3125 49.21875 43.3125 52.78125 
Q 43.3125 58.59375 39.234375 62.25 
Q 35.15625 65.921875 28.609375 65.921875 
Q 23.96875 65.921875 18.8125 64.3125 
Q 13.671875 62.703125 7.8125 59.421875 
L 7.8125 69.390625 
Q 13.765625 71.78125 18.9375 73 
Q 24.125 74.21875 28.421875 74.21875 
Q 39.75 74.21875 46.484375 68.546875 
Q 53.21875 62.890625 53.21875 53.421875 
Q 53.21875 48.921875 51.53125 44.890625 
Q 49.859375 40.875 45.40625 35.40625 
Q 44.1875 33.984375 37.640625 27.21875 
Q 31.109375 20.453125 19.1875 8.296875 
z
" id="DejaVuSans-50"/>
       </defs>
       <use xlink:href="#DejaVuSans-48"/>
       <use x="63.623047" xlink:href="#DejaVuSans-46"/>
       <use x="95.410156" xlink:href="#DejaVuSans-50"/>
      </g>
     </g>
    </g>
    <g id="xtick_3">
     <g id="line2d_5">
      <path clip-path="url(#pfc28a6c2af)" d="M 161.404943 98.44 
L 161.404943 7.2 
" style="fill:none;stroke:#808080;stroke-linecap:square;stroke-opacity:0.5;stroke-width:0.5;"/>
     </g>
     <g id="line2d_6">
      <g>
       <use style="stroke:#000000;stroke-width:0.8;" x="161.404943" xlink:href="#m974a708139" y="98.44"/>
      </g>
     </g>
     <g id="text_3">
      <!-- 0.4 -->
      <g transform="translate(153.453381 113.038438)scale(0.1 -0.1)">
       <defs>
        <path d="M 37.796875 64.3125 
L 12.890625 25.390625 
L 37.796875 25.390625 
z
M 35.203125 72.90625 
L 47.609375 72.90625 
L 47.609375 25.390625 
L 58.015625 25.390625 
L 58.015625 17.1875 
L 47.609375 17.1875 
L 47.609375 0 
L 37.796875 0 
L 37.796875 17.1875 
L 4.890625 17.1875 
L 4.890625 26.703125 
z
" id="DejaVuSans-52"/>
       </defs>
       <use xlink:href="#DejaVuSans-48"/>
       <use x="63.623047" xlink:href="#DejaVuSans-46"/>
       <use x="95.410156" xlink:href="#DejaVuSans-52"/>
      </g>
     </g>
    </g>
    <g id="xtick_4">
     <g id="line2d_7">
      <path clip-path="url(#pfc28a6c2af)" d="M 219.761307 98.44 
L 219.761307 7.2 
" style="fill:none;stroke:#808080;stroke-linecap:square;stroke-opacity:0.5;stroke-width:0.5;"/>
     </g>
     <g id="line2d_8">
      <g>
       <use style="stroke:#000000;stroke-width:0.8;" x="219.761307" xlink:href="#m974a708139" y="98.44"/>
      </g>
     </g>
     <g id="text_4">
      <!-- 0.6 -->
      <g transform="translate(211.809744 113.038438)scale(0.1 -0.1)">
       <defs>
        <path d="M 33.015625 40.375 
Q 26.375 40.375 22.484375 35.828125 
Q 18.609375 31.296875 18.609375 23.390625 
Q 18.609375 15.53125 22.484375 10.953125 
Q 26.375 6.390625 33.015625 6.390625 
Q 39.65625 6.390625 43.53125 10.953125 
Q 47.40625 15.53125 47.40625 23.390625 
Q 47.40625 31.296875 43.53125 35.828125 
Q 39.65625 40.375 33.015625 40.375 
z
M 52.59375 71.296875 
L 52.59375 62.3125 
Q 48.875 64.0625 45.09375 64.984375 
Q 41.3125 65.921875 37.59375 65.921875 
Q 27.828125 65.921875 22.671875 59.328125 
Q 17.53125 52.734375 16.796875 39.40625 
Q 19.671875 43.65625 24.015625 45.921875 
Q 28.375 48.1875 33.59375 48.1875 
Q 44.578125 48.1875 50.953125 41.515625 
Q 57.328125 34.859375 57.328125 23.390625 
Q 57.328125 12.15625 50.6875 5.359375 
Q 44.046875 -1.421875 33.015625 -1.421875 
Q 20.359375 -1.421875 13.671875 8.265625 
Q 6.984375 17.96875 6.984375 36.375 
Q 6.984375 53.65625 15.1875 63.9375 
Q 23.390625 74.21875 37.203125 74.21875 
Q 40.921875 74.21875 44.703125 73.484375 
Q 48.484375 72.75 52.59375 71.296875 
z
" id="DejaVuSans-54"/>
       </defs>
       <use xlink:href="#DejaVuSans-48"/>
       <use x="63.623047" xlink:href="#DejaVuSans-46"/>
       <use x="95.410156" xlink:href="#DejaVuSans-54"/>
      </g>
     </g>
    </g>
    <g id="xtick_5">
     <g id="line2d_9">
      <path clip-path="url(#pfc28a6c2af)" d="M 278.11767 98.44 
L 278.11767 7.2 
" style="fill:none;stroke:#808080;stroke-linecap:square;stroke-opacity:0.5;stroke-width:0.5;"/>
     </g>
     <g id="line2d_10">
      <g>
       <use style="stroke:#000000;stroke-width:0.8;" x="278.11767" xlink:href="#m974a708139" y="98.44"/>
      </g>
     </g>
     <g id="text_5">
      <!-- 0.8 -->
      <g transform="translate(270.166108 113.038438)scale(0.1 -0.1)">
       <defs>
        <path d="M 31.78125 34.625 
Q 24.75 34.625 20.71875 30.859375 
Q 16.703125 27.09375 16.703125 20.515625 
Q 16.703125 13.921875 20.71875 10.15625 
Q 24.75 6.390625 31.78125 6.390625 
Q 38.8125 6.390625 42.859375 10.171875 
Q 46.921875 13.96875 46.921875 20.515625 
Q 46.921875 27.09375 42.890625 30.859375 
Q 38.875 34.625 31.78125 34.625 
z
M 21.921875 38.8125 
Q 15.578125 40.375 12.03125 44.71875 
Q 8.5 49.078125 8.5 55.328125 
Q 8.5 64.0625 14.71875 69.140625 
Q 20.953125 74.21875 31.78125 74.21875 
Q 42.671875 74.21875 48.875 69.140625 
Q 55.078125 64.0625 55.078125 55.328125 
Q 55.078125 49.078125 51.53125 44.71875 
Q 48 40.375 41.703125 38.8125 
Q 48.828125 37.15625 52.796875 32.3125 
Q 56.78125 27.484375 56.78125 20.515625 
Q 56.78125 9.90625 50.3125 4.234375 
Q 43.84375 -1.421875 31.78125 -1.421875 
Q 19.734375 -1.421875 13.25 4.234375 
Q 6.78125 9.90625 6.78125 20.515625 
Q 6.78125 27.484375 10.78125 32.3125 
Q 14.796875 37.15625 21.921875 38.8125 
z
M 18.3125 54.390625 
Q 18.3125 48.734375 21.84375 45.5625 
Q 25.390625 42.390625 31.78125 42.390625 
Q 38.140625 42.390625 41.71875 45.5625 
Q 45.3125 48.734375 45.3125 54.390625 
Q 45.3125 60.0625 41.71875 63.234375 
Q 38.140625 66.40625 31.78125 66.40625 
Q 25.390625 66.40625 21.84375 63.234375 
Q 18.3125 60.0625 18.3125 54.390625 
z
" id="DejaVuSans-56"/>
       </defs>
       <use xlink:href="#DejaVuSans-48"/>
       <use x="63.623047" xlink:href="#DejaVuSans-46"/>
       <use x="95.410156" xlink:href="#DejaVuSans-56"/>
      </g>
     </g>
    </g>
    <g id="xtick_6">
     <g id="line2d_11">
      <path clip-path="url(#pfc28a6c2af)" d="M 336.474034 98.44 
L 336.474034 7.2 
" style="fill:none;stroke:#808080;stroke-linecap:square;stroke-opacity:0.5;stroke-width:0.5;"/>
     </g>
     <g id="line2d_12">
      <g>
       <use style="stroke:#000000;stroke-width:0.8;" x="336.474034" xlink:href="#m974a708139" y="98.44"/>
      </g>
     </g>
     <g id="text_6">
      <!-- 1.0 -->
      <g transform="translate(328.522472 113.038438)scale(0.1 -0.1)">
       <defs>
        <path d="M 12.40625 8.296875 
L 28.515625 8.296875 
L 28.515625 63.921875 
L 10.984375 60.40625 
L 10.984375 69.390625 
L 28.421875 72.90625 
L 38.28125 72.90625 
L 38.28125 8.296875 
L 54.390625 8.296875 
L 54.390625 0 
L 12.40625 0 
z
" id="DejaVuSans-49"/>
       </defs>
       <use xlink:href="#DejaVuSans-49"/>
       <use x="63.623047" xlink:href="#DejaVuSans-46"/>
       <use x="95.410156" xlink:href="#DejaVuSans-48"/>
      </g>
     </g>
    </g>
    <g id="text_7">
     <!-- Pixels Inserted -->
     <g transform="translate(154.237813 126.716562)scale(0.1 -0.1)">
      <defs>
       <path d="M 19.671875 64.796875 
L 19.671875 37.40625 
L 32.078125 37.40625 
Q 38.96875 37.40625 42.71875 40.96875 
Q 46.484375 44.53125 46.484375 51.125 
Q 46.484375 57.671875 42.71875 61.234375 
Q 38.96875 64.796875 32.078125 64.796875 
z
M 9.8125 72.90625 
L 32.078125 72.90625 
Q 44.34375 72.90625 50.609375 67.359375 
Q 56.890625 61.8125 56.890625 51.125 
Q 56.890625 40.328125 50.609375 34.8125 
Q 44.34375 29.296875 32.078125 29.296875 
L 19.671875 29.296875 
L 19.671875 0 
L 9.8125 0 
z
" id="DejaVuSans-80"/>
       <path d="M 9.421875 54.6875 
L 18.40625 54.6875 
L 18.40625 0 
L 9.421875 0 
z
M 9.421875 75.984375 
L 18.40625 75.984375 
L 18.40625 64.59375 
L 9.421875 64.59375 
z
" id="DejaVuSans-105"/>
       <path d="M 54.890625 54.6875 
L 35.109375 28.078125 
L 55.90625 0 
L 45.3125 0 
L 29.390625 21.484375 
L 13.484375 0 
L 2.875 0 
L 24.125 28.609375 
L 4.6875 54.6875 
L 15.28125 54.6875 
L 29.78125 35.203125 
L 44.28125 54.6875 
z
" id="DejaVuSans-120"/>
       <path d="M 56.203125 29.59375 
L 56.203125 25.203125 
L 14.890625 25.203125 
Q 15.484375 15.921875 20.484375 11.0625 
Q 25.484375 6.203125 34.421875 6.203125 
Q 39.59375 6.203125 44.453125 7.46875 
Q 49.3125 8.734375 54.109375 11.28125 
L 54.109375 2.78125 
Q 49.265625 0.734375 44.1875 -0.34375 
Q 39.109375 -1.421875 33.890625 -1.421875 
Q 20.796875 -1.421875 13.15625 6.1875 
Q 5.515625 13.8125 5.515625 26.8125 
Q 5.515625 40.234375 12.765625 48.109375 
Q 20.015625 56 32.328125 56 
Q 43.359375 56 49.78125 48.890625 
Q 56.203125 41.796875 56.203125 29.59375 
z
M 47.21875 32.234375 
Q 47.125 39.59375 43.09375 43.984375 
Q 39.0625 48.390625 32.421875 48.390625 
Q 24.90625 48.390625 20.390625 44.140625 
Q 15.875 39.890625 15.1875 32.171875 
z
" id="DejaVuSans-101"/>
       <path d="M 9.421875 75.984375 
L 18.40625 75.984375 
L 18.40625 0 
L 9.421875 0 
z
" id="DejaVuSans-108"/>
       <path d="M 44.28125 53.078125 
L 44.28125 44.578125 
Q 40.484375 46.53125 36.375 47.5 
Q 32.28125 48.484375 27.875 48.484375 
Q 21.1875 48.484375 17.84375 46.4375 
Q 14.5 44.390625 14.5 40.28125 
Q 14.5 37.15625 16.890625 35.375 
Q 19.28125 33.59375 26.515625 31.984375 
L 29.59375 31.296875 
Q 39.15625 29.25 43.1875 25.515625 
Q 47.21875 21.78125 47.21875 15.09375 
Q 47.21875 7.46875 41.1875 3.015625 
Q 35.15625 -1.421875 24.609375 -1.421875 
Q 20.21875 -1.421875 15.453125 -0.5625 
Q 10.6875 0.296875 5.421875 2 
L 5.421875 11.28125 
Q 10.40625 8.6875 15.234375 7.390625 
Q 20.0625 6.109375 24.8125 6.109375 
Q 31.15625 6.109375 34.5625 8.28125 
Q 37.984375 10.453125 37.984375 14.40625 
Q 37.984375 18.0625 35.515625 20.015625 
Q 33.0625 21.96875 24.703125 23.78125 
L 21.578125 24.515625 
Q 13.234375 26.265625 9.515625 29.90625 
Q 5.8125 33.546875 5.8125 39.890625 
Q 5.8125 47.609375 11.28125 51.796875 
Q 16.75 56 26.8125 56 
Q 31.78125 56 36.171875 55.265625 
Q 40.578125 54.546875 44.28125 53.078125 
z
" id="DejaVuSans-115"/>
       <path id="DejaVuSans-32"/>
       <path d="M 9.8125 72.90625 
L 19.671875 72.90625 
L 19.671875 0 
L 9.8125 0 
z
" id="DejaVuSans-73"/>
       <path d="M 54.890625 33.015625 
L 54.890625 0 
L 45.90625 0 
L 45.90625 32.71875 
Q 45.90625 40.484375 42.875 44.328125 
Q 39.84375 48.1875 33.796875 48.1875 
Q 26.515625 48.1875 22.3125 43.546875 
Q 18.109375 38.921875 18.109375 30.90625 
L 18.109375 0 
L 9.078125 0 
L 9.078125 54.6875 
L 18.109375 54.6875 
L 18.109375 46.1875 
Q 21.34375 51.125 25.703125 53.5625 
Q 30.078125 56 35.796875 56 
Q 45.21875 56 50.046875 50.171875 
Q 54.890625 44.34375 54.890625 33.015625 
z
" id="DejaVuSans-110"/>
       <path d="M 41.109375 46.296875 
Q 39.59375 47.171875 37.8125 47.578125 
Q 36.03125 48 33.890625 48 
Q 26.265625 48 22.1875 43.046875 
Q 18.109375 38.09375 18.109375 28.8125 
L 18.109375 0 
L 9.078125 0 
L 9.078125 54.6875 
L 18.109375 54.6875 
L 18.109375 46.1875 
Q 20.953125 51.171875 25.484375 53.578125 
Q 30.03125 56 36.53125 56 
Q 37.453125 56 38.578125 55.875 
Q 39.703125 55.765625 41.0625 55.515625 
z
" id="DejaVuSans-114"/>
       <path d="M 18.3125 70.21875 
L 18.3125 54.6875 
L 36.8125 54.6875 
L 36.8125 47.703125 
L 18.3125 47.703125 
L 18.3125 18.015625 
Q 18.3125 11.328125 20.140625 9.421875 
Q 21.96875 7.515625 27.59375 7.515625 
L 36.8125 7.515625 
L 36.8125 0 
L 27.59375 0 
Q 17.1875 0 13.234375 3.875 
Q 9.28125 7.765625 9.28125 18.015625 
L 9.28125 47.703125 
L 2.6875 47.703125 
L 2.6875 54.6875 
L 9.28125 54.6875 
L 9.28125 70.21875 
z
" id="DejaVuSans-116"/>
       <path d="M 45.40625 46.390625 
L 45.40625 75.984375 
L 54.390625 75.984375 
L 54.390625 0 
L 45.40625 0 
L 45.40625 8.203125 
Q 42.578125 3.328125 38.25 0.953125 
Q 33.9375 -1.421875 27.875 -1.421875 
Q 17.96875 -1.421875 11.734375 6.484375 
Q 5.515625 14.40625 5.515625 27.296875 
Q 5.515625 40.1875 11.734375 48.09375 
Q 17.96875 56 27.875 56 
Q 33.9375 56 38.25 53.625 
Q 42.578125 51.265625 45.40625 46.390625 
z
M 14.796875 27.296875 
Q 14.796875 17.390625 18.875 11.75 
Q 22.953125 6.109375 30.078125 6.109375 
Q 37.203125 6.109375 41.296875 11.75 
Q 45.40625 17.390625 45.40625 27.296875 
Q 45.40625 37.203125 41.296875 42.84375 
Q 37.203125 48.484375 30.078125 48.484375 
Q 22.953125 48.484375 18.875 42.84375 
Q 14.796875 37.203125 14.796875 27.296875 
z
" id="DejaVuSans-100"/>
      </defs>
      <use xlink:href="#DejaVuSans-80"/>
      <use x="58.052734" xlink:href="#DejaVuSans-105"/>
      <use x="85.835938" xlink:href="#DejaVuSans-120"/>
      <use x="141.890625" xlink:href="#DejaVuSans-101"/>
      <use x="203.414062" xlink:href="#DejaVuSans-108"/>
      <use x="231.197266" xlink:href="#DejaVuSans-115"/>
      <use x="283.296875" xlink:href="#DejaVuSans-32"/>
      <use x="315.083984" xlink:href="#DejaVuSans-73"/>
      <use x="344.576172" xlink:href="#DejaVuSans-110"/>
      <use x="407.955078" xlink:href="#DejaVuSans-115"/>
      <use x="460.054688" xlink:href="#DejaVuSans-101"/>
      <use x="521.578125" xlink:href="#DejaVuSans-114"/>
      <use x="562.691406" xlink:href="#DejaVuSans-116"/>
      <use x="601.900391" xlink:href="#DejaVuSans-101"/>
      <use x="663.423828" xlink:href="#DejaVuSans-100"/>
     </g>
    </g>
   </g>
   <g id="matplotlib.axis_2">
    <g id="ytick_1">
     <g id="line2d_13">
      <path clip-path="url(#pfc28a6c2af)" d="M 30.103125 94.292727 
L 351.063125 94.292727 
" style="fill:none;stroke:#808080;stroke-linecap:square;stroke-opacity:0.5;stroke-width:0.5;"/>
     </g>
     <g id="line2d_14">
      <defs>
       <path d="M 0 0 
L -3.5 0 
" id="me6cba7b7a3" style="stroke:#000000;stroke-width:0.8;"/>
      </defs>
      <g>
       <use style="stroke:#000000;stroke-width:0.8;" x="30.103125" xlink:href="#me6cba7b7a3" y="94.292727"/>
      </g>
     </g>
     <g id="text_8">
      <!-- 0.0 -->
      <g transform="translate(7.2 98.091946)scale(0.1 -0.1)">
       <use xlink:href="#DejaVuSans-48"/>
       <use x="63.623047" xlink:href="#DejaVuSans-46"/>
       <use x="95.410156" xlink:href="#DejaVuSans-48"/>
      </g>
     </g>
    </g>
    <g id="ytick_2">
     <g id="line2d_15">
      <path clip-path="url(#pfc28a6c2af)" d="M 30.103125 77.703636 
L 351.063125 77.703636 
" style="fill:none;stroke:#808080;stroke-linecap:square;stroke-opacity:0.5;stroke-width:0.5;"/>
     </g>
     <g id="line2d_16">
      <g>
       <use style="stroke:#000000;stroke-width:0.8;" x="30.103125" xlink:href="#me6cba7b7a3" y="77.703636"/>
      </g>
     </g>
     <g id="text_9">
      <!-- 0.2 -->
      <g transform="translate(7.2 81.502855)scale(0.1 -0.1)">
       <use xlink:href="#DejaVuSans-48"/>
       <use x="63.623047" xlink:href="#DejaVuSans-46"/>
       <use x="95.410156" xlink:href="#DejaVuSans-50"/>
      </g>
     </g>
    </g>
    <g id="ytick_3">
     <g id="line2d_17">
      <path clip-path="url(#pfc28a6c2af)" d="M 30.103125 44.525455 
L 351.063125 44.525455 
" style="fill:none;stroke:#808080;stroke-linecap:square;stroke-opacity:0.5;stroke-width:0.5;"/>
     </g>
     <g id="line2d_18">
      <g>
       <use style="stroke:#000000;stroke-width:0.8;" x="30.103125" xlink:href="#me6cba7b7a3" y="44.525455"/>
      </g>
     </g>
     <g id="text_10">
      <!-- 0.6 -->
      <g transform="translate(7.2 48.324673)scale(0.1 -0.1)">
       <use xlink:href="#DejaVuSans-48"/>
       <use x="63.623047" xlink:href="#DejaVuSans-46"/>
       <use x="95.410156" xlink:href="#DejaVuSans-54"/>
      </g>
     </g>
    </g>
    <g id="ytick_4">
     <g id="line2d_19">
      <path clip-path="url(#pfc28a6c2af)" d="M 30.103125 61.114545 
L 351.063125 61.114545 
" style="fill:none;stroke:#808080;stroke-linecap:square;stroke-opacity:0.5;stroke-width:0.5;"/>
     </g>
     <g id="line2d_20">
      <g>
       <use style="stroke:#000000;stroke-width:0.8;" x="30.103125" xlink:href="#me6cba7b7a3" y="61.114545"/>
      </g>
     </g>
     <g id="text_11">
      <!-- 0.4 -->
      <g transform="translate(7.2 64.913764)scale(0.1 -0.1)">
       <use xlink:href="#DejaVuSans-48"/>
       <use x="63.623047" xlink:href="#DejaVuSans-46"/>
       <use x="95.410156" xlink:href="#DejaVuSans-52"/>
      </g>
     </g>
    </g>
    <g id="ytick_5">
     <g id="line2d_21">
      <path clip-path="url(#pfc28a6c2af)" d="M 30.103125 27.936364 
L 351.063125 27.936364 
" style="fill:none;stroke:#808080;stroke-linecap:square;stroke-opacity:0.5;stroke-width:0.5;"/>
     </g>
     <g id="line2d_22">
      <g>
       <use style="stroke:#000000;stroke-width:0.8;" x="30.103125" xlink:href="#me6cba7b7a3" y="27.936364"/>
      </g>
     </g>
     <g id="text_12">
      <!-- 0.8 -->
      <g transform="translate(7.2 31.735582)scale(0.1 -0.1)">
       <use xlink:href="#DejaVuSans-48"/>
       <use x="63.623047" xlink:href="#DejaVuSans-46"/>
       <use x="95.410156" xlink:href="#DejaVuSans-56"/>
      </g>
     </g>
    </g>
    <g id="ytick_6">
     <g id="line2d_23">
      <path clip-path="url(#pfc28a6c2af)" d="M 30.103125 11.347273 
L 351.063125 11.347273 
" style="fill:none;stroke:#808080;stroke-linecap:square;stroke-opacity:0.5;stroke-width:0.5;"/>
     </g>
     <g id="line2d_24">
      <g>
       <use style="stroke:#000000;stroke-width:0.8;" x="30.103125" xlink:href="#me6cba7b7a3" y="11.347273"/>
      </g>
     </g>
     <g id="text_13">
      <!-- 1.0 -->
      <g transform="translate(7.2 15.146491)scale(0.1 -0.1)">
       <use xlink:href="#DejaVuSans-49"/>
       <use x="63.623047" xlink:href="#DejaVuSans-46"/>
       <use x="95.410156" xlink:href="#DejaVuSans-48"/>
      </g>
     </g>
    </g>
   </g>
   <g id="line2d_25">
    <path clip-path="url(#pfc28a6c2af)" d="M 44.692216 94.292727 
L 47.639507 83.08084 
L 50.586798 80.310546 
L 53.534089 79.627956 
L 56.48138 79.635218 
L 59.428671 79.090599 
L 62.375962 79.381062 
L 65.323254 69.810293 
L 68.270545 69.236628 
L 71.217836 59.346349 
L 74.165127 50.258473 
L 77.112418 46.885469 
L 80.059709 46.093955 
L 83.007 36.000355 
L 85.954291 37.492607 
L 88.901582 23.808153 
L 91.848873 22.301375 
L 94.796164 20.859951 
L 97.743456 19.58191 
L 100.690747 22.250542 
L 103.638038 11.347273 
L 106.585329 23.546737 
L 109.53262 22.548265 
L 112.479911 23.009376 
L 115.427202 19.661789 
L 118.374493 26.004782 
L 121.321784 26.066507 
L 124.269075 18.394639 
L 127.216367 21.273857 
L 130.163658 21.041488 
L 133.110949 24.113139 
L 136.05824 27.202945 
L 139.005531 27.079495 
L 141.952822 36.643002 
L 144.900113 36.958885 
L 147.847404 48.243385 
L 150.794695 46.050389 
L 153.741986 45.995927 
L 156.689277 34.8857 
L 159.636569 43.287353 
L 162.58386 52.092025 
L 165.531151 52.839969 
L 168.478442 52.60397 
L 171.425733 52.589445 
L 174.373024 52.509565 
L 177.320315 49.32536 
L 180.267606 50.82488 
L 183.214897 53.355542 
L 186.162188 53.700468 
L 189.109479 65.587681 
L 192.056771 64.785278 
L 195.004062 61.372332 
L 197.951353 68.677487 
L 200.898644 63.768654 
L 203.845935 61.336023 
L 206.793226 60.254048 
L 209.740517 61.198053 
L 212.687808 60.965683 
L 215.635099 67.631817 
L 218.58239 69.621491 
L 221.529681 63.863056 
L 224.476973 63.971978 
L 227.424264 63.652469 
L 230.371555 64.552905 
L 233.318846 66.760429 
L 236.266137 67.010953 
L 239.213428 77.910592 
L 242.160719 76.320305 
L 245.10801 79.057922 
L 248.055301 79.577125 
L 251.002592 79.482724 
L 253.949883 79.373801 
L 256.897175 79.384694 
L 259.844466 78.422534 
L 262.791757 78.349917 
L 265.739048 78.266409 
L 268.686339 78.197424 
L 271.63363 78.208317 
L 274.580921 78.244625 
L 277.528212 78.240994 
L 280.475503 78.17564 
L 283.422794 78.099393 
L 286.370086 77.845238 
L 289.317377 77.685482 
L 292.264668 77.841606 
L 295.211959 77.761729 
L 298.15925 77.692743 
L 301.106541 76.952063 
L 304.053832 76.908493 
L 307.001123 77.002894 
L 309.948414 77.275203 
L 312.895705 77.318772 
L 315.842996 77.195326 
L 318.790288 77.206218 
L 321.737579 77.231634 
L 324.68487 77.714529 
L 327.632161 77.703636 
L 330.579452 78.048562 
L 333.526743 78.019515 
L 336.474034 78.302717 
" style="fill:none;stroke:#1f77b4;stroke-linecap:square;stroke-width:1.5;"/>
   </g>
   <g id="line2d_26">
    <path clip-path="url(#pfc28a6c2af)" d="M 30.103125 94.292727 
L 351.063125 94.292727 
" style="fill:none;stroke:#808080;stroke-linecap:square;stroke-opacity:0.5;stroke-width:0.5;"/>
   </g>
   <g id="line2d_27">
    <path clip-path="url(#pfc28a6c2af)" d="M 30.103125 77.703636 
L 351.063125 77.703636 
" style="fill:none;stroke:#808080;stroke-linecap:square;stroke-opacity:0.5;stroke-width:0.5;"/>
   </g>
   <g id="line2d_28">
    <path clip-path="url(#pfc28a6c2af)" d="M 30.103125 44.525455 
L 351.063125 44.525455 
" style="fill:none;stroke:#808080;stroke-linecap:square;stroke-opacity:0.5;stroke-width:0.5;"/>
   </g>
   <g id="line2d_29">
    <path clip-path="url(#pfc28a6c2af)" d="M 30.103125 61.114545 
L 351.063125 61.114545 
" style="fill:none;stroke:#808080;stroke-linecap:square;stroke-opacity:0.5;stroke-width:0.5;"/>
   </g>
   <g id="line2d_30">
    <path clip-path="url(#pfc28a6c2af)" d="M 30.103125 27.936364 
L 351.063125 27.936364 
" style="fill:none;stroke:#808080;stroke-linecap:square;stroke-opacity:0.5;stroke-width:0.5;"/>
   </g>
   <g id="line2d_31">
    <path clip-path="url(#pfc28a6c2af)" d="M 30.103125 11.347273 
L 351.063125 11.347273 
" style="fill:none;stroke:#808080;stroke-linecap:square;stroke-opacity:0.5;stroke-width:0.5;"/>
   </g>
   <g id="patch_3">
    <path d="M 30.103125 98.44 
L 30.103125 7.2 
" style="fill:none;stroke:#000000;stroke-linecap:square;stroke-linejoin:miter;stroke-width:0.8;"/>
   </g>
   <g id="patch_4">
    <path d="M 351.063125 98.44 
L 351.063125 7.2 
" style="fill:none;stroke:#000000;stroke-linecap:square;stroke-linejoin:miter;stroke-width:0.8;"/>
   </g>
   <g id="patch_5">
    <path d="M 30.103125 98.44 
L 351.063125 98.44 
" style="fill:none;stroke:#000000;stroke-linecap:square;stroke-linejoin:miter;stroke-width:0.8;"/>
   </g>
   <g id="patch_6">
    <path d="M 30.103125 7.2 
L 351.063125 7.2 
" style="fill:none;stroke:#000000;stroke-linecap:square;stroke-linejoin:miter;stroke-width:0.8;"/>
   </g>
   <g id="legend_1">
    <g id="patch_7">
     <path d="M 235.46625 93.44 
L 344.063125 93.44 
Q 346.063125 93.44 346.063125 91.44 
L 346.063125 77.761875 
Q 346.063125 75.761875 344.063125 75.761875 
L 235.46625 75.761875 
Q 233.46625 75.761875 233.46625 77.761875 
L 233.46625 91.44 
Q 233.46625 93.44 235.46625 93.44 
z
" style="fill:#ffffff;opacity:0.8;stroke:#cccccc;stroke-linejoin:miter;"/>
    </g>
    <g id="line2d_32">
     <path d="M 237.46625 83.860312 
L 257.46625 83.860312 
" style="fill:none;stroke:#1f77b4;stroke-linecap:square;stroke-width:1.5;"/>
    </g>
    <g id="line2d_33"/>
    <g id="text_14">
     <!-- Insertion Curve -->
     <g transform="translate(265.46625 87.360312)scale(0.1 -0.1)">
      <defs>
       <path d="M 30.609375 48.390625 
Q 23.390625 48.390625 19.1875 42.75 
Q 14.984375 37.109375 14.984375 27.296875 
Q 14.984375 17.484375 19.15625 11.84375 
Q 23.34375 6.203125 30.609375 6.203125 
Q 37.796875 6.203125 41.984375 11.859375 
Q 46.1875 17.53125 46.1875 27.296875 
Q 46.1875 37.015625 41.984375 42.703125 
Q 37.796875 48.390625 30.609375 48.390625 
z
M 30.609375 56 
Q 42.328125 56 49.015625 48.375 
Q 55.71875 40.765625 55.71875 27.296875 
Q 55.71875 13.875 49.015625 6.21875 
Q 42.328125 -1.421875 30.609375 -1.421875 
Q 18.84375 -1.421875 12.171875 6.21875 
Q 5.515625 13.875 5.515625 27.296875 
Q 5.515625 40.765625 12.171875 48.375 
Q 18.84375 56 30.609375 56 
z
" id="DejaVuSans-111"/>
       <path d="M 64.40625 67.28125 
L 64.40625 56.890625 
Q 59.421875 61.53125 53.78125 63.8125 
Q 48.140625 66.109375 41.796875 66.109375 
Q 29.296875 66.109375 22.65625 58.46875 
Q 16.015625 50.828125 16.015625 36.375 
Q 16.015625 21.96875 22.65625 14.328125 
Q 29.296875 6.6875 41.796875 6.6875 
Q 48.140625 6.6875 53.78125 8.984375 
Q 59.421875 11.28125 64.40625 15.921875 
L 64.40625 5.609375 
Q 59.234375 2.09375 53.4375 0.328125 
Q 47.65625 -1.421875 41.21875 -1.421875 
Q 24.65625 -1.421875 15.125 8.703125 
Q 5.609375 18.84375 5.609375 36.375 
Q 5.609375 53.953125 15.125 64.078125 
Q 24.65625 74.21875 41.21875 74.21875 
Q 47.75 74.21875 53.53125 72.484375 
Q 59.328125 70.75 64.40625 67.28125 
z
" id="DejaVuSans-67"/>
       <path d="M 8.5 21.578125 
L 8.5 54.6875 
L 17.484375 54.6875 
L 17.484375 21.921875 
Q 17.484375 14.15625 20.5 10.265625 
Q 23.53125 6.390625 29.59375 6.390625 
Q 36.859375 6.390625 41.078125 11.03125 
Q 45.3125 15.671875 45.3125 23.6875 
L 45.3125 54.6875 
L 54.296875 54.6875 
L 54.296875 0 
L 45.3125 0 
L 45.3125 8.40625 
Q 42.046875 3.421875 37.71875 1 
Q 33.40625 -1.421875 27.6875 -1.421875 
Q 18.265625 -1.421875 13.375 4.4375 
Q 8.5 10.296875 8.5 21.578125 
z
M 31.109375 56 
z
" id="DejaVuSans-117"/>
       <path d="M 2.984375 54.6875 
L 12.5 54.6875 
L 29.59375 8.796875 
L 46.6875 54.6875 
L 56.203125 54.6875 
L 35.6875 0 
L 23.484375 0 
z
" id="DejaVuSans-118"/>
      </defs>
      <use xlink:href="#DejaVuSans-73"/>
      <use x="29.492188" xlink:href="#DejaVuSans-110"/>
      <use x="92.871094" xlink:href="#DejaVuSans-115"/>
      <use x="144.970703" xlink:href="#DejaVuSans-101"/>
      <use x="206.494141" xlink:href="#DejaVuSans-114"/>
      <use x="247.607422" xlink:href="#DejaVuSans-116"/>
      <use x="286.816406" xlink:href="#DejaVuSans-105"/>
      <use x="314.599609" xlink:href="#DejaVuSans-111"/>
      <use x="375.78125" xlink:href="#DejaVuSans-110"/>
      <use x="439.160156" xlink:href="#DejaVuSans-32"/>
      <use x="470.947266" xlink:href="#DejaVuSans-67"/>
      <use x="540.771484" xlink:href="#DejaVuSans-117"/>
      <use x="604.150391" xlink:href="#DejaVuSans-114"/>
      <use x="645.263672" xlink:href="#DejaVuSans-118"/>
      <use x="704.443359" xlink:href="#DejaVuSans-101"/>
     </g>
    </g>
   </g>
  </g>
  <g id="axes_2">
   <g id="patch_8">
    <path d="M 384.703125 98.44 
L 705.663125 98.44 
L 705.663125 7.2 
L 384.703125 7.2 
z
" style="fill:#ffffff;"/>
   </g>
   <g id="PolyCollection_2">
    <defs>
     <path d="M 402.239507 -124.648977 
L 402.239507 -122.525024 
L 405.186798 -122.262056 
L 408.134089 -122.292402 
L 411.08138 -122.282286 
L 414.028671 -121.736125 
L 416.975962 -121.614756 
L 419.923254 -119.126697 
L 422.870545 -118.73225 
L 425.817836 -110.671338 
L 428.765127 -111.935596 
L 431.712418 -111.470352 
L 434.659709 -110.509513 
L 437.607 -106.57514 
L 440.554291 -106.605486 
L 443.501582 -99.040164 
L 446.448873 -97.229744 
L 449.396164 -96.976892 
L 452.343456 -92.496362 
L 455.290747 -91.626551 
L 458.238038 -93.295371 
L 461.185329 -93.032408 
L 464.13262 -86.903284 
L 467.079911 -83.899404 
L 470.027202 -105.088375 
L 472.974493 -99.778491 
L 475.921784 -99.748145 
L 478.869075 -102.26655 
L 481.816367 -101.993467 
L 484.763658 -98.615371 
L 487.710949 -96.91621 
L 490.65824 -107.525863 
L 493.605531 -108.597956 
L 496.552822 -107.303357 
L 499.500113 -106.716739 
L 502.447404 -93.204348 
L 505.394695 -91.42427 
L 508.341986 -91.191648 
L 511.289277 -88.005717 
L 514.236569 -84.445566 
L 517.18386 -78.144501 
L 520.131151 -77.992792 
L 523.078442 -78.326554 
L 526.025733 -77.861308 
L 528.973024 -72.672792 
L 531.920315 -68.121463 
L 534.867606 -65.663744 
L 537.814897 -68.19226 
L 540.762188 -68.010207 
L 543.709479 -61.001161 
L 546.656771 -61.425951 
L 549.604062 -63.388081 
L 552.551353 -60.363974 
L 555.498644 -58.806409 
L 558.445935 -60.171807 
L 561.393226 -60.869678 
L 564.340517 -59.65599 
L 567.287808 -59.564963 
L 570.235099 -58.796294 
L 573.18239 -56.641999 
L 576.129681 -53.820174 
L 579.076973 -54.467473 
L 582.024264 -51.059034 
L 584.971555 -47.559567 
L 587.918846 -44.798427 
L 590.866137 -46.103141 
L 593.813428 -46.184054 
L 596.760719 -46.113255 
L 599.70801 -45.85029 
L 602.655301 -45.890746 
L 605.602592 -44.434321 
L 608.549883 -42.138428 
L 611.497175 -42.178884 
L 614.444466 -41.703523 
L 617.391757 -44.029758 
L 620.339048 -44.0601 
L 623.286339 -45.728921 
L 626.23363 -43.574625 
L 629.180921 -43.68588 
L 632.128212 -42.472192 
L 635.075503 -42.49242 
L 638.022794 -49.278958 
L 640.970086 -51.251201 
L 643.917377 -49.592494 
L 646.864668 -47.842761 
L 649.811959 -49.147476 
L 652.75925 -48.449605 
L 655.706541 -48.368692 
L 658.653832 -48.560859 
L 661.601123 -48.98565 
L 664.548414 -50.957893 
L 667.495705 -51.756904 
L 670.442996 -51.251201 
L 673.390288 -51.443368 
L 676.337579 -51.261315 
L 679.28487 -56.834166 
L 682.232161 -57.441009 
L 685.179452 -56.480172 
L 688.126743 -57.289298 
L 691.074034 -60.515685 
L 691.074034 -124.648977 
L 691.074034 -124.648977 
L 688.126743 -124.648977 
L 685.179452 -124.648977 
L 682.232161 -124.648977 
L 679.28487 -124.648977 
L 676.337579 -124.648977 
L 673.390288 -124.648977 
L 670.442996 -124.648977 
L 667.495705 -124.648977 
L 664.548414 -124.648977 
L 661.601123 -124.648977 
L 658.653832 -124.648977 
L 655.706541 -124.648977 
L 652.75925 -124.648977 
L 649.811959 -124.648977 
L 646.864668 -124.648977 
L 643.917377 -124.648977 
L 640.970086 -124.648977 
L 638.022794 -124.648977 
L 635.075503 -124.648977 
L 632.128212 -124.648977 
L 629.180921 -124.648977 
L 626.23363 -124.648977 
L 623.286339 -124.648977 
L 620.339048 -124.648977 
L 617.391757 -124.648977 
L 614.444466 -124.648977 
L 611.497175 -124.648977 
L 608.549883 -124.648977 
L 605.602592 -124.648977 
L 602.655301 -124.648977 
L 599.70801 -124.648977 
L 596.760719 -124.648977 
L 593.813428 -124.648977 
L 590.866137 -124.648977 
L 587.918846 -124.648977 
L 584.971555 -124.648977 
L 582.024264 -124.648977 
L 579.076973 -124.648977 
L 576.129681 -124.648977 
L 573.18239 -124.648977 
L 570.235099 -124.648977 
L 567.287808 -124.648977 
L 564.340517 -124.648977 
L 561.393226 -124.648977 
L 558.445935 -124.648977 
L 555.498644 -124.648977 
L 552.551353 -124.648977 
L 549.604062 -124.648977 
L 546.656771 -124.648977 
L 543.709479 -124.648977 
L 540.762188 -124.648977 
L 537.814897 -124.648977 
L 534.867606 -124.648977 
L 531.920315 -124.648977 
L 528.973024 -124.648977 
L 526.025733 -124.648977 
L 523.078442 -124.648977 
L 520.131151 -124.648977 
L 517.18386 -124.648977 
L 514.236569 -124.648977 
L 511.289277 -124.648977 
L 508.341986 -124.648977 
L 505.394695 -124.648977 
L 502.447404 -124.648977 
L 499.500113 -124.648977 
L 496.552822 -124.648977 
L 493.605531 -124.648977 
L 490.65824 -124.648977 
L 487.710949 -124.648977 
L 484.763658 -124.648977 
L 481.816367 -124.648977 
L 478.869075 -124.648977 
L 475.921784 -124.648977 
L 472.974493 -124.648977 
L 470.027202 -124.648977 
L 467.079911 -124.648977 
L 464.13262 -124.648977 
L 461.185329 -124.648977 
L 458.238038 -124.648977 
L 455.290747 -124.648977 
L 452.343456 -124.648977 
L 449.396164 -124.648977 
L 446.448873 -124.648977 
L 443.501582 -124.648977 
L 440.554291 -124.648977 
L 437.607 -124.648977 
L 434.659709 -124.648977 
L 431.712418 -124.648977 
L 428.765127 -124.648977 
L 425.817836 -124.648977 
L 422.870545 -124.648977 
L 419.923254 -124.648977 
L 416.975962 -124.648977 
L 414.028671 -124.648977 
L 411.08138 -124.648977 
L 408.134089 -124.648977 
L 405.186798 -124.648977 
L 402.239507 -124.648977 
z
" id="m44df45cb22" style="stroke:#0000ff;stroke-opacity:0.1;"/>
    </defs>
    <g clip-path="url(#p10b2db6a51)">
     <use style="fill:#0000ff;fill-opacity:0.1;stroke:#0000ff;stroke-opacity:0.1;" x="0" xlink:href="#m44df45cb22" y="135.99625"/>
    </g>
   </g>
   <g id="matplotlib.axis_3">
    <g id="xtick_7">
     <g id="line2d_34">
      <path clip-path="url(#p10b2db6a51)" d="M 399.292216 98.44 
L 399.292216 7.2 
" style="fill:none;stroke:#808080;stroke-linecap:square;stroke-opacity:0.5;stroke-width:0.5;"/>
     </g>
     <g id="line2d_35">
      <g>
       <use style="stroke:#000000;stroke-width:0.8;" x="399.292216" xlink:href="#m974a708139" y="98.44"/>
      </g>
     </g>
     <g id="text_15">
      <!-- 0.0 -->
      <g transform="translate(391.340653 113.038438)scale(0.1 -0.1)">
       <use xlink:href="#DejaVuSans-48"/>
       <use x="63.623047" xlink:href="#DejaVuSans-46"/>
       <use x="95.410156" xlink:href="#DejaVuSans-48"/>
      </g>
     </g>
    </g>
    <g id="xtick_8">
     <g id="line2d_36">
      <path clip-path="url(#p10b2db6a51)" d="M 457.64858 98.44 
L 457.64858 7.2 
" style="fill:none;stroke:#808080;stroke-linecap:square;stroke-opacity:0.5;stroke-width:0.5;"/>
     </g>
     <g id="line2d_37">
      <g>
       <use style="stroke:#000000;stroke-width:0.8;" x="457.64858" xlink:href="#m974a708139" y="98.44"/>
      </g>
     </g>
     <g id="text_16">
      <!-- 0.2 -->
      <g transform="translate(449.697017 113.038438)scale(0.1 -0.1)">
       <use xlink:href="#DejaVuSans-48"/>
       <use x="63.623047" xlink:href="#DejaVuSans-46"/>
       <use x="95.410156" xlink:href="#DejaVuSans-50"/>
      </g>
     </g>
    </g>
    <g id="xtick_9">
     <g id="line2d_38">
      <path clip-path="url(#p10b2db6a51)" d="M 516.004943 98.44 
L 516.004943 7.2 
" style="fill:none;stroke:#808080;stroke-linecap:square;stroke-opacity:0.5;stroke-width:0.5;"/>
     </g>
     <g id="line2d_39">
      <g>
       <use style="stroke:#000000;stroke-width:0.8;" x="516.004943" xlink:href="#m974a708139" y="98.44"/>
      </g>
     </g>
     <g id="text_17">
      <!-- 0.4 -->
      <g transform="translate(508.053381 113.038438)scale(0.1 -0.1)">
       <use xlink:href="#DejaVuSans-48"/>
       <use x="63.623047" xlink:href="#DejaVuSans-46"/>
       <use x="95.410156" xlink:href="#DejaVuSans-52"/>
      </g>
     </g>
    </g>
    <g id="xtick_10">
     <g id="line2d_40">
      <path clip-path="url(#p10b2db6a51)" d="M 574.361307 98.44 
L 574.361307 7.2 
" style="fill:none;stroke:#808080;stroke-linecap:square;stroke-opacity:0.5;stroke-width:0.5;"/>
     </g>
     <g id="line2d_41">
      <g>
       <use style="stroke:#000000;stroke-width:0.8;" x="574.361307" xlink:href="#m974a708139" y="98.44"/>
      </g>
     </g>
     <g id="text_18">
      <!-- 0.6 -->
      <g transform="translate(566.409744 113.038438)scale(0.1 -0.1)">
       <use xlink:href="#DejaVuSans-48"/>
       <use x="63.623047" xlink:href="#DejaVuSans-46"/>
       <use x="95.410156" xlink:href="#DejaVuSans-54"/>
      </g>
     </g>
    </g>
    <g id="xtick_11">
     <g id="line2d_42">
      <path clip-path="url(#p10b2db6a51)" d="M 632.71767 98.44 
L 632.71767 7.2 
" style="fill:none;stroke:#808080;stroke-linecap:square;stroke-opacity:0.5;stroke-width:0.5;"/>
     </g>
     <g id="line2d_43">
      <g>
       <use style="stroke:#000000;stroke-width:0.8;" x="632.71767" xlink:href="#m974a708139" y="98.44"/>
      </g>
     </g>
     <g id="text_19">
      <!-- 0.8 -->
      <g transform="translate(624.766108 113.038438)scale(0.1 -0.1)">
       <use xlink:href="#DejaVuSans-48"/>
       <use x="63.623047" xlink:href="#DejaVuSans-46"/>
       <use x="95.410156" xlink:href="#DejaVuSans-56"/>
      </g>
     </g>
    </g>
    <g id="xtick_12">
     <g id="line2d_44">
      <path clip-path="url(#p10b2db6a51)" d="M 691.074034 98.44 
L 691.074034 7.2 
" style="fill:none;stroke:#808080;stroke-linecap:square;stroke-opacity:0.5;stroke-width:0.5;"/>
     </g>
     <g id="line2d_45">
      <g>
       <use style="stroke:#000000;stroke-width:0.8;" x="691.074034" xlink:href="#m974a708139" y="98.44"/>
      </g>
     </g>
     <g id="text_20">
      <!-- 1.0 -->
      <g transform="translate(683.122472 113.038438)scale(0.1 -0.1)">
       <use xlink:href="#DejaVuSans-49"/>
       <use x="63.623047" xlink:href="#DejaVuSans-46"/>
       <use x="95.410156" xlink:href="#DejaVuSans-48"/>
      </g>
     </g>
    </g>
    <g id="text_21">
     <!-- Pixels Inserted -->
     <g transform="translate(508.837813 126.716562)scale(0.1 -0.1)">
      <use xlink:href="#DejaVuSans-80"/>
      <use x="58.052734" xlink:href="#DejaVuSans-105"/>
      <use x="85.835938" xlink:href="#DejaVuSans-120"/>
      <use x="141.890625" xlink:href="#DejaVuSans-101"/>
      <use x="203.414062" xlink:href="#DejaVuSans-108"/>
      <use x="231.197266" xlink:href="#DejaVuSans-115"/>
      <use x="283.296875" xlink:href="#DejaVuSans-32"/>
      <use x="315.083984" xlink:href="#DejaVuSans-73"/>
      <use x="344.576172" xlink:href="#DejaVuSans-110"/>
      <use x="407.955078" xlink:href="#DejaVuSans-115"/>
      <use x="460.054688" xlink:href="#DejaVuSans-101"/>
      <use x="521.578125" xlink:href="#DejaVuSans-114"/>
      <use x="562.691406" xlink:href="#DejaVuSans-116"/>
      <use x="601.900391" xlink:href="#DejaVuSans-101"/>
      <use x="663.423828" xlink:href="#DejaVuSans-100"/>
     </g>
    </g>
   </g>
   <g id="matplotlib.axis_4">
    <g id="ytick_7">
     <g id="line2d_46">
      <path clip-path="url(#p10b2db6a51)" d="M 384.703125 94.292727 
L 705.663125 94.292727 
" style="fill:none;stroke:#808080;stroke-linecap:square;stroke-opacity:0.5;stroke-width:0.5;"/>
     </g>
     <g id="line2d_47">
      <g>
       <use style="stroke:#000000;stroke-width:0.8;" x="384.703125" xlink:href="#me6cba7b7a3" y="94.292727"/>
      </g>
     </g>
     <g id="text_22">
      <!-- 0.0 -->
      <g transform="translate(361.8 98.091946)scale(0.1 -0.1)">
       <use xlink:href="#DejaVuSans-48"/>
       <use x="63.623047" xlink:href="#DejaVuSans-46"/>
       <use x="95.410156" xlink:href="#DejaVuSans-48"/>
      </g>
     </g>
    </g>
    <g id="ytick_8">
     <g id="line2d_48">
      <path clip-path="url(#p10b2db6a51)" d="M 384.703125 77.703636 
L 705.663125 77.703636 
" style="fill:none;stroke:#808080;stroke-linecap:square;stroke-opacity:0.5;stroke-width:0.5;"/>
     </g>
     <g id="line2d_49">
      <g>
       <use style="stroke:#000000;stroke-width:0.8;" x="384.703125" xlink:href="#me6cba7b7a3" y="77.703636"/>
      </g>
     </g>
     <g id="text_23">
      <!-- 0.2 -->
      <g transform="translate(361.8 81.502855)scale(0.1 -0.1)">
       <use xlink:href="#DejaVuSans-48"/>
       <use x="63.623047" xlink:href="#DejaVuSans-46"/>
       <use x="95.410156" xlink:href="#DejaVuSans-50"/>
      </g>
     </g>
    </g>
    <g id="ytick_9">
     <g id="line2d_50">
      <path clip-path="url(#p10b2db6a51)" d="M 384.703125 44.525455 
L 705.663125 44.525455 
" style="fill:none;stroke:#808080;stroke-linecap:square;stroke-opacity:0.5;stroke-width:0.5;"/>
     </g>
     <g id="line2d_51">
      <g>
       <use style="stroke:#000000;stroke-width:0.8;" x="384.703125" xlink:href="#me6cba7b7a3" y="44.525455"/>
      </g>
     </g>
     <g id="text_24">
      <!-- 0.6 -->
      <g transform="translate(361.8 48.324673)scale(0.1 -0.1)">
       <use xlink:href="#DejaVuSans-48"/>
       <use x="63.623047" xlink:href="#DejaVuSans-46"/>
       <use x="95.410156" xlink:href="#DejaVuSans-54"/>
      </g>
     </g>
    </g>
    <g id="ytick_10">
     <g id="line2d_52">
      <path clip-path="url(#p10b2db6a51)" d="M 384.703125 61.114545 
L 705.663125 61.114545 
" style="fill:none;stroke:#808080;stroke-linecap:square;stroke-opacity:0.5;stroke-width:0.5;"/>
     </g>
     <g id="line2d_53">
      <g>
       <use style="stroke:#000000;stroke-width:0.8;" x="384.703125" xlink:href="#me6cba7b7a3" y="61.114545"/>
      </g>
     </g>
     <g id="text_25">
      <!-- 0.4 -->
      <g transform="translate(361.8 64.913764)scale(0.1 -0.1)">
       <use xlink:href="#DejaVuSans-48"/>
       <use x="63.623047" xlink:href="#DejaVuSans-46"/>
       <use x="95.410156" xlink:href="#DejaVuSans-52"/>
      </g>
     </g>
    </g>
    <g id="ytick_11">
     <g id="line2d_54">
      <path clip-path="url(#p10b2db6a51)" d="M 384.703125 27.936364 
L 705.663125 27.936364 
" style="fill:none;stroke:#808080;stroke-linecap:square;stroke-opacity:0.5;stroke-width:0.5;"/>
     </g>
     <g id="line2d_55">
      <g>
       <use style="stroke:#000000;stroke-width:0.8;" x="384.703125" xlink:href="#me6cba7b7a3" y="27.936364"/>
      </g>
     </g>
     <g id="text_26">
      <!-- 0.8 -->
      <g transform="translate(361.8 31.735582)scale(0.1 -0.1)">
       <use xlink:href="#DejaVuSans-48"/>
       <use x="63.623047" xlink:href="#DejaVuSans-46"/>
       <use x="95.410156" xlink:href="#DejaVuSans-56"/>
      </g>
     </g>
    </g>
    <g id="ytick_12">
     <g id="line2d_56">
      <path clip-path="url(#p10b2db6a51)" d="M 384.703125 11.347273 
L 705.663125 11.347273 
" style="fill:none;stroke:#808080;stroke-linecap:square;stroke-opacity:0.5;stroke-width:0.5;"/>
     </g>
     <g id="line2d_57">
      <g>
       <use style="stroke:#000000;stroke-width:0.8;" x="384.703125" xlink:href="#me6cba7b7a3" y="11.347273"/>
      </g>
     </g>
     <g id="text_27">
      <!-- 1.0 -->
      <g transform="translate(361.8 15.146491)scale(0.1 -0.1)">
       <use xlink:href="#DejaVuSans-49"/>
       <use x="63.623047" xlink:href="#DejaVuSans-46"/>
       <use x="95.410156" xlink:href="#DejaVuSans-48"/>
      </g>
     </g>
    </g>
   </g>
   <g id="line2d_58">
    <path clip-path="url(#p10b2db6a51)" d="M 399.292216 11.347273 
L 402.239507 13.471226 
L 405.186798 13.734194 
L 408.134089 13.703848 
L 411.08138 13.713964 
L 414.028671 14.260125 
L 416.975962 14.381494 
L 419.923254 16.869553 
L 422.870545 17.264 
L 425.817836 25.324912 
L 428.765127 24.060654 
L 431.712418 24.525898 
L 434.659709 25.486737 
L 437.607 29.42111 
L 440.554291 29.390764 
L 443.501582 36.956086 
L 446.448873 38.766506 
L 449.396164 39.019358 
L 452.343456 43.499888 
L 455.290747 44.369699 
L 458.238038 42.700879 
L 461.185329 42.963842 
L 464.13262 49.092966 
L 467.079911 52.096846 
L 470.027202 30.907875 
L 472.974493 36.217759 
L 475.921784 36.248105 
L 478.869075 33.7297 
L 481.816367 34.002783 
L 484.763658 37.380879 
L 487.710949 39.08004 
L 490.65824 28.470387 
L 493.605531 27.398294 
L 496.552822 28.692893 
L 499.500113 29.279511 
L 502.447404 42.791902 
L 505.394695 44.57198 
L 508.341986 44.804602 
L 511.289277 47.990533 
L 514.236569 51.550684 
L 517.18386 57.851749 
L 520.131151 58.003458 
L 523.078442 57.669696 
L 526.025733 58.134942 
L 528.973024 63.323458 
L 531.920315 67.874787 
L 534.867606 70.332506 
L 537.814897 67.80399 
L 540.762188 67.986043 
L 543.709479 74.995089 
L 546.656771 74.570299 
L 549.604062 72.608169 
L 552.551353 75.632276 
L 555.498644 77.189841 
L 558.445935 75.824443 
L 561.393226 75.126572 
L 564.340517 76.34026 
L 567.287808 76.431287 
L 570.235099 77.199956 
L 573.18239 79.354251 
L 576.129681 82.176076 
L 579.076973 81.528777 
L 582.024264 84.937216 
L 584.971555 88.436683 
L 587.918846 91.197823 
L 590.866137 89.893109 
L 593.813428 89.812196 
L 596.760719 89.882995 
L 599.70801 90.14596 
L 602.655301 90.105504 
L 605.602592 91.561929 
L 608.549883 93.857822 
L 611.497175 93.817366 
L 614.444466 94.292727 
L 617.391757 91.966492 
L 620.339048 91.93615 
L 623.286339 90.267329 
L 626.23363 92.421625 
L 629.180921 92.31037 
L 632.128212 93.524058 
L 635.075503 93.50383 
L 638.022794 86.717292 
L 640.970086 84.745049 
L 643.917377 86.403756 
L 646.864668 88.153489 
L 649.811959 86.848774 
L 652.75925 87.546645 
L 655.706541 87.627558 
L 658.653832 87.435391 
L 661.601123 87.0106 
L 664.548414 85.038357 
L 667.495705 84.239346 
L 670.442996 84.745049 
L 673.390288 84.552882 
L 676.337579 84.734935 
L 679.28487 79.162084 
L 682.232161 78.555241 
L 685.179452 79.516078 
L 688.126743 78.706952 
L 691.074034 75.480565 
" style="fill:none;stroke:#1f77b4;stroke-linecap:square;stroke-width:1.5;"/>
   </g>
   <g id="line2d_59">
    <path clip-path="url(#p10b2db6a51)" d="M 384.703125 94.292727 
L 705.663125 94.292727 
" style="fill:none;stroke:#808080;stroke-linecap:square;stroke-opacity:0.5;stroke-width:0.5;"/>
   </g>
   <g id="line2d_60">
    <path clip-path="url(#p10b2db6a51)" d="M 384.703125 77.703636 
L 705.663125 77.703636 
" style="fill:none;stroke:#808080;stroke-linecap:square;stroke-opacity:0.5;stroke-width:0.5;"/>
   </g>
   <g id="line2d_61">
    <path clip-path="url(#p10b2db6a51)" d="M 384.703125 44.525455 
L 705.663125 44.525455 
" style="fill:none;stroke:#808080;stroke-linecap:square;stroke-opacity:0.5;stroke-width:0.5;"/>
   </g>
   <g id="line2d_62">
    <path clip-path="url(#p10b2db6a51)" d="M 384.703125 61.114545 
L 705.663125 61.114545 
" style="fill:none;stroke:#808080;stroke-linecap:square;stroke-opacity:0.5;stroke-width:0.5;"/>
   </g>
   <g id="line2d_63">
    <path clip-path="url(#p10b2db6a51)" d="M 384.703125 27.936364 
L 705.663125 27.936364 
" style="fill:none;stroke:#808080;stroke-linecap:square;stroke-opacity:0.5;stroke-width:0.5;"/>
   </g>
   <g id="line2d_64">
    <path clip-path="url(#p10b2db6a51)" d="M 384.703125 11.347273 
L 705.663125 11.347273 
" style="fill:none;stroke:#808080;stroke-linecap:square;stroke-opacity:0.5;stroke-width:0.5;"/>
   </g>
   <g id="patch_9">
    <path d="M 384.703125 98.44 
L 384.703125 7.2 
" style="fill:none;stroke:#000000;stroke-linecap:square;stroke-linejoin:miter;stroke-width:0.8;"/>
   </g>
   <g id="patch_10">
    <path d="M 705.663125 98.44 
L 705.663125 7.2 
" style="fill:none;stroke:#000000;stroke-linecap:square;stroke-linejoin:miter;stroke-width:0.8;"/>
   </g>
   <g id="patch_11">
    <path d="M 384.703125 98.44 
L 705.663125 98.44 
" style="fill:none;stroke:#000000;stroke-linecap:square;stroke-linejoin:miter;stroke-width:0.8;"/>
   </g>
   <g id="patch_12">
    <path d="M 384.703125 7.2 
L 705.663125 7.2 
" style="fill:none;stroke:#000000;stroke-linecap:square;stroke-linejoin:miter;stroke-width:0.8;"/>
   </g>
   <g id="legend_2">
    <g id="patch_13">
     <path d="M 391.703125 93.44 
L 498.323438 93.44 
Q 500.323438 93.44 500.323438 91.44 
L 500.323438 77.761875 
Q 500.323438 75.761875 498.323438 75.761875 
L 391.703125 75.761875 
Q 389.703125 75.761875 389.703125 77.761875 
L 389.703125 91.44 
Q 389.703125 93.44 391.703125 93.44 
z
" style="fill:#ffffff;opacity:0.8;stroke:#cccccc;stroke-linejoin:miter;"/>
    </g>
    <g id="line2d_65">
     <path d="M 393.703125 83.860312 
L 413.703125 83.860312 
" style="fill:none;stroke:#1f77b4;stroke-linecap:square;stroke-width:1.5;"/>
    </g>
    <g id="line2d_66"/>
    <g id="text_28">
     <!-- Deletion Curve -->
     <g transform="translate(421.703125 87.360312)scale(0.1 -0.1)">
      <defs>
       <path d="M 19.671875 64.796875 
L 19.671875 8.109375 
L 31.59375 8.109375 
Q 46.6875 8.109375 53.6875 14.9375 
Q 60.6875 21.78125 60.6875 36.53125 
Q 60.6875 51.171875 53.6875 57.984375 
Q 46.6875 64.796875 31.59375 64.796875 
z
M 9.8125 72.90625 
L 30.078125 72.90625 
Q 51.265625 72.90625 61.171875 64.09375 
Q 71.09375 55.28125 71.09375 36.53125 
Q 71.09375 17.671875 61.125 8.828125 
Q 51.171875 0 30.078125 0 
L 9.8125 0 
z
" id="DejaVuSans-68"/>
      </defs>
      <use xlink:href="#DejaVuSans-68"/>
      <use x="77.001953" xlink:href="#DejaVuSans-101"/>
      <use x="138.525391" xlink:href="#DejaVuSans-108"/>
      <use x="166.308594" xlink:href="#DejaVuSans-101"/>
      <use x="227.832031" xlink:href="#DejaVuSans-116"/>
      <use x="267.041016" xlink:href="#DejaVuSans-105"/>
      <use x="294.824219" xlink:href="#DejaVuSans-111"/>
      <use x="356.005859" xlink:href="#DejaVuSans-110"/>
      <use x="419.384766" xlink:href="#DejaVuSans-32"/>
      <use x="451.171875" xlink:href="#DejaVuSans-67"/>
      <use x="520.996094" xlink:href="#DejaVuSans-117"/>
      <use x="584.375" xlink:href="#DejaVuSans-114"/>
      <use x="625.488281" xlink:href="#DejaVuSans-118"/>
      <use x="684.667969" xlink:href="#DejaVuSans-101"/>
     </g>
    </g>
   </g>
  </g>
 </g>
 <defs>
  <clipPath id="pfc28a6c2af">
   <rect height="91.24" width="320.96" x="30.103125" y="7.2"/>
  </clipPath>
  <clipPath id="p10b2db6a51">
   <rect height="91.24" width="320.96" x="384.703125" y="7.2"/>
  </clipPath>
 </defs>
</svg>
