<?xml version="1.0" encoding="utf-8" standalone="no"?>
<!DOCTYPE svg PUBLIC "-//W3C//DTD SVG 1.1//EN"
  "http://www.w3.org/Graphics/SVG/1.1/DTD/svg11.dtd">
<!-- Created with matplotlib (https://matplotlib.org/) -->
<svg height="135.99625pt" version="1.1" viewBox="0 0 712.863125 135.99625" width="712.863125pt" xmlns="http://www.w3.org/2000/svg" xmlns:xlink="http://www.w3.org/1999/xlink">
 <metadata>
  <rdf:RDF xmlns:cc="http://creativecommons.org/ns#" xmlns:dc="http://purl.org/dc/elements/1.1/" xmlns:rdf="http://www.w3.org/1999/02/22-rdf-syntax-ns#">
   <cc:Work>
    <dc:type rdf:resource="http://purl.org/dc/dcmitype/StillImage"/>
    <dc:date>2025-02-15T11:03:56.036819</dc:date>
    <dc:format>image/svg+xml</dc:format>
    <dc:creator>
     <cc:Agent>
      <dc:title>Matplotlib v3.3.4, https://matplotlib.org/</dc:title>
     </cc:Agent>
    </dc:creator>
   </cc:Work>
  </rdf:RDF>
 </metadata>
 <defs>
  <style type="text/css">*{stroke-linecap:butt;stroke-linejoin:round;}</style>
 </defs>
 <g id="figure_1">
  <g id="patch_1">
   <path d="M 0 135.99625 
L 712.863125 135.99625 
L 712.863125 0 
L 0 0 
z
" style="fill:#ffffff;"/>
  </g>
  <g id="axes_1">
   <g id="patch_2">
    <path d="M 30.103125 98.44 
L 351.063125 98.44 
L 351.063125 7.2 
L 30.103125 7.2 
z
" style="fill:#ffffff;"/>
   </g>
   <g id="PolyCollection_1">
    <defs>
     <path d="M 44.692216 -41.703523 
L 44.692216 -41.703523 
L 47.639507 -49.465594 
L 50.586798 -49.541761 
L 53.534089 -52.159123 
L 56.48138 -56.375984 
L 59.428671 -56.185568 
L 62.375962 -57.470014 
L 65.323254 -64.646987 
L 68.270545 -67.880607 
L 71.217836 -68.683818 
L 74.165127 -68.846538 
L 77.112418 -77.249101 
L 80.059709 -83.847903 
L 83.007 -83.062001 
L 85.954291 -83.6471 
L 88.901582 -83.692105 
L 91.848873 -84.111024 
L 94.796164 -87.777407 
L 97.743456 -89.127635 
L 100.690747 -89.806209 
L 103.638038 -91.959649 
L 106.585329 -93.894972 
L 109.53262 -94.147706 
L 112.479911 -94.393518 
L 115.427202 -95.342135 
L 118.374493 -98.81118 
L 121.321784 -98.90466 
L 124.269075 -101.809375 
L 127.216367 -102.172898 
L 130.163658 -103.270392 
L 133.110949 -103.831256 
L 136.05824 -103.897035 
L 139.005531 -104.457895 
L 141.952822 -105.385748 
L 144.900113 -111.839135 
L 147.847404 -111.859909 
L 150.794695 -112.323833 
L 153.741986 -117.330056 
L 156.689277 -117.683191 
L 159.636569 -117.856298 
L 162.58386 -118.029405 
L 165.531151 -118.077875 
L 168.478442 -118.05364 
L 171.425733 -117.25389 
L 174.373024 -117.243502 
L 177.320315 -118.96764 
L 180.267606 -119.154595 
L 183.214897 -119.687759 
L 186.162188 -120.269398 
L 189.109479 -120.307481 
L 192.056771 -120.743709 
L 195.004062 -120.729856 
L 197.951353 -120.349025 
L 200.898644 -120.248624 
L 203.845935 -122.242804 
L 206.793226 -121.522685 
L 209.740517 -120.750631 
L 212.687808 -120.366334 
L 215.635099 -124.361621 
L 218.58239 -124.434326 
L 221.529681 -124.648977 
L 224.476973 -124.365082 
L 227.424264 -124.468949 
L 230.371555 -123.236431 
L 233.318846 -122.97331 
L 236.266137 -122.95254 
L 239.213428 -122.980236 
L 242.160719 -122.914457 
L 245.10801 -122.758659 
L 248.055301 -122.758659 
L 251.002592 -122.654797 
L 253.949883 -122.668645 
L 256.897175 -122.457455 
L 259.844466 -122.634022 
L 262.791757 -122.634022 
L 265.739048 -122.654797 
L 268.686339 -122.696341 
L 271.63363 -122.734424 
L 274.580921 -122.706728 
L 277.528212 -121.747723 
L 280.475503 -122.447068 
L 283.422794 -122.599405 
L 286.370086 -122.453994 
L 289.317377 -122.457455 
L 292.264668 -122.215108 
L 295.211959 -122.166638 
L 298.15925 -122.145863 
L 301.106541 -121.834272 
L 304.053832 -121.830811 
L 307.001123 -121.737336 
L 309.948414 -121.713101 
L 312.895705 -121.605773 
L 315.842996 -121.51922 
L 318.790288 -121.294182 
L 321.737579 -121.325343 
L 324.68487 -121.107227 
L 327.632161 -121.114153 
L 330.579452 -121.117614 
L 333.526743 -121.148776 
L 336.474034 -120.60522 
L 336.474034 -41.703523 
L 336.474034 -41.703523 
L 333.526743 -41.703523 
L 330.579452 -41.703523 
L 327.632161 -41.703523 
L 324.68487 -41.703523 
L 321.737579 -41.703523 
L 318.790288 -41.703523 
L 315.842996 -41.703523 
L 312.895705 -41.703523 
L 309.948414 -41.703523 
L 307.001123 -41.703523 
L 304.053832 -41.703523 
L 301.106541 -41.703523 
L 298.15925 -41.703523 
L 295.211959 -41.703523 
L 292.264668 -41.703523 
L 289.317377 -41.703523 
L 286.370086 -41.703523 
L 283.422794 -41.703523 
L 280.475503 -41.703523 
L 277.528212 -41.703523 
L 274.580921 -41.703523 
L 271.63363 -41.703523 
L 268.686339 -41.703523 
L 265.739048 -41.703523 
L 262.791757 -41.703523 
L 259.844466 -41.703523 
L 256.897175 -41.703523 
L 253.949883 -41.703523 
L 251.002592 -41.703523 
L 248.055301 -41.703523 
L 245.10801 -41.703523 
L 242.160719 -41.703523 
L 239.213428 -41.703523 
L 236.266137 -41.703523 
L 233.318846 -41.703523 
L 230.371555 -41.703523 
L 227.424264 -41.703523 
L 224.476973 -41.703523 
L 221.529681 -41.703523 
L 218.58239 -41.703523 
L 215.635099 -41.703523 
L 212.687808 -41.703523 
L 209.740517 -41.703523 
L 206.793226 -41.703523 
L 203.845935 -41.703523 
L 200.898644 -41.703523 
L 197.951353 -41.703523 
L 195.004062 -41.703523 
L 192.056771 -41.703523 
L 189.109479 -41.703523 
L 186.162188 -41.703523 
L 183.214897 -41.703523 
L 180.267606 -41.703523 
L 177.320315 -41.703523 
L 174.373024 -41.703523 
L 171.425733 -41.703523 
L 168.478442 -41.703523 
L 165.531151 -41.703523 
L 162.58386 -41.703523 
L 159.636569 -41.703523 
L 156.689277 -41.703523 
L 153.741986 -41.703523 
L 150.794695 -41.703523 
L 147.847404 -41.703523 
L 144.900113 -41.703523 
L 141.952822 -41.703523 
L 139.005531 -41.703523 
L 136.05824 -41.703523 
L 133.110949 -41.703523 
L 130.163658 -41.703523 
L 127.216367 -41.703523 
L 124.269075 -41.703523 
L 121.321784 -41.703523 
L 118.374493 -41.703523 
L 115.427202 -41.703523 
L 112.479911 -41.703523 
L 109.53262 -41.703523 
L 106.585329 -41.703523 
L 103.638038 -41.703523 
L 100.690747 -41.703523 
L 97.743456 -41.703523 
L 94.796164 -41.703523 
L 91.848873 -41.703523 
L 88.901582 -41.703523 
L 85.954291 -41.703523 
L 83.007 -41.703523 
L 80.059709 -41.703523 
L 77.112418 -41.703523 
L 74.165127 -41.703523 
L 71.217836 -41.703523 
L 68.270545 -41.703523 
L 65.323254 -41.703523 
L 62.375962 -41.703523 
L 59.428671 -41.703523 
L 56.48138 -41.703523 
L 53.534089 -41.703523 
L 50.586798 -41.703523 
L 47.639507 -41.703523 
L 44.692216 -41.703523 
z
" id="m1eb3aa7ef6" style="stroke:#0000ff;stroke-opacity:0.1;"/>
    </defs>
    <g clip-path="url(#p31ee0728a4)">
     <use style="fill:#0000ff;fill-opacity:0.1;stroke:#0000ff;stroke-opacity:0.1;" x="0" xlink:href="#m1eb3aa7ef6" y="135.99625"/>
    </g>
   </g>
   <g id="matplotlib.axis_1">
    <g id="xtick_1">
     <g id="line2d_1">
      <path clip-path="url(#p31ee0728a4)" d="M 44.692216 98.44 
L 44.692216 7.2 
" style="fill:none;stroke:#808080;stroke-linecap:square;stroke-opacity:0.5;stroke-width:0.5;"/>
     </g>
     <g id="line2d_2">
      <defs>
       <path d="M 0 0 
L 0 3.5 
" id="m176186c3cb" style="stroke:#000000;stroke-width:0.8;"/>
      </defs>
      <g>
       <use style="stroke:#000000;stroke-width:0.8;" x="44.692216" xlink:href="#m176186c3cb" y="98.44"/>
      </g>
     </g>
     <g id="text_1">
      <!-- 0.0 -->
      <g transform="translate(36.740653 113.038438)scale(0.1 -0.1)">
       <defs>
        <path d="M 31.78125 66.40625 
Q 24.171875 66.40625 20.328125 58.90625 
Q 16.5 51.421875 16.5 36.375 
Q 16.5 21.390625 20.328125 13.890625 
Q 24.171875 6.390625 31.78125 6.390625 
Q 39.453125 6.390625 43.28125 13.890625 
Q 47.125 21.390625 47.125 36.375 
Q 47.125 51.421875 43.28125 58.90625 
Q 39.453125 66.40625 31.78125 66.40625 
z
M 31.78125 74.21875 
Q 44.046875 74.21875 50.515625 64.515625 
Q 56.984375 54.828125 56.984375 36.375 
Q 56.984375 17.96875 50.515625 8.265625 
Q 44.046875 -1.421875 31.78125 -1.421875 
Q 19.53125 -1.421875 13.0625 8.265625 
Q 6.59375 17.96875 6.59375 36.375 
Q 6.59375 54.828125 13.0625 64.515625 
Q 19.53125 74.21875 31.78125 74.21875 
z
" id="DejaVuSans-48"/>
        <path d="M 10.6875 12.40625 
L 21 12.40625 
L 21 0 
L 10.6875 0 
z
" id="DejaVuSans-46"/>
       </defs>
       <use xlink:href="#DejaVuSans-48"/>
       <use x="63.623047" xlink:href="#DejaVuSans-46"/>
       <use x="95.410156" xlink:href="#DejaVuSans-48"/>
      </g>
     </g>
    </g>
    <g id="xtick_2">
     <g id="line2d_3">
      <path clip-path="url(#p31ee0728a4)" d="M 103.04858 98.44 
L 103.04858 7.2 
" style="fill:none;stroke:#808080;stroke-linecap:square;stroke-opacity:0.5;stroke-width:0.5;"/>
     </g>
     <g id="line2d_4">
      <g>
       <use style="stroke:#000000;stroke-width:0.8;" x="103.04858" xlink:href="#m176186c3cb" y="98.44"/>
      </g>
     </g>
     <g id="text_2">
      <!-- 0.2 -->
      <g transform="translate(95.097017 113.038438)scale(0.1 -0.1)">
       <defs>
        <path d="M 19.1875 8.296875 
L 53.609375 8.296875 
L 53.609375 0 
L 7.328125 0 
L 7.328125 8.296875 
Q 12.9375 14.109375 22.625 23.890625 
Q 32.328125 33.6875 34.8125 36.53125 
Q 39.546875 41.84375 41.421875 45.53125 
Q 43.3125 49.21875 43.3125 52.78125 
Q 43.3125 58.59375 39.234375 62.25 
Q 35.15625 65.921875 28.609375 65.921875 
Q 23.96875 65.921875 18.8125 64.3125 
Q 13.671875 62.703125 7.8125 59.421875 
L 7.8125 69.390625 
Q 13.765625 71.78125 18.9375 73 
Q 24.125 74.21875 28.421875 74.21875 
Q 39.75 74.21875 46.484375 68.546875 
Q 53.21875 62.890625 53.21875 53.421875 
Q 53.21875 48.921875 51.53125 44.890625 
Q 49.859375 40.875 45.40625 35.40625 
Q 44.1875 33.984375 37.640625 27.21875 
Q 31.109375 20.453125 19.1875 8.296875 
z
" id="DejaVuSans-50"/>
       </defs>
       <use xlink:href="#DejaVuSans-48"/>
       <use x="63.623047" xlink:href="#DejaVuSans-46"/>
       <use x="95.410156" xlink:href="#DejaVuSans-50"/>
      </g>
     </g>
    </g>
    <g id="xtick_3">
     <g id="line2d_5">
      <path clip-path="url(#p31ee0728a4)" d="M 161.404943 98.44 
L 161.404943 7.2 
" style="fill:none;stroke:#808080;stroke-linecap:square;stroke-opacity:0.5;stroke-width:0.5;"/>
     </g>
     <g id="line2d_6">
      <g>
       <use style="stroke:#000000;stroke-width:0.8;" x="161.404943" xlink:href="#m176186c3cb" y="98.44"/>
      </g>
     </g>
     <g id="text_3">
      <!-- 0.4 -->
      <g transform="translate(153.453381 113.038438)scale(0.1 -0.1)">
       <defs>
        <path d="M 37.796875 64.3125 
L 12.890625 25.390625 
L 37.796875 25.390625 
z
M 35.203125 72.90625 
L 47.609375 72.90625 
L 47.609375 25.390625 
L 58.015625 25.390625 
L 58.015625 17.1875 
L 47.609375 17.1875 
L 47.609375 0 
L 37.796875 0 
L 37.796875 17.1875 
L 4.890625 17.1875 
L 4.890625 26.703125 
z
" id="DejaVuSans-52"/>
       </defs>
       <use xlink:href="#DejaVuSans-48"/>
       <use x="63.623047" xlink:href="#DejaVuSans-46"/>
       <use x="95.410156" xlink:href="#DejaVuSans-52"/>
      </g>
     </g>
    </g>
    <g id="xtick_4">
     <g id="line2d_7">
      <path clip-path="url(#p31ee0728a4)" d="M 219.761307 98.44 
L 219.761307 7.2 
" style="fill:none;stroke:#808080;stroke-linecap:square;stroke-opacity:0.5;stroke-width:0.5;"/>
     </g>
     <g id="line2d_8">
      <g>
       <use style="stroke:#000000;stroke-width:0.8;" x="219.761307" xlink:href="#m176186c3cb" y="98.44"/>
      </g>
     </g>
     <g id="text_4">
      <!-- 0.6 -->
      <g transform="translate(211.809744 113.038438)scale(0.1 -0.1)">
       <defs>
        <path d="M 33.015625 40.375 
Q 26.375 40.375 22.484375 35.828125 
Q 18.609375 31.296875 18.609375 23.390625 
Q 18.609375 15.53125 22.484375 10.953125 
Q 26.375 6.390625 33.015625 6.390625 
Q 39.65625 6.390625 43.53125 10.953125 
Q 47.40625 15.53125 47.40625 23.390625 
Q 47.40625 31.296875 43.53125 35.828125 
Q 39.65625 40.375 33.015625 40.375 
z
M 52.59375 71.296875 
L 52.59375 62.3125 
Q 48.875 64.0625 45.09375 64.984375 
Q 41.3125 65.921875 37.59375 65.921875 
Q 27.828125 65.921875 22.671875 59.328125 
Q 17.53125 52.734375 16.796875 39.40625 
Q 19.671875 43.65625 24.015625 45.921875 
Q 28.375 48.1875 33.59375 48.1875 
Q 44.578125 48.1875 50.953125 41.515625 
Q 57.328125 34.859375 57.328125 23.390625 
Q 57.328125 12.15625 50.6875 5.359375 
Q 44.046875 -1.421875 33.015625 -1.421875 
Q 20.359375 -1.421875 13.671875 8.265625 
Q 6.984375 17.96875 6.984375 36.375 
Q 6.984375 53.65625 15.1875 63.9375 
Q 23.390625 74.21875 37.203125 74.21875 
Q 40.921875 74.21875 44.703125 73.484375 
Q 48.484375 72.75 52.59375 71.296875 
z
" id="DejaVuSans-54"/>
       </defs>
       <use xlink:href="#DejaVuSans-48"/>
       <use x="63.623047" xlink:href="#DejaVuSans-46"/>
       <use x="95.410156" xlink:href="#DejaVuSans-54"/>
      </g>
     </g>
    </g>
    <g id="xtick_5">
     <g id="line2d_9">
      <path clip-path="url(#p31ee0728a4)" d="M 278.11767 98.44 
L 278.11767 7.2 
" style="fill:none;stroke:#808080;stroke-linecap:square;stroke-opacity:0.5;stroke-width:0.5;"/>
     </g>
     <g id="line2d_10">
      <g>
       <use style="stroke:#000000;stroke-width:0.8;" x="278.11767" xlink:href="#m176186c3cb" y="98.44"/>
      </g>
     </g>
     <g id="text_5">
      <!-- 0.8 -->
      <g transform="translate(270.166108 113.038438)scale(0.1 -0.1)">
       <defs>
        <path d="M 31.78125 34.625 
Q 24.75 34.625 20.71875 30.859375 
Q 16.703125 27.09375 16.703125 20.515625 
Q 16.703125 13.921875 20.71875 10.15625 
Q 24.75 6.390625 31.78125 6.390625 
Q 38.8125 6.390625 42.859375 10.171875 
Q 46.921875 13.96875 46.921875 20.515625 
Q 46.921875 27.09375 42.890625 30.859375 
Q 38.875 34.625 31.78125 34.625 
z
M 21.921875 38.8125 
Q 15.578125 40.375 12.03125 44.71875 
Q 8.5 49.078125 8.5 55.328125 
Q 8.5 64.0625 14.71875 69.140625 
Q 20.953125 74.21875 31.78125 74.21875 
Q 42.671875 74.21875 48.875 69.140625 
Q 55.078125 64.0625 55.078125 55.328125 
Q 55.078125 49.078125 51.53125 44.71875 
Q 48 40.375 41.703125 38.8125 
Q 48.828125 37.15625 52.796875 32.3125 
Q 56.78125 27.484375 56.78125 20.515625 
Q 56.78125 9.90625 50.3125 4.234375 
Q 43.84375 -1.421875 31.78125 -1.421875 
Q 19.734375 -1.421875 13.25 4.234375 
Q 6.78125 9.90625 6.78125 20.515625 
Q 6.78125 27.484375 10.78125 32.3125 
Q 14.796875 37.15625 21.921875 38.8125 
z
M 18.3125 54.390625 
Q 18.3125 48.734375 21.84375 45.5625 
Q 25.390625 42.390625 31.78125 42.390625 
Q 38.140625 42.390625 41.71875 45.5625 
Q 45.3125 48.734375 45.3125 54.390625 
Q 45.3125 60.0625 41.71875 63.234375 
Q 38.140625 66.40625 31.78125 66.40625 
Q 25.390625 66.40625 21.84375 63.234375 
Q 18.3125 60.0625 18.3125 54.390625 
z
" id="DejaVuSans-56"/>
       </defs>
       <use xlink:href="#DejaVuSans-48"/>
       <use x="63.623047" xlink:href="#DejaVuSans-46"/>
       <use x="95.410156" xlink:href="#DejaVuSans-56"/>
      </g>
     </g>
    </g>
    <g id="xtick_6">
     <g id="line2d_11">
      <path clip-path="url(#p31ee0728a4)" d="M 336.474034 98.44 
L 336.474034 7.2 
" style="fill:none;stroke:#808080;stroke-linecap:square;stroke-opacity:0.5;stroke-width:0.5;"/>
     </g>
     <g id="line2d_12">
      <g>
       <use style="stroke:#000000;stroke-width:0.8;" x="336.474034" xlink:href="#m176186c3cb" y="98.44"/>
      </g>
     </g>
     <g id="text_6">
      <!-- 1.0 -->
      <g transform="translate(328.522472 113.038438)scale(0.1 -0.1)">
       <defs>
        <path d="M 12.40625 8.296875 
L 28.515625 8.296875 
L 28.515625 63.921875 
L 10.984375 60.40625 
L 10.984375 69.390625 
L 28.421875 72.90625 
L 38.28125 72.90625 
L 38.28125 8.296875 
L 54.390625 8.296875 
L 54.390625 0 
L 12.40625 0 
z
" id="DejaVuSans-49"/>
       </defs>
       <use xlink:href="#DejaVuSans-49"/>
       <use x="63.623047" xlink:href="#DejaVuSans-46"/>
       <use x="95.410156" xlink:href="#DejaVuSans-48"/>
      </g>
     </g>
    </g>
    <g id="text_7">
     <!-- Pixels Inserted -->
     <g transform="translate(154.237813 126.716562)scale(0.1 -0.1)">
      <defs>
       <path d="M 19.671875 64.796875 
L 19.671875 37.40625 
L 32.078125 37.40625 
Q 38.96875 37.40625 42.71875 40.96875 
Q 46.484375 44.53125 46.484375 51.125 
Q 46.484375 57.671875 42.71875 61.234375 
Q 38.96875 64.796875 32.078125 64.796875 
z
M 9.8125 72.90625 
L 32.078125 72.90625 
Q 44.34375 72.90625 50.609375 67.359375 
Q 56.890625 61.8125 56.890625 51.125 
Q 56.890625 40.328125 50.609375 34.8125 
Q 44.34375 29.296875 32.078125 29.296875 
L 19.671875 29.296875 
L 19.671875 0 
L 9.8125 0 
z
" id="DejaVuSans-80"/>
       <path d="M 9.421875 54.6875 
L 18.40625 54.6875 
L 18.40625 0 
L 9.421875 0 
z
M 9.421875 75.984375 
L 18.40625 75.984375 
L 18.40625 64.59375 
L 9.421875 64.59375 
z
" id="DejaVuSans-105"/>
       <path d="M 54.890625 54.6875 
L 35.109375 28.078125 
L 55.90625 0 
L 45.3125 0 
L 29.390625 21.484375 
L 13.484375 0 
L 2.875 0 
L 24.125 28.609375 
L 4.6875 54.6875 
L 15.28125 54.6875 
L 29.78125 35.203125 
L 44.28125 54.6875 
z
" id="DejaVuSans-120"/>
       <path d="M 56.203125 29.59375 
L 56.203125 25.203125 
L 14.890625 25.203125 
Q 15.484375 15.921875 20.484375 11.0625 
Q 25.484375 6.203125 34.421875 6.203125 
Q 39.59375 6.203125 44.453125 7.46875 
Q 49.3125 8.734375 54.109375 11.28125 
L 54.109375 2.78125 
Q 49.265625 0.734375 44.1875 -0.34375 
Q 39.109375 -1.421875 33.890625 -1.421875 
Q 20.796875 -1.421875 13.15625 6.1875 
Q 5.515625 13.8125 5.515625 26.8125 
Q 5.515625 40.234375 12.765625 48.109375 
Q 20.015625 56 32.328125 56 
Q 43.359375 56 49.78125 48.890625 
Q 56.203125 41.796875 56.203125 29.59375 
z
M 47.21875 32.234375 
Q 47.125 39.59375 43.09375 43.984375 
Q 39.0625 48.390625 32.421875 48.390625 
Q 24.90625 48.390625 20.390625 44.140625 
Q 15.875 39.890625 15.1875 32.171875 
z
" id="DejaVuSans-101"/>
       <path d="M 9.421875 75.984375 
L 18.40625 75.984375 
L 18.40625 0 
L 9.421875 0 
z
" id="DejaVuSans-108"/>
       <path d="M 44.28125 53.078125 
L 44.28125 44.578125 
Q 40.484375 46.53125 36.375 47.5 
Q 32.28125 48.484375 27.875 48.484375 
Q 21.1875 48.484375 17.84375 46.4375 
Q 14.5 44.390625 14.5 40.28125 
Q 14.5 37.15625 16.890625 35.375 
Q 19.28125 33.59375 26.515625 31.984375 
L 29.59375 31.296875 
Q 39.15625 29.25 43.1875 25.515625 
Q 47.21875 21.78125 47.21875 15.09375 
Q 47.21875 7.46875 41.1875 3.015625 
Q 35.15625 -1.421875 24.609375 -1.421875 
Q 20.21875 -1.421875 15.453125 -0.5625 
Q 10.6875 0.296875 5.421875 2 
L 5.421875 11.28125 
Q 10.40625 8.6875 15.234375 7.390625 
Q 20.0625 6.109375 24.8125 6.109375 
Q 31.15625 6.109375 34.5625 8.28125 
Q 37.984375 10.453125 37.984375 14.40625 
Q 37.984375 18.0625 35.515625 20.015625 
Q 33.0625 21.96875 24.703125 23.78125 
L 21.578125 24.515625 
Q 13.234375 26.265625 9.515625 29.90625 
Q 5.8125 33.546875 5.8125 39.890625 
Q 5.8125 47.609375 11.28125 51.796875 
Q 16.75 56 26.8125 56 
Q 31.78125 56 36.171875 55.265625 
Q 40.578125 54.546875 44.28125 53.078125 
z
" id="DejaVuSans-115"/>
       <path id="DejaVuSans-32"/>
       <path d="M 9.8125 72.90625 
L 19.671875 72.90625 
L 19.671875 0 
L 9.8125 0 
z
" id="DejaVuSans-73"/>
       <path d="M 54.890625 33.015625 
L 54.890625 0 
L 45.90625 0 
L 45.90625 32.71875 
Q 45.90625 40.484375 42.875 44.328125 
Q 39.84375 48.1875 33.796875 48.1875 
Q 26.515625 48.1875 22.3125 43.546875 
Q 18.109375 38.921875 18.109375 30.90625 
L 18.109375 0 
L 9.078125 0 
L 9.078125 54.6875 
L 18.109375 54.6875 
L 18.109375 46.1875 
Q 21.34375 51.125 25.703125 53.5625 
Q 30.078125 56 35.796875 56 
Q 45.21875 56 50.046875 50.171875 
Q 54.890625 44.34375 54.890625 33.015625 
z
" id="DejaVuSans-110"/>
       <path d="M 41.109375 46.296875 
Q 39.59375 47.171875 37.8125 47.578125 
Q 36.03125 48 33.890625 48 
Q 26.265625 48 22.1875 43.046875 
Q 18.109375 38.09375 18.109375 28.8125 
L 18.109375 0 
L 9.078125 0 
L 9.078125 54.6875 
L 18.109375 54.6875 
L 18.109375 46.1875 
Q 20.953125 51.171875 25.484375 53.578125 
Q 30.03125 56 36.53125 56 
Q 37.453125 56 38.578125 55.875 
Q 39.703125 55.765625 41.0625 55.515625 
z
" id="DejaVuSans-114"/>
       <path d="M 18.3125 70.21875 
L 18.3125 54.6875 
L 36.8125 54.6875 
L 36.8125 47.703125 
L 18.3125 47.703125 
L 18.3125 18.015625 
Q 18.3125 11.328125 20.140625 9.421875 
Q 21.96875 7.515625 27.59375 7.515625 
L 36.8125 7.515625 
L 36.8125 0 
L 27.59375 0 
Q 17.1875 0 13.234375 3.875 
Q 9.28125 7.765625 9.28125 18.015625 
L 9.28125 47.703125 
L 2.6875 47.703125 
L 2.6875 54.6875 
L 9.28125 54.6875 
L 9.28125 70.21875 
z
" id="DejaVuSans-116"/>
       <path d="M 45.40625 46.390625 
L 45.40625 75.984375 
L 54.390625 75.984375 
L 54.390625 0 
L 45.40625 0 
L 45.40625 8.203125 
Q 42.578125 3.328125 38.25 0.953125 
Q 33.9375 -1.421875 27.875 -1.421875 
Q 17.96875 -1.421875 11.734375 6.484375 
Q 5.515625 14.40625 5.515625 27.296875 
Q 5.515625 40.1875 11.734375 48.09375 
Q 17.96875 56 27.875 56 
Q 33.9375 56 38.25 53.625 
Q 42.578125 51.265625 45.40625 46.390625 
z
M 14.796875 27.296875 
Q 14.796875 17.390625 18.875 11.75 
Q 22.953125 6.109375 30.078125 6.109375 
Q 37.203125 6.109375 41.296875 11.75 
Q 45.40625 17.390625 45.40625 27.296875 
Q 45.40625 37.203125 41.296875 42.84375 
Q 37.203125 48.484375 30.078125 48.484375 
Q 22.953125 48.484375 18.875 42.84375 
Q 14.796875 37.203125 14.796875 27.296875 
z
" id="DejaVuSans-100"/>
      </defs>
      <use xlink:href="#DejaVuSans-80"/>
      <use x="58.052734" xlink:href="#DejaVuSans-105"/>
      <use x="85.835938" xlink:href="#DejaVuSans-120"/>
      <use x="141.890625" xlink:href="#DejaVuSans-101"/>
      <use x="203.414062" xlink:href="#DejaVuSans-108"/>
      <use x="231.197266" xlink:href="#DejaVuSans-115"/>
      <use x="283.296875" xlink:href="#DejaVuSans-32"/>
      <use x="315.083984" xlink:href="#DejaVuSans-73"/>
      <use x="344.576172" xlink:href="#DejaVuSans-110"/>
      <use x="407.955078" xlink:href="#DejaVuSans-115"/>
      <use x="460.054688" xlink:href="#DejaVuSans-101"/>
      <use x="521.578125" xlink:href="#DejaVuSans-114"/>
      <use x="562.691406" xlink:href="#DejaVuSans-116"/>
      <use x="601.900391" xlink:href="#DejaVuSans-101"/>
      <use x="663.423828" xlink:href="#DejaVuSans-100"/>
     </g>
    </g>
   </g>
   <g id="matplotlib.axis_2">
    <g id="ytick_1">
     <g id="line2d_13">
      <path clip-path="url(#p31ee0728a4)" d="M 30.103125 94.292727 
L 351.063125 94.292727 
" style="fill:none;stroke:#808080;stroke-linecap:square;stroke-opacity:0.5;stroke-width:0.5;"/>
     </g>
     <g id="line2d_14">
      <defs>
       <path d="M 0 0 
L -3.5 0 
" id="mfea0571d20" style="stroke:#000000;stroke-width:0.8;"/>
      </defs>
      <g>
       <use style="stroke:#000000;stroke-width:0.8;" x="30.103125" xlink:href="#mfea0571d20" y="94.292727"/>
      </g>
     </g>
     <g id="text_8">
      <!-- 0.0 -->
      <g transform="translate(7.2 98.091946)scale(0.1 -0.1)">
       <use xlink:href="#DejaVuSans-48"/>
       <use x="63.623047" xlink:href="#DejaVuSans-46"/>
       <use x="95.410156" xlink:href="#DejaVuSans-48"/>
      </g>
     </g>
    </g>
    <g id="ytick_2">
     <g id="line2d_15">
      <path clip-path="url(#p31ee0728a4)" d="M 30.103125 77.703636 
L 351.063125 77.703636 
" style="fill:none;stroke:#808080;stroke-linecap:square;stroke-opacity:0.5;stroke-width:0.5;"/>
     </g>
     <g id="line2d_16">
      <g>
       <use style="stroke:#000000;stroke-width:0.8;" x="30.103125" xlink:href="#mfea0571d20" y="77.703636"/>
      </g>
     </g>
     <g id="text_9">
      <!-- 0.2 -->
      <g transform="translate(7.2 81.502855)scale(0.1 -0.1)">
       <use xlink:href="#DejaVuSans-48"/>
       <use x="63.623047" xlink:href="#DejaVuSans-46"/>
       <use x="95.410156" xlink:href="#DejaVuSans-50"/>
      </g>
     </g>
    </g>
    <g id="ytick_3">
     <g id="line2d_17">
      <path clip-path="url(#p31ee0728a4)" d="M 30.103125 44.525455 
L 351.063125 44.525455 
" style="fill:none;stroke:#808080;stroke-linecap:square;stroke-opacity:0.5;stroke-width:0.5;"/>
     </g>
     <g id="line2d_18">
      <g>
       <use style="stroke:#000000;stroke-width:0.8;" x="30.103125" xlink:href="#mfea0571d20" y="44.525455"/>
      </g>
     </g>
     <g id="text_10">
      <!-- 0.6 -->
      <g transform="translate(7.2 48.324673)scale(0.1 -0.1)">
       <use xlink:href="#DejaVuSans-48"/>
       <use x="63.623047" xlink:href="#DejaVuSans-46"/>
       <use x="95.410156" xlink:href="#DejaVuSans-54"/>
      </g>
     </g>
    </g>
    <g id="ytick_4">
     <g id="line2d_19">
      <path clip-path="url(#p31ee0728a4)" d="M 30.103125 61.114545 
L 351.063125 61.114545 
" style="fill:none;stroke:#808080;stroke-linecap:square;stroke-opacity:0.5;stroke-width:0.5;"/>
     </g>
     <g id="line2d_20">
      <g>
       <use style="stroke:#000000;stroke-width:0.8;" x="30.103125" xlink:href="#mfea0571d20" y="61.114545"/>
      </g>
     </g>
     <g id="text_11">
      <!-- 0.4 -->
      <g transform="translate(7.2 64.913764)scale(0.1 -0.1)">
       <use xlink:href="#DejaVuSans-48"/>
       <use x="63.623047" xlink:href="#DejaVuSans-46"/>
       <use x="95.410156" xlink:href="#DejaVuSans-52"/>
      </g>
     </g>
    </g>
    <g id="ytick_5">
     <g id="line2d_21">
      <path clip-path="url(#p31ee0728a4)" d="M 30.103125 27.936364 
L 351.063125 27.936364 
" style="fill:none;stroke:#808080;stroke-linecap:square;stroke-opacity:0.5;stroke-width:0.5;"/>
     </g>
     <g id="line2d_22">
      <g>
       <use style="stroke:#000000;stroke-width:0.8;" x="30.103125" xlink:href="#mfea0571d20" y="27.936364"/>
      </g>
     </g>
     <g id="text_12">
      <!-- 0.8 -->
      <g transform="translate(7.2 31.735582)scale(0.1 -0.1)">
       <use xlink:href="#DejaVuSans-48"/>
       <use x="63.623047" xlink:href="#DejaVuSans-46"/>
       <use x="95.410156" xlink:href="#DejaVuSans-56"/>
      </g>
     </g>
    </g>
    <g id="ytick_6">
     <g id="line2d_23">
      <path clip-path="url(#p31ee0728a4)" d="M 30.103125 11.347273 
L 351.063125 11.347273 
" style="fill:none;stroke:#808080;stroke-linecap:square;stroke-opacity:0.5;stroke-width:0.5;"/>
     </g>
     <g id="line2d_24">
      <g>
       <use style="stroke:#000000;stroke-width:0.8;" x="30.103125" xlink:href="#mfea0571d20" y="11.347273"/>
      </g>
     </g>
     <g id="text_13">
      <!-- 1.0 -->
      <g transform="translate(7.2 15.146491)scale(0.1 -0.1)">
       <use xlink:href="#DejaVuSans-49"/>
       <use x="63.623047" xlink:href="#DejaVuSans-46"/>
       <use x="95.410156" xlink:href="#DejaVuSans-48"/>
      </g>
     </g>
    </g>
   </g>
   <g id="line2d_25">
    <path clip-path="url(#p31ee0728a4)" d="M 44.692216 94.292727 
L 47.639507 86.530656 
L 50.586798 86.454489 
L 53.534089 83.837127 
L 56.48138 79.620266 
L 59.428671 79.810682 
L 62.375962 78.526236 
L 65.323254 71.349263 
L 68.270545 68.115643 
L 71.217836 67.312432 
L 74.165127 67.149712 
L 77.112418 58.747149 
L 80.059709 52.148347 
L 83.007 52.934249 
L 85.954291 52.34915 
L 88.901582 52.304145 
L 91.848873 51.885226 
L 94.796164 48.218843 
L 97.743456 46.868615 
L 100.690747 46.190041 
L 103.638038 44.036601 
L 106.585329 42.101278 
L 109.53262 41.848544 
L 112.479911 41.602732 
L 115.427202 40.654115 
L 118.374493 37.18507 
L 121.321784 37.09159 
L 124.269075 34.186875 
L 127.216367 33.823352 
L 130.163658 32.725858 
L 133.110949 32.164994 
L 136.05824 32.099215 
L 139.005531 31.538355 
L 141.952822 30.610502 
L 144.900113 24.157115 
L 147.847404 24.136341 
L 150.794695 23.672417 
L 153.741986 18.666194 
L 156.689277 18.313059 
L 159.636569 18.139952 
L 162.58386 17.966845 
L 165.531151 17.918375 
L 168.478442 17.94261 
L 171.425733 18.74236 
L 174.373024 18.752748 
L 177.320315 17.02861 
L 180.267606 16.841655 
L 183.214897 16.308491 
L 186.162188 15.726852 
L 189.109479 15.688769 
L 192.056771 15.252541 
L 195.004062 15.266394 
L 197.951353 15.647225 
L 200.898644 15.747626 
L 203.845935 13.753446 
L 206.793226 14.473565 
L 209.740517 15.245619 
L 212.687808 15.629916 
L 215.635099 11.634629 
L 218.58239 11.561924 
L 221.529681 11.347273 
L 224.476973 11.631168 
L 227.424264 11.527301 
L 230.371555 12.759819 
L 233.318846 13.02294 
L 236.266137 13.04371 
L 239.213428 13.016014 
L 242.160719 13.081793 
L 245.10801 13.237591 
L 248.055301 13.237591 
L 251.002592 13.341453 
L 253.949883 13.327605 
L 256.897175 13.538795 
L 259.844466 13.362228 
L 262.791757 13.362228 
L 265.739048 13.341453 
L 268.686339 13.299909 
L 271.63363 13.261826 
L 274.580921 13.289522 
L 277.528212 14.248527 
L 280.475503 13.549182 
L 283.422794 13.396845 
L 286.370086 13.542256 
L 289.317377 13.538795 
L 292.264668 13.781142 
L 295.211959 13.829612 
L 298.15925 13.850387 
L 301.106541 14.161978 
L 304.053832 14.165439 
L 307.001123 14.258914 
L 309.948414 14.283149 
L 312.895705 14.390477 
L 315.842996 14.47703 
L 318.790288 14.702068 
L 321.737579 14.670907 
L 324.68487 14.889023 
L 327.632161 14.882097 
L 330.579452 14.878636 
L 333.526743 14.847474 
L 336.474034 15.39103 
" style="fill:none;stroke:#1f77b4;stroke-linecap:square;stroke-width:1.5;"/>
   </g>
   <g id="line2d_26">
    <path clip-path="url(#p31ee0728a4)" d="M 30.103125 94.292727 
L 351.063125 94.292727 
" style="fill:none;stroke:#808080;stroke-linecap:square;stroke-opacity:0.5;stroke-width:0.5;"/>
   </g>
   <g id="line2d_27">
    <path clip-path="url(#p31ee0728a4)" d="M 30.103125 77.703636 
L 351.063125 77.703636 
" style="fill:none;stroke:#808080;stroke-linecap:square;stroke-opacity:0.5;stroke-width:0.5;"/>
   </g>
   <g id="line2d_28">
    <path clip-path="url(#p31ee0728a4)" d="M 30.103125 44.525455 
L 351.063125 44.525455 
" style="fill:none;stroke:#808080;stroke-linecap:square;stroke-opacity:0.5;stroke-width:0.5;"/>
   </g>
   <g id="line2d_29">
    <path clip-path="url(#p31ee0728a4)" d="M 30.103125 61.114545 
L 351.063125 61.114545 
" style="fill:none;stroke:#808080;stroke-linecap:square;stroke-opacity:0.5;stroke-width:0.5;"/>
   </g>
   <g id="line2d_30">
    <path clip-path="url(#p31ee0728a4)" d="M 30.103125 27.936364 
L 351.063125 27.936364 
" style="fill:none;stroke:#808080;stroke-linecap:square;stroke-opacity:0.5;stroke-width:0.5;"/>
   </g>
   <g id="line2d_31">
    <path clip-path="url(#p31ee0728a4)" d="M 30.103125 11.347273 
L 351.063125 11.347273 
" style="fill:none;stroke:#808080;stroke-linecap:square;stroke-opacity:0.5;stroke-width:0.5;"/>
   </g>
   <g id="patch_3">
    <path d="M 30.103125 98.44 
L 30.103125 7.2 
" style="fill:none;stroke:#000000;stroke-linecap:square;stroke-linejoin:miter;stroke-width:0.8;"/>
   </g>
   <g id="patch_4">
    <path d="M 351.063125 98.44 
L 351.063125 7.2 
" style="fill:none;stroke:#000000;stroke-linecap:square;stroke-linejoin:miter;stroke-width:0.8;"/>
   </g>
   <g id="patch_5">
    <path d="M 30.103125 98.44 
L 351.063125 98.44 
" style="fill:none;stroke:#000000;stroke-linecap:square;stroke-linejoin:miter;stroke-width:0.8;"/>
   </g>
   <g id="patch_6">
    <path d="M 30.103125 7.2 
L 351.063125 7.2 
" style="fill:none;stroke:#000000;stroke-linecap:square;stroke-linejoin:miter;stroke-width:0.8;"/>
   </g>
   <g id="legend_1">
    <g id="patch_7">
     <path d="M 235.46625 93.44 
L 344.063125 93.44 
Q 346.063125 93.44 346.063125 91.44 
L 346.063125 77.761875 
Q 346.063125 75.761875 344.063125 75.761875 
L 235.46625 75.761875 
Q 233.46625 75.761875 233.46625 77.761875 
L 233.46625 91.44 
Q 233.46625 93.44 235.46625 93.44 
z
" style="fill:#ffffff;opacity:0.8;stroke:#cccccc;stroke-linejoin:miter;"/>
    </g>
    <g id="line2d_32">
     <path d="M 237.46625 83.860312 
L 257.46625 83.860312 
" style="fill:none;stroke:#1f77b4;stroke-linecap:square;stroke-width:1.5;"/>
    </g>
    <g id="line2d_33"/>
    <g id="text_14">
     <!-- Insertion Curve -->
     <g transform="translate(265.46625 87.360312)scale(0.1 -0.1)">
      <defs>
       <path d="M 30.609375 48.390625 
Q 23.390625 48.390625 19.1875 42.75 
Q 14.984375 37.109375 14.984375 27.296875 
Q 14.984375 17.484375 19.15625 11.84375 
Q 23.34375 6.203125 30.609375 6.203125 
Q 37.796875 6.203125 41.984375 11.859375 
Q 46.1875 17.53125 46.1875 27.296875 
Q 46.1875 37.015625 41.984375 42.703125 
Q 37.796875 48.390625 30.609375 48.390625 
z
M 30.609375 56 
Q 42.328125 56 49.015625 48.375 
Q 55.71875 40.765625 55.71875 27.296875 
Q 55.71875 13.875 49.015625 6.21875 
Q 42.328125 -1.421875 30.609375 -1.421875 
Q 18.84375 -1.421875 12.171875 6.21875 
Q 5.515625 13.875 5.515625 27.296875 
Q 5.515625 40.765625 12.171875 48.375 
Q 18.84375 56 30.609375 56 
z
" id="DejaVuSans-111"/>
       <path d="M 64.40625 67.28125 
L 64.40625 56.890625 
Q 59.421875 61.53125 53.78125 63.8125 
Q 48.140625 66.109375 41.796875 66.109375 
Q 29.296875 66.109375 22.65625 58.46875 
Q 16.015625 50.828125 16.015625 36.375 
Q 16.015625 21.96875 22.65625 14.328125 
Q 29.296875 6.6875 41.796875 6.6875 
Q 48.140625 6.6875 53.78125 8.984375 
Q 59.421875 11.28125 64.40625 15.921875 
L 64.40625 5.609375 
Q 59.234375 2.09375 53.4375 0.328125 
Q 47.65625 -1.421875 41.21875 -1.421875 
Q 24.65625 -1.421875 15.125 8.703125 
Q 5.609375 18.84375 5.609375 36.375 
Q 5.609375 53.953125 15.125 64.078125 
Q 24.65625 74.21875 41.21875 74.21875 
Q 47.75 74.21875 53.53125 72.484375 
Q 59.328125 70.75 64.40625 67.28125 
z
" id="DejaVuSans-67"/>
       <path d="M 8.5 21.578125 
L 8.5 54.6875 
L 17.484375 54.6875 
L 17.484375 21.921875 
Q 17.484375 14.15625 20.5 10.265625 
Q 23.53125 6.390625 29.59375 6.390625 
Q 36.859375 6.390625 41.078125 11.03125 
Q 45.3125 15.671875 45.3125 23.6875 
L 45.3125 54.6875 
L 54.296875 54.6875 
L 54.296875 0 
L 45.3125 0 
L 45.3125 8.40625 
Q 42.046875 3.421875 37.71875 1 
Q 33.40625 -1.421875 27.6875 -1.421875 
Q 18.265625 -1.421875 13.375 4.4375 
Q 8.5 10.296875 8.5 21.578125 
z
M 31.109375 56 
z
" id="DejaVuSans-117"/>
       <path d="M 2.984375 54.6875 
L 12.5 54.6875 
L 29.59375 8.796875 
L 46.6875 54.6875 
L 56.203125 54.6875 
L 35.6875 0 
L 23.484375 0 
z
" id="DejaVuSans-118"/>
      </defs>
      <use xlink:href="#DejaVuSans-73"/>
      <use x="29.492188" xlink:href="#DejaVuSans-110"/>
      <use x="92.871094" xlink:href="#DejaVuSans-115"/>
      <use x="144.970703" xlink:href="#DejaVuSans-101"/>
      <use x="206.494141" xlink:href="#DejaVuSans-114"/>
      <use x="247.607422" xlink:href="#DejaVuSans-116"/>
      <use x="286.816406" xlink:href="#DejaVuSans-105"/>
      <use x="314.599609" xlink:href="#DejaVuSans-111"/>
      <use x="375.78125" xlink:href="#DejaVuSans-110"/>
      <use x="439.160156" xlink:href="#DejaVuSans-32"/>
      <use x="470.947266" xlink:href="#DejaVuSans-67"/>
      <use x="540.771484" xlink:href="#DejaVuSans-117"/>
      <use x="604.150391" xlink:href="#DejaVuSans-114"/>
      <use x="645.263672" xlink:href="#DejaVuSans-118"/>
      <use x="704.443359" xlink:href="#DejaVuSans-101"/>
     </g>
    </g>
   </g>
  </g>
  <g id="axes_2">
   <g id="patch_8">
    <path d="M 384.703125 98.44 
L 705.663125 98.44 
L 705.663125 7.2 
L 384.703125 7.2 
z
" style="fill:#ffffff;"/>
   </g>
   <g id="PolyCollection_2">
    <defs>
     <path d="M 399.292216 -124.648977 
L 399.292216 -42.937094 
L 402.239507 -41.733518 
L 405.186798 -41.703523 
L 408.134089 -43.863209 
L 411.08138 -45.707941 
L 414.028671 -49.01871 
L 416.975962 -49.172438 
L 419.923254 -55.096578 
L 422.870545 -54.789122 
L 425.817836 -54.980345 
L 428.765127 -54.264199 
L 431.712418 -55.055334 
L 434.659709 -56.39014 
L 437.607 -55.257805 
L 440.554291 -56.971305 
L 443.501582 -56.952558 
L 446.448873 -56.195168 
L 449.396164 -54.957847 
L 452.343456 -53.304339 
L 455.290747 -54.331689 
L 458.238038 -53.345582 
L 461.185329 -54.237952 
L 464.13262 -52.648183 
L 467.079911 -51.43336 
L 470.027202 -51.185896 
L 472.974493 -51.575839 
L 475.921784 -51.605835 
L 478.869075 -53.36433 
L 481.816367 -53.454317 
L 484.763658 -53.158109 
L 487.710949 -53.210602 
L 490.65824 -52.858152 
L 493.605531 -51.857048 
L 496.552822 -48.385052 
L 499.500113 -51.305878 
L 502.447404 -51.133403 
L 505.394695 -50.60473 
L 508.341986 -53.08687 
L 511.289277 -52.614439 
L 514.236569 -52.753168 
L 517.18386 -52.711924 
L 520.131151 -51.759562 
L 523.078442 -51.36212 
L 526.025733 -49.479893 
L 528.973024 -49.494891 
L 531.920315 -50.383512 
L 534.867606 -51.065913 
L 537.814897 -54.020484 
L 540.762188 -52.224494 
L 543.709479 -54.774125 
L 546.656771 -50.203538 
L 549.604062 -50.833447 
L 552.551353 -52.05202 
L 555.498644 -51.185896 
L 558.445935 -52.299484 
L 561.393226 -52.408218 
L 564.340517 -50.972177 
L 567.287808 -52.584442 
L 570.235099 -56.3189 
L 573.18239 -55.876465 
L 576.129681 -57.826181 
L 579.076973 -60.51829 
L 582.024264 -61.748111 
L 584.971555 -71.991624 
L 587.918846 -74.038826 
L 590.866137 -74.455016 
L 593.813428 -74.949944 
L 596.760719 -77.724541 
L 599.70801 -78.129482 
L 602.655301 -78.125734 
L 605.602592 -85.785871 
L 608.549883 -86.00334 
L 611.497175 -87.43188 
L 614.444466 -89.794037 
L 617.391757 -89.794037 
L 620.339048 -89.876527 
L 623.286339 -89.771542 
L 626.23363 -90.472691 
L 629.180921 -90.401449 
L 632.128212 -102.332216 
L 635.075503 -104.649383 
L 638.022794 -104.690626 
L 640.970086 -109.118735 
L 643.917377 -108.905013 
L 646.864668 -110.461038 
L 649.811959 -110.528527 
L 652.75925 -111.098444 
L 655.706541 -114.551693 
L 658.653832 -114.604188 
L 661.601123 -115.054121 
L 664.548414 -115.530301 
L 667.495705 -116.306439 
L 670.442996 -118.278654 
L 673.390288 -118.912313 
L 676.337579 -118.541112 
L 679.28487 -122.050604 
L 682.232161 -122.70301 
L 685.179452 -122.616773 
L 688.126743 -123.059206 
L 688.126743 -124.648977 
L 688.126743 -124.648977 
L 685.179452 -124.648977 
L 682.232161 -124.648977 
L 679.28487 -124.648977 
L 676.337579 -124.648977 
L 673.390288 -124.648977 
L 670.442996 -124.648977 
L 667.495705 -124.648977 
L 664.548414 -124.648977 
L 661.601123 -124.648977 
L 658.653832 -124.648977 
L 655.706541 -124.648977 
L 652.75925 -124.648977 
L 649.811959 -124.648977 
L 646.864668 -124.648977 
L 643.917377 -124.648977 
L 640.970086 -124.648977 
L 638.022794 -124.648977 
L 635.075503 -124.648977 
L 632.128212 -124.648977 
L 629.180921 -124.648977 
L 626.23363 -124.648977 
L 623.286339 -124.648977 
L 620.339048 -124.648977 
L 617.391757 -124.648977 
L 614.444466 -124.648977 
L 611.497175 -124.648977 
L 608.549883 -124.648977 
L 605.602592 -124.648977 
L 602.655301 -124.648977 
L 599.70801 -124.648977 
L 596.760719 -124.648977 
L 593.813428 -124.648977 
L 590.866137 -124.648977 
L 587.918846 -124.648977 
L 584.971555 -124.648977 
L 582.024264 -124.648977 
L 579.076973 -124.648977 
L 576.129681 -124.648977 
L 573.18239 -124.648977 
L 570.235099 -124.648977 
L 567.287808 -124.648977 
L 564.340517 -124.648977 
L 561.393226 -124.648977 
L 558.445935 -124.648977 
L 555.498644 -124.648977 
L 552.551353 -124.648977 
L 549.604062 -124.648977 
L 546.656771 -124.648977 
L 543.709479 -124.648977 
L 540.762188 -124.648977 
L 537.814897 -124.648977 
L 534.867606 -124.648977 
L 531.920315 -124.648977 
L 528.973024 -124.648977 
L 526.025733 -124.648977 
L 523.078442 -124.648977 
L 520.131151 -124.648977 
L 517.18386 -124.648977 
L 514.236569 -124.648977 
L 511.289277 -124.648977 
L 508.341986 -124.648977 
L 505.394695 -124.648977 
L 502.447404 -124.648977 
L 499.500113 -124.648977 
L 496.552822 -124.648977 
L 493.605531 -124.648977 
L 490.65824 -124.648977 
L 487.710949 -124.648977 
L 484.763658 -124.648977 
L 481.816367 -124.648977 
L 478.869075 -124.648977 
L 475.921784 -124.648977 
L 472.974493 -124.648977 
L 470.027202 -124.648977 
L 467.079911 -124.648977 
L 464.13262 -124.648977 
L 461.185329 -124.648977 
L 458.238038 -124.648977 
L 455.290747 -124.648977 
L 452.343456 -124.648977 
L 449.396164 -124.648977 
L 446.448873 -124.648977 
L 443.501582 -124.648977 
L 440.554291 -124.648977 
L 437.607 -124.648977 
L 434.659709 -124.648977 
L 431.712418 -124.648977 
L 428.765127 -124.648977 
L 425.817836 -124.648977 
L 422.870545 -124.648977 
L 419.923254 -124.648977 
L 416.975962 -124.648977 
L 414.028671 -124.648977 
L 411.08138 -124.648977 
L 408.134089 -124.648977 
L 405.186798 -124.648977 
L 402.239507 -124.648977 
L 399.292216 -124.648977 
z
" id="m4994be7676" style="stroke:#0000ff;stroke-opacity:0.1;"/>
    </defs>
    <g clip-path="url(#p20b4c4da0a)">
     <use style="fill:#0000ff;fill-opacity:0.1;stroke:#0000ff;stroke-opacity:0.1;" x="0" xlink:href="#m4994be7676" y="135.99625"/>
    </g>
   </g>
   <g id="matplotlib.axis_3">
    <g id="xtick_7">
     <g id="line2d_34">
      <path clip-path="url(#p20b4c4da0a)" d="M 399.292216 98.44 
L 399.292216 7.2 
" style="fill:none;stroke:#808080;stroke-linecap:square;stroke-opacity:0.5;stroke-width:0.5;"/>
     </g>
     <g id="line2d_35">
      <g>
       <use style="stroke:#000000;stroke-width:0.8;" x="399.292216" xlink:href="#m176186c3cb" y="98.44"/>
      </g>
     </g>
     <g id="text_15">
      <!-- 0.0 -->
      <g transform="translate(391.340653 113.038438)scale(0.1 -0.1)">
       <use xlink:href="#DejaVuSans-48"/>
       <use x="63.623047" xlink:href="#DejaVuSans-46"/>
       <use x="95.410156" xlink:href="#DejaVuSans-48"/>
      </g>
     </g>
    </g>
    <g id="xtick_8">
     <g id="line2d_36">
      <path clip-path="url(#p20b4c4da0a)" d="M 457.64858 98.44 
L 457.64858 7.2 
" style="fill:none;stroke:#808080;stroke-linecap:square;stroke-opacity:0.5;stroke-width:0.5;"/>
     </g>
     <g id="line2d_37">
      <g>
       <use style="stroke:#000000;stroke-width:0.8;" x="457.64858" xlink:href="#m176186c3cb" y="98.44"/>
      </g>
     </g>
     <g id="text_16">
      <!-- 0.2 -->
      <g transform="translate(449.697017 113.038438)scale(0.1 -0.1)">
       <use xlink:href="#DejaVuSans-48"/>
       <use x="63.623047" xlink:href="#DejaVuSans-46"/>
       <use x="95.410156" xlink:href="#DejaVuSans-50"/>
      </g>
     </g>
    </g>
    <g id="xtick_9">
     <g id="line2d_38">
      <path clip-path="url(#p20b4c4da0a)" d="M 516.004943 98.44 
L 516.004943 7.2 
" style="fill:none;stroke:#808080;stroke-linecap:square;stroke-opacity:0.5;stroke-width:0.5;"/>
     </g>
     <g id="line2d_39">
      <g>
       <use style="stroke:#000000;stroke-width:0.8;" x="516.004943" xlink:href="#m176186c3cb" y="98.44"/>
      </g>
     </g>
     <g id="text_17">
      <!-- 0.4 -->
      <g transform="translate(508.053381 113.038438)scale(0.1 -0.1)">
       <use xlink:href="#DejaVuSans-48"/>
       <use x="63.623047" xlink:href="#DejaVuSans-46"/>
       <use x="95.410156" xlink:href="#DejaVuSans-52"/>
      </g>
     </g>
    </g>
    <g id="xtick_10">
     <g id="line2d_40">
      <path clip-path="url(#p20b4c4da0a)" d="M 574.361307 98.44 
L 574.361307 7.2 
" style="fill:none;stroke:#808080;stroke-linecap:square;stroke-opacity:0.5;stroke-width:0.5;"/>
     </g>
     <g id="line2d_41">
      <g>
       <use style="stroke:#000000;stroke-width:0.8;" x="574.361307" xlink:href="#m176186c3cb" y="98.44"/>
      </g>
     </g>
     <g id="text_18">
      <!-- 0.6 -->
      <g transform="translate(566.409744 113.038438)scale(0.1 -0.1)">
       <use xlink:href="#DejaVuSans-48"/>
       <use x="63.623047" xlink:href="#DejaVuSans-46"/>
       <use x="95.410156" xlink:href="#DejaVuSans-54"/>
      </g>
     </g>
    </g>
    <g id="xtick_11">
     <g id="line2d_42">
      <path clip-path="url(#p20b4c4da0a)" d="M 632.71767 98.44 
L 632.71767 7.2 
" style="fill:none;stroke:#808080;stroke-linecap:square;stroke-opacity:0.5;stroke-width:0.5;"/>
     </g>
     <g id="line2d_43">
      <g>
       <use style="stroke:#000000;stroke-width:0.8;" x="632.71767" xlink:href="#m176186c3cb" y="98.44"/>
      </g>
     </g>
     <g id="text_19">
      <!-- 0.8 -->
      <g transform="translate(624.766108 113.038438)scale(0.1 -0.1)">
       <use xlink:href="#DejaVuSans-48"/>
       <use x="63.623047" xlink:href="#DejaVuSans-46"/>
       <use x="95.410156" xlink:href="#DejaVuSans-56"/>
      </g>
     </g>
    </g>
    <g id="xtick_12">
     <g id="line2d_44">
      <path clip-path="url(#p20b4c4da0a)" d="M 691.074034 98.44 
L 691.074034 7.2 
" style="fill:none;stroke:#808080;stroke-linecap:square;stroke-opacity:0.5;stroke-width:0.5;"/>
     </g>
     <g id="line2d_45">
      <g>
       <use style="stroke:#000000;stroke-width:0.8;" x="691.074034" xlink:href="#m176186c3cb" y="98.44"/>
      </g>
     </g>
     <g id="text_20">
      <!-- 1.0 -->
      <g transform="translate(683.122472 113.038438)scale(0.1 -0.1)">
       <use xlink:href="#DejaVuSans-49"/>
       <use x="63.623047" xlink:href="#DejaVuSans-46"/>
       <use x="95.410156" xlink:href="#DejaVuSans-48"/>
      </g>
     </g>
    </g>
    <g id="text_21">
     <!-- Pixels Inserted -->
     <g transform="translate(508.837813 126.716562)scale(0.1 -0.1)">
      <use xlink:href="#DejaVuSans-80"/>
      <use x="58.052734" xlink:href="#DejaVuSans-105"/>
      <use x="85.835938" xlink:href="#DejaVuSans-120"/>
      <use x="141.890625" xlink:href="#DejaVuSans-101"/>
      <use x="203.414062" xlink:href="#DejaVuSans-108"/>
      <use x="231.197266" xlink:href="#DejaVuSans-115"/>
      <use x="283.296875" xlink:href="#DejaVuSans-32"/>
      <use x="315.083984" xlink:href="#DejaVuSans-73"/>
      <use x="344.576172" xlink:href="#DejaVuSans-110"/>
      <use x="407.955078" xlink:href="#DejaVuSans-115"/>
      <use x="460.054688" xlink:href="#DejaVuSans-101"/>
      <use x="521.578125" xlink:href="#DejaVuSans-114"/>
      <use x="562.691406" xlink:href="#DejaVuSans-116"/>
      <use x="601.900391" xlink:href="#DejaVuSans-101"/>
      <use x="663.423828" xlink:href="#DejaVuSans-100"/>
     </g>
    </g>
   </g>
   <g id="matplotlib.axis_4">
    <g id="ytick_7">
     <g id="line2d_46">
      <path clip-path="url(#p20b4c4da0a)" d="M 384.703125 94.292727 
L 705.663125 94.292727 
" style="fill:none;stroke:#808080;stroke-linecap:square;stroke-opacity:0.5;stroke-width:0.5;"/>
     </g>
     <g id="line2d_47">
      <g>
       <use style="stroke:#000000;stroke-width:0.8;" x="384.703125" xlink:href="#mfea0571d20" y="94.292727"/>
      </g>
     </g>
     <g id="text_22">
      <!-- 0.0 -->
      <g transform="translate(361.8 98.091946)scale(0.1 -0.1)">
       <use xlink:href="#DejaVuSans-48"/>
       <use x="63.623047" xlink:href="#DejaVuSans-46"/>
       <use x="95.410156" xlink:href="#DejaVuSans-48"/>
      </g>
     </g>
    </g>
    <g id="ytick_8">
     <g id="line2d_48">
      <path clip-path="url(#p20b4c4da0a)" d="M 384.703125 77.703636 
L 705.663125 77.703636 
" style="fill:none;stroke:#808080;stroke-linecap:square;stroke-opacity:0.5;stroke-width:0.5;"/>
     </g>
     <g id="line2d_49">
      <g>
       <use style="stroke:#000000;stroke-width:0.8;" x="384.703125" xlink:href="#mfea0571d20" y="77.703636"/>
      </g>
     </g>
     <g id="text_23">
      <!-- 0.2 -->
      <g transform="translate(361.8 81.502855)scale(0.1 -0.1)">
       <use xlink:href="#DejaVuSans-48"/>
       <use x="63.623047" xlink:href="#DejaVuSans-46"/>
       <use x="95.410156" xlink:href="#DejaVuSans-50"/>
      </g>
     </g>
    </g>
    <g id="ytick_9">
     <g id="line2d_50">
      <path clip-path="url(#p20b4c4da0a)" d="M 384.703125 44.525455 
L 705.663125 44.525455 
" style="fill:none;stroke:#808080;stroke-linecap:square;stroke-opacity:0.5;stroke-width:0.5;"/>
     </g>
     <g id="line2d_51">
      <g>
       <use style="stroke:#000000;stroke-width:0.8;" x="384.703125" xlink:href="#mfea0571d20" y="44.525455"/>
      </g>
     </g>
     <g id="text_24">
      <!-- 0.6 -->
      <g transform="translate(361.8 48.324673)scale(0.1 -0.1)">
       <use xlink:href="#DejaVuSans-48"/>
       <use x="63.623047" xlink:href="#DejaVuSans-46"/>
       <use x="95.410156" xlink:href="#DejaVuSans-54"/>
      </g>
     </g>
    </g>
    <g id="ytick_10">
     <g id="line2d_52">
      <path clip-path="url(#p20b4c4da0a)" d="M 384.703125 61.114545 
L 705.663125 61.114545 
" style="fill:none;stroke:#808080;stroke-linecap:square;stroke-opacity:0.5;stroke-width:0.5;"/>
     </g>
     <g id="line2d_53">
      <g>
       <use style="stroke:#000000;stroke-width:0.8;" x="384.703125" xlink:href="#mfea0571d20" y="61.114545"/>
      </g>
     </g>
     <g id="text_25">
      <!-- 0.4 -->
      <g transform="translate(361.8 64.913764)scale(0.1 -0.1)">
       <use xlink:href="#DejaVuSans-48"/>
       <use x="63.623047" xlink:href="#DejaVuSans-46"/>
       <use x="95.410156" xlink:href="#DejaVuSans-52"/>
      </g>
     </g>
    </g>
    <g id="ytick_11">
     <g id="line2d_54">
      <path clip-path="url(#p20b4c4da0a)" d="M 384.703125 27.936364 
L 705.663125 27.936364 
" style="fill:none;stroke:#808080;stroke-linecap:square;stroke-opacity:0.5;stroke-width:0.5;"/>
     </g>
     <g id="line2d_55">
      <g>
       <use style="stroke:#000000;stroke-width:0.8;" x="384.703125" xlink:href="#mfea0571d20" y="27.936364"/>
      </g>
     </g>
     <g id="text_26">
      <!-- 0.8 -->
      <g transform="translate(361.8 31.735582)scale(0.1 -0.1)">
       <use xlink:href="#DejaVuSans-48"/>
       <use x="63.623047" xlink:href="#DejaVuSans-46"/>
       <use x="95.410156" xlink:href="#DejaVuSans-56"/>
      </g>
     </g>
    </g>
    <g id="ytick_12">
     <g id="line2d_56">
      <path clip-path="url(#p20b4c4da0a)" d="M 384.703125 11.347273 
L 705.663125 11.347273 
" style="fill:none;stroke:#808080;stroke-linecap:square;stroke-opacity:0.5;stroke-width:0.5;"/>
     </g>
     <g id="line2d_57">
      <g>
       <use style="stroke:#000000;stroke-width:0.8;" x="384.703125" xlink:href="#mfea0571d20" y="11.347273"/>
      </g>
     </g>
     <g id="text_27">
      <!-- 1.0 -->
      <g transform="translate(361.8 15.146491)scale(0.1 -0.1)">
       <use xlink:href="#DejaVuSans-49"/>
       <use x="63.623047" xlink:href="#DejaVuSans-46"/>
       <use x="95.410156" xlink:href="#DejaVuSans-48"/>
      </g>
     </g>
    </g>
   </g>
   <g id="line2d_58">
    <path clip-path="url(#p20b4c4da0a)" d="M 399.292216 93.059156 
L 402.239507 94.262732 
L 405.186798 94.292727 
L 408.134089 92.133041 
L 411.08138 90.288309 
L 414.028671 86.97754 
L 416.975962 86.823812 
L 419.923254 80.899672 
L 422.870545 81.207128 
L 425.817836 81.015905 
L 428.765127 81.732051 
L 431.712418 80.940916 
L 434.659709 79.60611 
L 437.607 80.738445 
L 440.554291 79.024945 
L 443.501582 79.043692 
L 446.448873 79.801082 
L 449.396164 81.038403 
L 452.343456 82.691911 
L 455.290747 81.664561 
L 458.238038 82.650668 
L 461.185329 81.758298 
L 464.13262 83.348067 
L 467.079911 84.56289 
L 470.027202 84.810354 
L 472.974493 84.420411 
L 475.921784 84.390415 
L 478.869075 82.63192 
L 481.816367 82.541933 
L 484.763658 82.838141 
L 487.710949 82.785648 
L 490.65824 83.138098 
L 493.605531 84.139202 
L 496.552822 87.611198 
L 499.500113 84.690372 
L 502.447404 84.862847 
L 505.394695 85.39152 
L 508.341986 82.90938 
L 511.289277 83.381811 
L 514.236569 83.243082 
L 517.18386 83.284326 
L 520.131151 84.236688 
L 523.078442 84.63413 
L 526.025733 86.516357 
L 528.973024 86.501359 
L 531.920315 85.612738 
L 534.867606 84.930337 
L 537.814897 81.975766 
L 540.762188 83.771756 
L 543.709479 81.222125 
L 546.656771 85.792712 
L 549.604062 85.162803 
L 552.551353 83.94423 
L 555.498644 84.810354 
L 558.445935 83.696766 
L 561.393226 83.588032 
L 564.340517 85.024073 
L 567.287808 83.411808 
L 570.235099 79.67735 
L 573.18239 80.119785 
L 576.129681 78.170069 
L 579.076973 75.47796 
L 582.024264 74.248139 
L 584.971555 64.004626 
L 587.918846 61.957424 
L 590.866137 61.541234 
L 593.813428 61.046306 
L 596.760719 58.271709 
L 599.70801 57.866768 
L 602.655301 57.870516 
L 605.602592 50.210379 
L 608.549883 49.99291 
L 611.497175 48.56437 
L 614.444466 46.202213 
L 617.391757 46.202213 
L 620.339048 46.119723 
L 623.286339 46.224708 
L 626.23363 45.523559 
L 629.180921 45.594801 
L 632.128212 33.664034 
L 635.075503 31.346867 
L 638.022794 31.305624 
L 640.970086 26.877515 
L 643.917377 27.091237 
L 646.864668 25.535212 
L 649.811959 25.467723 
L 652.75925 24.897806 
L 655.706541 21.444557 
L 658.653832 21.392062 
L 661.601123 20.942129 
L 664.548414 20.465949 
L 667.495705 19.689811 
L 670.442996 17.717596 
L 673.390288 17.083937 
L 676.337579 17.455138 
L 679.28487 13.945646 
L 682.232161 13.29324 
L 685.179452 13.379477 
L 688.126743 12.937044 
L 691.074034 11.347273 
" style="fill:none;stroke:#1f77b4;stroke-linecap:square;stroke-width:1.5;"/>
   </g>
   <g id="line2d_59">
    <path clip-path="url(#p20b4c4da0a)" d="M 384.703125 94.292727 
L 705.663125 94.292727 
" style="fill:none;stroke:#808080;stroke-linecap:square;stroke-opacity:0.5;stroke-width:0.5;"/>
   </g>
   <g id="line2d_60">
    <path clip-path="url(#p20b4c4da0a)" d="M 384.703125 77.703636 
L 705.663125 77.703636 
" style="fill:none;stroke:#808080;stroke-linecap:square;stroke-opacity:0.5;stroke-width:0.5;"/>
   </g>
   <g id="line2d_61">
    <path clip-path="url(#p20b4c4da0a)" d="M 384.703125 44.525455 
L 705.663125 44.525455 
" style="fill:none;stroke:#808080;stroke-linecap:square;stroke-opacity:0.5;stroke-width:0.5;"/>
   </g>
   <g id="line2d_62">
    <path clip-path="url(#p20b4c4da0a)" d="M 384.703125 61.114545 
L 705.663125 61.114545 
" style="fill:none;stroke:#808080;stroke-linecap:square;stroke-opacity:0.5;stroke-width:0.5;"/>
   </g>
   <g id="line2d_63">
    <path clip-path="url(#p20b4c4da0a)" d="M 384.703125 27.936364 
L 705.663125 27.936364 
" style="fill:none;stroke:#808080;stroke-linecap:square;stroke-opacity:0.5;stroke-width:0.5;"/>
   </g>
   <g id="line2d_64">
    <path clip-path="url(#p20b4c4da0a)" d="M 384.703125 11.347273 
L 705.663125 11.347273 
" style="fill:none;stroke:#808080;stroke-linecap:square;stroke-opacity:0.5;stroke-width:0.5;"/>
   </g>
   <g id="patch_9">
    <path d="M 384.703125 98.44 
L 384.703125 7.2 
" style="fill:none;stroke:#000000;stroke-linecap:square;stroke-linejoin:miter;stroke-width:0.8;"/>
   </g>
   <g id="patch_10">
    <path d="M 705.663125 98.44 
L 705.663125 7.2 
" style="fill:none;stroke:#000000;stroke-linecap:square;stroke-linejoin:miter;stroke-width:0.8;"/>
   </g>
   <g id="patch_11">
    <path d="M 384.703125 98.44 
L 705.663125 98.44 
" style="fill:none;stroke:#000000;stroke-linecap:square;stroke-linejoin:miter;stroke-width:0.8;"/>
   </g>
   <g id="patch_12">
    <path d="M 384.703125 7.2 
L 705.663125 7.2 
" style="fill:none;stroke:#000000;stroke-linecap:square;stroke-linejoin:miter;stroke-width:0.8;"/>
   </g>
   <g id="legend_2">
    <g id="patch_13">
     <path d="M 391.703125 93.44 
L 498.323438 93.44 
Q 500.323438 93.44 500.323438 91.44 
L 500.323438 77.761875 
Q 500.323438 75.761875 498.323438 75.761875 
L 391.703125 75.761875 
Q 389.703125 75.761875 389.703125 77.761875 
L 389.703125 91.44 
Q 389.703125 93.44 391.703125 93.44 
z
" style="fill:#ffffff;opacity:0.8;stroke:#cccccc;stroke-linejoin:miter;"/>
    </g>
    <g id="line2d_65">
     <path d="M 393.703125 83.860312 
L 413.703125 83.860312 
" style="fill:none;stroke:#1f77b4;stroke-linecap:square;stroke-width:1.5;"/>
    </g>
    <g id="line2d_66"/>
    <g id="text_28">
     <!-- Deletion Curve -->
     <g transform="translate(421.703125 87.360312)scale(0.1 -0.1)">
      <defs>
       <path d="M 19.671875 64.796875 
L 19.671875 8.109375 
L 31.59375 8.109375 
Q 46.6875 8.109375 53.6875 14.9375 
Q 60.6875 21.78125 60.6875 36.53125 
Q 60.6875 51.171875 53.6875 57.984375 
Q 46.6875 64.796875 31.59375 64.796875 
z
M 9.8125 72.90625 
L 30.078125 72.90625 
Q 51.265625 72.90625 61.171875 64.09375 
Q 71.09375 55.28125 71.09375 36.53125 
Q 71.09375 17.671875 61.125 8.828125 
Q 51.171875 0 30.078125 0 
L 9.8125 0 
z
" id="DejaVuSans-68"/>
      </defs>
      <use xlink:href="#DejaVuSans-68"/>
      <use x="77.001953" xlink:href="#DejaVuSans-101"/>
      <use x="138.525391" xlink:href="#DejaVuSans-108"/>
      <use x="166.308594" xlink:href="#DejaVuSans-101"/>
      <use x="227.832031" xlink:href="#DejaVuSans-116"/>
      <use x="267.041016" xlink:href="#DejaVuSans-105"/>
      <use x="294.824219" xlink:href="#DejaVuSans-111"/>
      <use x="356.005859" xlink:href="#DejaVuSans-110"/>
      <use x="419.384766" xlink:href="#DejaVuSans-32"/>
      <use x="451.171875" xlink:href="#DejaVuSans-67"/>
      <use x="520.996094" xlink:href="#DejaVuSans-117"/>
      <use x="584.375" xlink:href="#DejaVuSans-114"/>
      <use x="625.488281" xlink:href="#DejaVuSans-118"/>
      <use x="684.667969" xlink:href="#DejaVuSans-101"/>
     </g>
    </g>
   </g>
  </g>
 </g>
 <defs>
  <clipPath id="p31ee0728a4">
   <rect height="91.24" width="320.96" x="30.103125" y="7.2"/>
  </clipPath>
  <clipPath id="p20b4c4da0a">
   <rect height="91.24" width="320.96" x="384.703125" y="7.2"/>
  </clipPath>
 </defs>
</svg>
