<?xml version="1.0" encoding="utf-8" standalone="no"?>
<!DOCTYPE svg PUBLIC "-//W3C//DTD SVG 1.1//EN"
  "http://www.w3.org/Graphics/SVG/1.1/DTD/svg11.dtd">
<!-- Created with matplotlib (https://matplotlib.org/) -->
<svg height="135.99625pt" version="1.1" viewBox="0 0 712.863125 135.99625" width="712.863125pt" xmlns="http://www.w3.org/2000/svg" xmlns:xlink="http://www.w3.org/1999/xlink">
 <metadata>
  <rdf:RDF xmlns:cc="http://creativecommons.org/ns#" xmlns:dc="http://purl.org/dc/elements/1.1/" xmlns:rdf="http://www.w3.org/1999/02/22-rdf-syntax-ns#">
   <cc:Work>
    <dc:type rdf:resource="http://purl.org/dc/dcmitype/StillImage"/>
    <dc:date>2025-02-15T10:26:19.272348</dc:date>
    <dc:format>image/svg+xml</dc:format>
    <dc:creator>
     <cc:Agent>
      <dc:title>Matplotlib v3.3.4, https://matplotlib.org/</dc:title>
     </cc:Agent>
    </dc:creator>
   </cc:Work>
  </rdf:RDF>
 </metadata>
 <defs>
  <style type="text/css">*{stroke-linecap:butt;stroke-linejoin:round;}</style>
 </defs>
 <g id="figure_1">
  <g id="patch_1">
   <path d="M 0 135.99625 
L 712.863125 135.99625 
L 712.863125 0 
L 0 0 
z
" style="fill:#ffffff;"/>
  </g>
  <g id="axes_1">
   <g id="patch_2">
    <path d="M 30.103125 98.44 
L 351.063125 98.44 
L 351.063125 7.2 
L 30.103125 7.2 
z
" style="fill:#ffffff;"/>
   </g>
   <g id="PolyCollection_1">
    <defs>
     <path d="M 44.692216 -41.703523 
L 44.692216 -70.986137 
L 47.639507 -62.158445 
L 50.586798 -82.39388 
L 53.534089 -97.639132 
L 56.48138 -98.141831 
L 59.428671 -108.406818 
L 62.375962 -108.396905 
L 65.323254 -108.232643 
L 68.270545 -101.497887 
L 71.217836 -99.038196 
L 74.165127 -107.211671 
L 77.112418 -109.505677 
L 80.059709 -124.648977 
L 83.007 -124.589502 
L 85.954291 -124.620658 
L 88.901582 -120.855363 
L 91.848873 -118.259733 
L 94.796164 -118.215836 
L 97.743456 -118.702962 
L 100.690747 -118.803502 
L 103.638038 -111.676494 
L 106.585329 -111.707646 
L 109.53262 -111.713311 
L 112.479911 -108.280792 
L 115.427202 -108.164674 
L 118.374493 -108.194412 
L 121.321784 -115.960062 
L 124.269075 -110.685255 
L 127.216367 -108.530016 
L 130.163658 -99.123157 
L 133.110949 -100.625594 
L 136.05824 -100.798355 
L 139.005531 -98.304679 
L 141.952822 -98.318839 
L 144.900113 -96.238654 
L 147.847404 -99.511157 
L 150.794695 -112.847569 
L 153.741986 -103.399646 
L 156.689277 -103.354335 
L 159.636569 -99.144402 
L 162.58386 -99.325656 
L 165.531151 -94.209445 
L 168.478442 -80.14235 
L 171.425733 -80.145183 
L 174.373024 -80.214569 
L 177.320315 -78.115975 
L 180.267606 -80.701692 
L 183.214897 -80.73143 
L 186.162188 -77.661422 
L 189.109479 -76.657438 
L 192.056771 -70.152078 
L 195.004062 -65.995957 
L 197.951353 -71.147566 
L 200.898644 -68.983834 
L 203.845935 -68.986664 
L 206.793226 -68.951263 
L 209.740517 -68.975337 
L 212.687808 -74.294042 
L 215.635099 -73.182438 
L 218.58239 -73.1966 
L 221.529681 -73.202263 
L 224.476973 -73.190934 
L 227.424264 -64.657782 
L 230.371555 -65.627782 
L 233.318846 -62.423248 
L 236.266137 -56.603259 
L 239.213428 -54.092593 
L 242.160719 -54.086929 
L 245.10801 -56.386602 
L 248.055301 -58.0533 
L 251.002592 -53.594141 
L 253.949883 -53.046128 
L 256.897175 -52.560421 
L 259.844466 -55.82726 
L 262.791757 -55.811685 
L 265.739048 -55.842838 
L 268.686339 -49.463507 
L 271.63363 -49.435186 
L 274.580921 -44.563955 
L 277.528212 -44.592276 
L 280.475503 -50.355622 
L 283.422794 -50.375447 
L 286.370086 -56.413508 
L 289.317377 -55.689903 
L 292.264668 -56.079318 
L 295.211959 -56.225173 
L 298.15925 -54.922402 
L 301.106541 -54.935146 
L 304.053832 -58.094366 
L 307.001123 -56.648573 
L 309.948414 -55.576619 
L 312.895705 -55.569539 
L 315.842996 -53.589893 
L 318.790288 -45.590595 
L 321.737579 -41.842296 
L 324.68487 -41.846544 
L 327.632161 -41.823887 
L 330.579452 -41.703523 
L 333.526743 -48.193305 
L 336.474034 -46.981162 
L 336.474034 -41.703523 
L 336.474034 -41.703523 
L 333.526743 -41.703523 
L 330.579452 -41.703523 
L 327.632161 -41.703523 
L 324.68487 -41.703523 
L 321.737579 -41.703523 
L 318.790288 -41.703523 
L 315.842996 -41.703523 
L 312.895705 -41.703523 
L 309.948414 -41.703523 
L 307.001123 -41.703523 
L 304.053832 -41.703523 
L 301.106541 -41.703523 
L 298.15925 -41.703523 
L 295.211959 -41.703523 
L 292.264668 -41.703523 
L 289.317377 -41.703523 
L 286.370086 -41.703523 
L 283.422794 -41.703523 
L 280.475503 -41.703523 
L 277.528212 -41.703523 
L 274.580921 -41.703523 
L 271.63363 -41.703523 
L 268.686339 -41.703523 
L 265.739048 -41.703523 
L 262.791757 -41.703523 
L 259.844466 -41.703523 
L 256.897175 -41.703523 
L 253.949883 -41.703523 
L 251.002592 -41.703523 
L 248.055301 -41.703523 
L 245.10801 -41.703523 
L 242.160719 -41.703523 
L 239.213428 -41.703523 
L 236.266137 -41.703523 
L 233.318846 -41.703523 
L 230.371555 -41.703523 
L 227.424264 -41.703523 
L 224.476973 -41.703523 
L 221.529681 -41.703523 
L 218.58239 -41.703523 
L 215.635099 -41.703523 
L 212.687808 -41.703523 
L 209.740517 -41.703523 
L 206.793226 -41.703523 
L 203.845935 -41.703523 
L 200.898644 -41.703523 
L 197.951353 -41.703523 
L 195.004062 -41.703523 
L 192.056771 -41.703523 
L 189.109479 -41.703523 
L 186.162188 -41.703523 
L 183.214897 -41.703523 
L 180.267606 -41.703523 
L 177.320315 -41.703523 
L 174.373024 -41.703523 
L 171.425733 -41.703523 
L 168.478442 -41.703523 
L 165.531151 -41.703523 
L 162.58386 -41.703523 
L 159.636569 -41.703523 
L 156.689277 -41.703523 
L 153.741986 -41.703523 
L 150.794695 -41.703523 
L 147.847404 -41.703523 
L 144.900113 -41.703523 
L 141.952822 -41.703523 
L 139.005531 -41.703523 
L 136.05824 -41.703523 
L 133.110949 -41.703523 
L 130.163658 -41.703523 
L 127.216367 -41.703523 
L 124.269075 -41.703523 
L 121.321784 -41.703523 
L 118.374493 -41.703523 
L 115.427202 -41.703523 
L 112.479911 -41.703523 
L 109.53262 -41.703523 
L 106.585329 -41.703523 
L 103.638038 -41.703523 
L 100.690747 -41.703523 
L 97.743456 -41.703523 
L 94.796164 -41.703523 
L 91.848873 -41.703523 
L 88.901582 -41.703523 
L 85.954291 -41.703523 
L 83.007 -41.703523 
L 80.059709 -41.703523 
L 77.112418 -41.703523 
L 74.165127 -41.703523 
L 71.217836 -41.703523 
L 68.270545 -41.703523 
L 65.323254 -41.703523 
L 62.375962 -41.703523 
L 59.428671 -41.703523 
L 56.48138 -41.703523 
L 53.534089 -41.703523 
L 50.586798 -41.703523 
L 47.639507 -41.703523 
L 44.692216 -41.703523 
z
" id="m15b84aa2d6" style="stroke:#0000ff;stroke-opacity:0.1;"/>
    </defs>
    <g clip-path="url(#pe0d457554d)">
     <use style="fill:#0000ff;fill-opacity:0.1;stroke:#0000ff;stroke-opacity:0.1;" x="0" xlink:href="#m15b84aa2d6" y="135.99625"/>
    </g>
   </g>
   <g id="matplotlib.axis_1">
    <g id="xtick_1">
     <g id="line2d_1">
      <path clip-path="url(#pe0d457554d)" d="M 44.692216 98.44 
L 44.692216 7.2 
" style="fill:none;stroke:#808080;stroke-linecap:square;stroke-opacity:0.5;stroke-width:0.5;"/>
     </g>
     <g id="line2d_2">
      <defs>
       <path d="M 0 0 
L 0 3.5 
" id="m0a0132c060" style="stroke:#000000;stroke-width:0.8;"/>
      </defs>
      <g>
       <use style="stroke:#000000;stroke-width:0.8;" x="44.692216" xlink:href="#m0a0132c060" y="98.44"/>
      </g>
     </g>
     <g id="text_1">
      <!-- 0.0 -->
      <g transform="translate(36.740653 113.038438)scale(0.1 -0.1)">
       <defs>
        <path d="M 31.78125 66.40625 
Q 24.171875 66.40625 20.328125 58.90625 
Q 16.5 51.421875 16.5 36.375 
Q 16.5 21.390625 20.328125 13.890625 
Q 24.171875 6.390625 31.78125 6.390625 
Q 39.453125 6.390625 43.28125 13.890625 
Q 47.125 21.390625 47.125 36.375 
Q 47.125 51.421875 43.28125 58.90625 
Q 39.453125 66.40625 31.78125 66.40625 
z
M 31.78125 74.21875 
Q 44.046875 74.21875 50.515625 64.515625 
Q 56.984375 54.828125 56.984375 36.375 
Q 56.984375 17.96875 50.515625 8.265625 
Q 44.046875 -1.421875 31.78125 -1.421875 
Q 19.53125 -1.421875 13.0625 8.265625 
Q 6.59375 17.96875 6.59375 36.375 
Q 6.59375 54.828125 13.0625 64.515625 
Q 19.53125 74.21875 31.78125 74.21875 
z
" id="DejaVuSans-48"/>
        <path d="M 10.6875 12.40625 
L 21 12.40625 
L 21 0 
L 10.6875 0 
z
" id="DejaVuSans-46"/>
       </defs>
       <use xlink:href="#DejaVuSans-48"/>
       <use x="63.623047" xlink:href="#DejaVuSans-46"/>
       <use x="95.410156" xlink:href="#DejaVuSans-48"/>
      </g>
     </g>
    </g>
    <g id="xtick_2">
     <g id="line2d_3">
      <path clip-path="url(#pe0d457554d)" d="M 103.04858 98.44 
L 103.04858 7.2 
" style="fill:none;stroke:#808080;stroke-linecap:square;stroke-opacity:0.5;stroke-width:0.5;"/>
     </g>
     <g id="line2d_4">
      <g>
       <use style="stroke:#000000;stroke-width:0.8;" x="103.04858" xlink:href="#m0a0132c060" y="98.44"/>
      </g>
     </g>
     <g id="text_2">
      <!-- 0.2 -->
      <g transform="translate(95.097017 113.038438)scale(0.1 -0.1)">
       <defs>
        <path d="M 19.1875 8.296875 
L 53.609375 8.296875 
L 53.609375 0 
L 7.328125 0 
L 7.328125 8.296875 
Q 12.9375 14.109375 22.625 23.890625 
Q 32.328125 33.6875 34.8125 36.53125 
Q 39.546875 41.84375 41.421875 45.53125 
Q 43.3125 49.21875 43.3125 52.78125 
Q 43.3125 58.59375 39.234375 62.25 
Q 35.15625 65.921875 28.609375 65.921875 
Q 23.96875 65.921875 18.8125 64.3125 
Q 13.671875 62.703125 7.8125 59.421875 
L 7.8125 69.390625 
Q 13.765625 71.78125 18.9375 73 
Q 24.125 74.21875 28.421875 74.21875 
Q 39.75 74.21875 46.484375 68.546875 
Q 53.21875 62.890625 53.21875 53.421875 
Q 53.21875 48.921875 51.53125 44.890625 
Q 49.859375 40.875 45.40625 35.40625 
Q 44.1875 33.984375 37.640625 27.21875 
Q 31.109375 20.453125 19.1875 8.296875 
z
" id="DejaVuSans-50"/>
       </defs>
       <use xlink:href="#DejaVuSans-48"/>
       <use x="63.623047" xlink:href="#DejaVuSans-46"/>
       <use x="95.410156" xlink:href="#DejaVuSans-50"/>
      </g>
     </g>
    </g>
    <g id="xtick_3">
     <g id="line2d_5">
      <path clip-path="url(#pe0d457554d)" d="M 161.404943 98.44 
L 161.404943 7.2 
" style="fill:none;stroke:#808080;stroke-linecap:square;stroke-opacity:0.5;stroke-width:0.5;"/>
     </g>
     <g id="line2d_6">
      <g>
       <use style="stroke:#000000;stroke-width:0.8;" x="161.404943" xlink:href="#m0a0132c060" y="98.44"/>
      </g>
     </g>
     <g id="text_3">
      <!-- 0.4 -->
      <g transform="translate(153.453381 113.038438)scale(0.1 -0.1)">
       <defs>
        <path d="M 37.796875 64.3125 
L 12.890625 25.390625 
L 37.796875 25.390625 
z
M 35.203125 72.90625 
L 47.609375 72.90625 
L 47.609375 25.390625 
L 58.015625 25.390625 
L 58.015625 17.1875 
L 47.609375 17.1875 
L 47.609375 0 
L 37.796875 0 
L 37.796875 17.1875 
L 4.890625 17.1875 
L 4.890625 26.703125 
z
" id="DejaVuSans-52"/>
       </defs>
       <use xlink:href="#DejaVuSans-48"/>
       <use x="63.623047" xlink:href="#DejaVuSans-46"/>
       <use x="95.410156" xlink:href="#DejaVuSans-52"/>
      </g>
     </g>
    </g>
    <g id="xtick_4">
     <g id="line2d_7">
      <path clip-path="url(#pe0d457554d)" d="M 219.761307 98.44 
L 219.761307 7.2 
" style="fill:none;stroke:#808080;stroke-linecap:square;stroke-opacity:0.5;stroke-width:0.5;"/>
     </g>
     <g id="line2d_8">
      <g>
       <use style="stroke:#000000;stroke-width:0.8;" x="219.761307" xlink:href="#m0a0132c060" y="98.44"/>
      </g>
     </g>
     <g id="text_4">
      <!-- 0.6 -->
      <g transform="translate(211.809744 113.038438)scale(0.1 -0.1)">
       <defs>
        <path d="M 33.015625 40.375 
Q 26.375 40.375 22.484375 35.828125 
Q 18.609375 31.296875 18.609375 23.390625 
Q 18.609375 15.53125 22.484375 10.953125 
Q 26.375 6.390625 33.015625 6.390625 
Q 39.65625 6.390625 43.53125 10.953125 
Q 47.40625 15.53125 47.40625 23.390625 
Q 47.40625 31.296875 43.53125 35.828125 
Q 39.65625 40.375 33.015625 40.375 
z
M 52.59375 71.296875 
L 52.59375 62.3125 
Q 48.875 64.0625 45.09375 64.984375 
Q 41.3125 65.921875 37.59375 65.921875 
Q 27.828125 65.921875 22.671875 59.328125 
Q 17.53125 52.734375 16.796875 39.40625 
Q 19.671875 43.65625 24.015625 45.921875 
Q 28.375 48.1875 33.59375 48.1875 
Q 44.578125 48.1875 50.953125 41.515625 
Q 57.328125 34.859375 57.328125 23.390625 
Q 57.328125 12.15625 50.6875 5.359375 
Q 44.046875 -1.421875 33.015625 -1.421875 
Q 20.359375 -1.421875 13.671875 8.265625 
Q 6.984375 17.96875 6.984375 36.375 
Q 6.984375 53.65625 15.1875 63.9375 
Q 23.390625 74.21875 37.203125 74.21875 
Q 40.921875 74.21875 44.703125 73.484375 
Q 48.484375 72.75 52.59375 71.296875 
z
" id="DejaVuSans-54"/>
       </defs>
       <use xlink:href="#DejaVuSans-48"/>
       <use x="63.623047" xlink:href="#DejaVuSans-46"/>
       <use x="95.410156" xlink:href="#DejaVuSans-54"/>
      </g>
     </g>
    </g>
    <g id="xtick_5">
     <g id="line2d_9">
      <path clip-path="url(#pe0d457554d)" d="M 278.11767 98.44 
L 278.11767 7.2 
" style="fill:none;stroke:#808080;stroke-linecap:square;stroke-opacity:0.5;stroke-width:0.5;"/>
     </g>
     <g id="line2d_10">
      <g>
       <use style="stroke:#000000;stroke-width:0.8;" x="278.11767" xlink:href="#m0a0132c060" y="98.44"/>
      </g>
     </g>
     <g id="text_5">
      <!-- 0.8 -->
      <g transform="translate(270.166108 113.038438)scale(0.1 -0.1)">
       <defs>
        <path d="M 31.78125 34.625 
Q 24.75 34.625 20.71875 30.859375 
Q 16.703125 27.09375 16.703125 20.515625 
Q 16.703125 13.921875 20.71875 10.15625 
Q 24.75 6.390625 31.78125 6.390625 
Q 38.8125 6.390625 42.859375 10.171875 
Q 46.921875 13.96875 46.921875 20.515625 
Q 46.921875 27.09375 42.890625 30.859375 
Q 38.875 34.625 31.78125 34.625 
z
M 21.921875 38.8125 
Q 15.578125 40.375 12.03125 44.71875 
Q 8.5 49.078125 8.5 55.328125 
Q 8.5 64.0625 14.71875 69.140625 
Q 20.953125 74.21875 31.78125 74.21875 
Q 42.671875 74.21875 48.875 69.140625 
Q 55.078125 64.0625 55.078125 55.328125 
Q 55.078125 49.078125 51.53125 44.71875 
Q 48 40.375 41.703125 38.8125 
Q 48.828125 37.15625 52.796875 32.3125 
Q 56.78125 27.484375 56.78125 20.515625 
Q 56.78125 9.90625 50.3125 4.234375 
Q 43.84375 -1.421875 31.78125 -1.421875 
Q 19.734375 -1.421875 13.25 4.234375 
Q 6.78125 9.90625 6.78125 20.515625 
Q 6.78125 27.484375 10.78125 32.3125 
Q 14.796875 37.15625 21.921875 38.8125 
z
M 18.3125 54.390625 
Q 18.3125 48.734375 21.84375 45.5625 
Q 25.390625 42.390625 31.78125 42.390625 
Q 38.140625 42.390625 41.71875 45.5625 
Q 45.3125 48.734375 45.3125 54.390625 
Q 45.3125 60.0625 41.71875 63.234375 
Q 38.140625 66.40625 31.78125 66.40625 
Q 25.390625 66.40625 21.84375 63.234375 
Q 18.3125 60.0625 18.3125 54.390625 
z
" id="DejaVuSans-56"/>
       </defs>
       <use xlink:href="#DejaVuSans-48"/>
       <use x="63.623047" xlink:href="#DejaVuSans-46"/>
       <use x="95.410156" xlink:href="#DejaVuSans-56"/>
      </g>
     </g>
    </g>
    <g id="xtick_6">
     <g id="line2d_11">
      <path clip-path="url(#pe0d457554d)" d="M 336.474034 98.44 
L 336.474034 7.2 
" style="fill:none;stroke:#808080;stroke-linecap:square;stroke-opacity:0.5;stroke-width:0.5;"/>
     </g>
     <g id="line2d_12">
      <g>
       <use style="stroke:#000000;stroke-width:0.8;" x="336.474034" xlink:href="#m0a0132c060" y="98.44"/>
      </g>
     </g>
     <g id="text_6">
      <!-- 1.0 -->
      <g transform="translate(328.522472 113.038438)scale(0.1 -0.1)">
       <defs>
        <path d="M 12.40625 8.296875 
L 28.515625 8.296875 
L 28.515625 63.921875 
L 10.984375 60.40625 
L 10.984375 69.390625 
L 28.421875 72.90625 
L 38.28125 72.90625 
L 38.28125 8.296875 
L 54.390625 8.296875 
L 54.390625 0 
L 12.40625 0 
z
" id="DejaVuSans-49"/>
       </defs>
       <use xlink:href="#DejaVuSans-49"/>
       <use x="63.623047" xlink:href="#DejaVuSans-46"/>
       <use x="95.410156" xlink:href="#DejaVuSans-48"/>
      </g>
     </g>
    </g>
    <g id="text_7">
     <!-- Pixels Inserted -->
     <g transform="translate(154.237813 126.716562)scale(0.1 -0.1)">
      <defs>
       <path d="M 19.671875 64.796875 
L 19.671875 37.40625 
L 32.078125 37.40625 
Q 38.96875 37.40625 42.71875 40.96875 
Q 46.484375 44.53125 46.484375 51.125 
Q 46.484375 57.671875 42.71875 61.234375 
Q 38.96875 64.796875 32.078125 64.796875 
z
M 9.8125 72.90625 
L 32.078125 72.90625 
Q 44.34375 72.90625 50.609375 67.359375 
Q 56.890625 61.8125 56.890625 51.125 
Q 56.890625 40.328125 50.609375 34.8125 
Q 44.34375 29.296875 32.078125 29.296875 
L 19.671875 29.296875 
L 19.671875 0 
L 9.8125 0 
z
" id="DejaVuSans-80"/>
       <path d="M 9.421875 54.6875 
L 18.40625 54.6875 
L 18.40625 0 
L 9.421875 0 
z
M 9.421875 75.984375 
L 18.40625 75.984375 
L 18.40625 64.59375 
L 9.421875 64.59375 
z
" id="DejaVuSans-105"/>
       <path d="M 54.890625 54.6875 
L 35.109375 28.078125 
L 55.90625 0 
L 45.3125 0 
L 29.390625 21.484375 
L 13.484375 0 
L 2.875 0 
L 24.125 28.609375 
L 4.6875 54.6875 
L 15.28125 54.6875 
L 29.78125 35.203125 
L 44.28125 54.6875 
z
" id="DejaVuSans-120"/>
       <path d="M 56.203125 29.59375 
L 56.203125 25.203125 
L 14.890625 25.203125 
Q 15.484375 15.921875 20.484375 11.0625 
Q 25.484375 6.203125 34.421875 6.203125 
Q 39.59375 6.203125 44.453125 7.46875 
Q 49.3125 8.734375 54.109375 11.28125 
L 54.109375 2.78125 
Q 49.265625 0.734375 44.1875 -0.34375 
Q 39.109375 -1.421875 33.890625 -1.421875 
Q 20.796875 -1.421875 13.15625 6.1875 
Q 5.515625 13.8125 5.515625 26.8125 
Q 5.515625 40.234375 12.765625 48.109375 
Q 20.015625 56 32.328125 56 
Q 43.359375 56 49.78125 48.890625 
Q 56.203125 41.796875 56.203125 29.59375 
z
M 47.21875 32.234375 
Q 47.125 39.59375 43.09375 43.984375 
Q 39.0625 48.390625 32.421875 48.390625 
Q 24.90625 48.390625 20.390625 44.140625 
Q 15.875 39.890625 15.1875 32.171875 
z
" id="DejaVuSans-101"/>
       <path d="M 9.421875 75.984375 
L 18.40625 75.984375 
L 18.40625 0 
L 9.421875 0 
z
" id="DejaVuSans-108"/>
       <path d="M 44.28125 53.078125 
L 44.28125 44.578125 
Q 40.484375 46.53125 36.375 47.5 
Q 32.28125 48.484375 27.875 48.484375 
Q 21.1875 48.484375 17.84375 46.4375 
Q 14.5 44.390625 14.5 40.28125 
Q 14.5 37.15625 16.890625 35.375 
Q 19.28125 33.59375 26.515625 31.984375 
L 29.59375 31.296875 
Q 39.15625 29.25 43.1875 25.515625 
Q 47.21875 21.78125 47.21875 15.09375 
Q 47.21875 7.46875 41.1875 3.015625 
Q 35.15625 -1.421875 24.609375 -1.421875 
Q 20.21875 -1.421875 15.453125 -0.5625 
Q 10.6875 0.296875 5.421875 2 
L 5.421875 11.28125 
Q 10.40625 8.6875 15.234375 7.390625 
Q 20.0625 6.109375 24.8125 6.109375 
Q 31.15625 6.109375 34.5625 8.28125 
Q 37.984375 10.453125 37.984375 14.40625 
Q 37.984375 18.0625 35.515625 20.015625 
Q 33.0625 21.96875 24.703125 23.78125 
L 21.578125 24.515625 
Q 13.234375 26.265625 9.515625 29.90625 
Q 5.8125 33.546875 5.8125 39.890625 
Q 5.8125 47.609375 11.28125 51.796875 
Q 16.75 56 26.8125 56 
Q 31.78125 56 36.171875 55.265625 
Q 40.578125 54.546875 44.28125 53.078125 
z
" id="DejaVuSans-115"/>
       <path id="DejaVuSans-32"/>
       <path d="M 9.8125 72.90625 
L 19.671875 72.90625 
L 19.671875 0 
L 9.8125 0 
z
" id="DejaVuSans-73"/>
       <path d="M 54.890625 33.015625 
L 54.890625 0 
L 45.90625 0 
L 45.90625 32.71875 
Q 45.90625 40.484375 42.875 44.328125 
Q 39.84375 48.1875 33.796875 48.1875 
Q 26.515625 48.1875 22.3125 43.546875 
Q 18.109375 38.921875 18.109375 30.90625 
L 18.109375 0 
L 9.078125 0 
L 9.078125 54.6875 
L 18.109375 54.6875 
L 18.109375 46.1875 
Q 21.34375 51.125 25.703125 53.5625 
Q 30.078125 56 35.796875 56 
Q 45.21875 56 50.046875 50.171875 
Q 54.890625 44.34375 54.890625 33.015625 
z
" id="DejaVuSans-110"/>
       <path d="M 41.109375 46.296875 
Q 39.59375 47.171875 37.8125 47.578125 
Q 36.03125 48 33.890625 48 
Q 26.265625 48 22.1875 43.046875 
Q 18.109375 38.09375 18.109375 28.8125 
L 18.109375 0 
L 9.078125 0 
L 9.078125 54.6875 
L 18.109375 54.6875 
L 18.109375 46.1875 
Q 20.953125 51.171875 25.484375 53.578125 
Q 30.03125 56 36.53125 56 
Q 37.453125 56 38.578125 55.875 
Q 39.703125 55.765625 41.0625 55.515625 
z
" id="DejaVuSans-114"/>
       <path d="M 18.3125 70.21875 
L 18.3125 54.6875 
L 36.8125 54.6875 
L 36.8125 47.703125 
L 18.3125 47.703125 
L 18.3125 18.015625 
Q 18.3125 11.328125 20.140625 9.421875 
Q 21.96875 7.515625 27.59375 7.515625 
L 36.8125 7.515625 
L 36.8125 0 
L 27.59375 0 
Q 17.1875 0 13.234375 3.875 
Q 9.28125 7.765625 9.28125 18.015625 
L 9.28125 47.703125 
L 2.6875 47.703125 
L 2.6875 54.6875 
L 9.28125 54.6875 
L 9.28125 70.21875 
z
" id="DejaVuSans-116"/>
       <path d="M 45.40625 46.390625 
L 45.40625 75.984375 
L 54.390625 75.984375 
L 54.390625 0 
L 45.40625 0 
L 45.40625 8.203125 
Q 42.578125 3.328125 38.25 0.953125 
Q 33.9375 -1.421875 27.875 -1.421875 
Q 17.96875 -1.421875 11.734375 6.484375 
Q 5.515625 14.40625 5.515625 27.296875 
Q 5.515625 40.1875 11.734375 48.09375 
Q 17.96875 56 27.875 56 
Q 33.9375 56 38.25 53.625 
Q 42.578125 51.265625 45.40625 46.390625 
z
M 14.796875 27.296875 
Q 14.796875 17.390625 18.875 11.75 
Q 22.953125 6.109375 30.078125 6.109375 
Q 37.203125 6.109375 41.296875 11.75 
Q 45.40625 17.390625 45.40625 27.296875 
Q 45.40625 37.203125 41.296875 42.84375 
Q 37.203125 48.484375 30.078125 48.484375 
Q 22.953125 48.484375 18.875 42.84375 
Q 14.796875 37.203125 14.796875 27.296875 
z
" id="DejaVuSans-100"/>
      </defs>
      <use xlink:href="#DejaVuSans-80"/>
      <use x="58.052734" xlink:href="#DejaVuSans-105"/>
      <use x="85.835938" xlink:href="#DejaVuSans-120"/>
      <use x="141.890625" xlink:href="#DejaVuSans-101"/>
      <use x="203.414062" xlink:href="#DejaVuSans-108"/>
      <use x="231.197266" xlink:href="#DejaVuSans-115"/>
      <use x="283.296875" xlink:href="#DejaVuSans-32"/>
      <use x="315.083984" xlink:href="#DejaVuSans-73"/>
      <use x="344.576172" xlink:href="#DejaVuSans-110"/>
      <use x="407.955078" xlink:href="#DejaVuSans-115"/>
      <use x="460.054688" xlink:href="#DejaVuSans-101"/>
      <use x="521.578125" xlink:href="#DejaVuSans-114"/>
      <use x="562.691406" xlink:href="#DejaVuSans-116"/>
      <use x="601.900391" xlink:href="#DejaVuSans-101"/>
      <use x="663.423828" xlink:href="#DejaVuSans-100"/>
     </g>
    </g>
   </g>
   <g id="matplotlib.axis_2">
    <g id="ytick_1">
     <g id="line2d_13">
      <path clip-path="url(#pe0d457554d)" d="M 30.103125 94.292727 
L 351.063125 94.292727 
" style="fill:none;stroke:#808080;stroke-linecap:square;stroke-opacity:0.5;stroke-width:0.5;"/>
     </g>
     <g id="line2d_14">
      <defs>
       <path d="M 0 0 
L -3.5 0 
" id="m8b384fed75" style="stroke:#000000;stroke-width:0.8;"/>
      </defs>
      <g>
       <use style="stroke:#000000;stroke-width:0.8;" x="30.103125" xlink:href="#m8b384fed75" y="94.292727"/>
      </g>
     </g>
     <g id="text_8">
      <!-- 0.0 -->
      <g transform="translate(7.2 98.091946)scale(0.1 -0.1)">
       <use xlink:href="#DejaVuSans-48"/>
       <use x="63.623047" xlink:href="#DejaVuSans-46"/>
       <use x="95.410156" xlink:href="#DejaVuSans-48"/>
      </g>
     </g>
    </g>
    <g id="ytick_2">
     <g id="line2d_15">
      <path clip-path="url(#pe0d457554d)" d="M 30.103125 77.703636 
L 351.063125 77.703636 
" style="fill:none;stroke:#808080;stroke-linecap:square;stroke-opacity:0.5;stroke-width:0.5;"/>
     </g>
     <g id="line2d_16">
      <g>
       <use style="stroke:#000000;stroke-width:0.8;" x="30.103125" xlink:href="#m8b384fed75" y="77.703636"/>
      </g>
     </g>
     <g id="text_9">
      <!-- 0.2 -->
      <g transform="translate(7.2 81.502855)scale(0.1 -0.1)">
       <use xlink:href="#DejaVuSans-48"/>
       <use x="63.623047" xlink:href="#DejaVuSans-46"/>
       <use x="95.410156" xlink:href="#DejaVuSans-50"/>
      </g>
     </g>
    </g>
    <g id="ytick_3">
     <g id="line2d_17">
      <path clip-path="url(#pe0d457554d)" d="M 30.103125 44.525455 
L 351.063125 44.525455 
" style="fill:none;stroke:#808080;stroke-linecap:square;stroke-opacity:0.5;stroke-width:0.5;"/>
     </g>
     <g id="line2d_18">
      <g>
       <use style="stroke:#000000;stroke-width:0.8;" x="30.103125" xlink:href="#m8b384fed75" y="44.525455"/>
      </g>
     </g>
     <g id="text_10">
      <!-- 0.6 -->
      <g transform="translate(7.2 48.324673)scale(0.1 -0.1)">
       <use xlink:href="#DejaVuSans-48"/>
       <use x="63.623047" xlink:href="#DejaVuSans-46"/>
       <use x="95.410156" xlink:href="#DejaVuSans-54"/>
      </g>
     </g>
    </g>
    <g id="ytick_4">
     <g id="line2d_19">
      <path clip-path="url(#pe0d457554d)" d="M 30.103125 61.114545 
L 351.063125 61.114545 
" style="fill:none;stroke:#808080;stroke-linecap:square;stroke-opacity:0.5;stroke-width:0.5;"/>
     </g>
     <g id="line2d_20">
      <g>
       <use style="stroke:#000000;stroke-width:0.8;" x="30.103125" xlink:href="#m8b384fed75" y="61.114545"/>
      </g>
     </g>
     <g id="text_11">
      <!-- 0.4 -->
      <g transform="translate(7.2 64.913764)scale(0.1 -0.1)">
       <use xlink:href="#DejaVuSans-48"/>
       <use x="63.623047" xlink:href="#DejaVuSans-46"/>
       <use x="95.410156" xlink:href="#DejaVuSans-52"/>
      </g>
     </g>
    </g>
    <g id="ytick_5">
     <g id="line2d_21">
      <path clip-path="url(#pe0d457554d)" d="M 30.103125 27.936364 
L 351.063125 27.936364 
" style="fill:none;stroke:#808080;stroke-linecap:square;stroke-opacity:0.5;stroke-width:0.5;"/>
     </g>
     <g id="line2d_22">
      <g>
       <use style="stroke:#000000;stroke-width:0.8;" x="30.103125" xlink:href="#m8b384fed75" y="27.936364"/>
      </g>
     </g>
     <g id="text_12">
      <!-- 0.8 -->
      <g transform="translate(7.2 31.735582)scale(0.1 -0.1)">
       <use xlink:href="#DejaVuSans-48"/>
       <use x="63.623047" xlink:href="#DejaVuSans-46"/>
       <use x="95.410156" xlink:href="#DejaVuSans-56"/>
      </g>
     </g>
    </g>
    <g id="ytick_6">
     <g id="line2d_23">
      <path clip-path="url(#pe0d457554d)" d="M 30.103125 11.347273 
L 351.063125 11.347273 
" style="fill:none;stroke:#808080;stroke-linecap:square;stroke-opacity:0.5;stroke-width:0.5;"/>
     </g>
     <g id="line2d_24">
      <g>
       <use style="stroke:#000000;stroke-width:0.8;" x="30.103125" xlink:href="#m8b384fed75" y="11.347273"/>
      </g>
     </g>
     <g id="text_13">
      <!-- 1.0 -->
      <g transform="translate(7.2 15.146491)scale(0.1 -0.1)">
       <use xlink:href="#DejaVuSans-49"/>
       <use x="63.623047" xlink:href="#DejaVuSans-46"/>
       <use x="95.410156" xlink:href="#DejaVuSans-48"/>
      </g>
     </g>
    </g>
   </g>
   <g id="line2d_25">
    <path clip-path="url(#pe0d457554d)" d="M 44.692216 65.010113 
L 47.639507 73.837805 
L 50.586798 53.60237 
L 53.534089 38.357118 
L 56.48138 37.854419 
L 59.428671 27.589432 
L 62.375962 27.599345 
L 65.323254 27.763607 
L 68.270545 34.498363 
L 71.217836 36.958054 
L 74.165127 28.784579 
L 77.112418 26.490573 
L 80.059709 11.347273 
L 83.007 11.406748 
L 85.954291 11.375592 
L 88.901582 15.140887 
L 91.848873 17.736517 
L 94.796164 17.780414 
L 97.743456 17.293288 
L 100.690747 17.192748 
L 103.638038 24.319756 
L 106.585329 24.288604 
L 109.53262 24.282939 
L 112.479911 27.715458 
L 115.427202 27.831576 
L 118.374493 27.801838 
L 121.321784 20.036188 
L 124.269075 25.310995 
L 127.216367 27.466234 
L 130.163658 36.873093 
L 133.110949 35.370656 
L 136.05824 35.197895 
L 139.005531 37.691571 
L 141.952822 37.677411 
L 144.900113 39.757596 
L 147.847404 36.485093 
L 150.794695 23.148681 
L 153.741986 32.596604 
L 156.689277 32.641915 
L 159.636569 36.851848 
L 162.58386 36.670594 
L 165.531151 41.786805 
L 168.478442 55.8539 
L 171.425733 55.851067 
L 174.373024 55.781681 
L 177.320315 57.880275 
L 180.267606 55.294558 
L 183.214897 55.26482 
L 186.162188 58.334828 
L 189.109479 59.338812 
L 192.056771 65.844172 
L 195.004062 70.000293 
L 197.951353 64.848684 
L 200.898644 67.012416 
L 203.845935 67.009586 
L 206.793226 67.044987 
L 209.740517 67.020913 
L 212.687808 61.702208 
L 215.635099 62.813812 
L 218.58239 62.79965 
L 221.529681 62.793987 
L 224.476973 62.805316 
L 227.424264 71.338468 
L 230.371555 70.368468 
L 233.318846 73.573002 
L 236.266137 79.392991 
L 239.213428 81.903657 
L 242.160719 81.909321 
L 245.10801 79.609648 
L 248.055301 77.94295 
L 251.002592 82.402109 
L 253.949883 82.950122 
L 256.897175 83.435829 
L 259.844466 80.16899 
L 262.791757 80.184565 
L 265.739048 80.153412 
L 268.686339 86.532743 
L 271.63363 86.561064 
L 274.580921 91.432295 
L 277.528212 91.403974 
L 280.475503 85.640628 
L 283.422794 85.620803 
L 286.370086 79.582742 
L 289.317377 80.306347 
L 292.264668 79.916932 
L 295.211959 79.771077 
L 298.15925 81.073848 
L 301.106541 81.061104 
L 304.053832 77.901884 
L 307.001123 79.347677 
L 309.948414 80.419631 
L 312.895705 80.426711 
L 315.842996 82.406357 
L 318.790288 90.405655 
L 321.737579 94.153954 
L 324.68487 94.149706 
L 327.632161 94.172363 
L 330.579452 94.292727 
L 333.526743 87.802945 
L 336.474034 89.015088 
" style="fill:none;stroke:#1f77b4;stroke-linecap:square;stroke-width:1.5;"/>
   </g>
   <g id="line2d_26">
    <path clip-path="url(#pe0d457554d)" d="M 30.103125 94.292727 
L 351.063125 94.292727 
" style="fill:none;stroke:#808080;stroke-linecap:square;stroke-opacity:0.5;stroke-width:0.5;"/>
   </g>
   <g id="line2d_27">
    <path clip-path="url(#pe0d457554d)" d="M 30.103125 77.703636 
L 351.063125 77.703636 
" style="fill:none;stroke:#808080;stroke-linecap:square;stroke-opacity:0.5;stroke-width:0.5;"/>
   </g>
   <g id="line2d_28">
    <path clip-path="url(#pe0d457554d)" d="M 30.103125 44.525455 
L 351.063125 44.525455 
" style="fill:none;stroke:#808080;stroke-linecap:square;stroke-opacity:0.5;stroke-width:0.5;"/>
   </g>
   <g id="line2d_29">
    <path clip-path="url(#pe0d457554d)" d="M 30.103125 61.114545 
L 351.063125 61.114545 
" style="fill:none;stroke:#808080;stroke-linecap:square;stroke-opacity:0.5;stroke-width:0.5;"/>
   </g>
   <g id="line2d_30">
    <path clip-path="url(#pe0d457554d)" d="M 30.103125 27.936364 
L 351.063125 27.936364 
" style="fill:none;stroke:#808080;stroke-linecap:square;stroke-opacity:0.5;stroke-width:0.5;"/>
   </g>
   <g id="line2d_31">
    <path clip-path="url(#pe0d457554d)" d="M 30.103125 11.347273 
L 351.063125 11.347273 
" style="fill:none;stroke:#808080;stroke-linecap:square;stroke-opacity:0.5;stroke-width:0.5;"/>
   </g>
   <g id="patch_3">
    <path d="M 30.103125 98.44 
L 30.103125 7.2 
" style="fill:none;stroke:#000000;stroke-linecap:square;stroke-linejoin:miter;stroke-width:0.8;"/>
   </g>
   <g id="patch_4">
    <path d="M 351.063125 98.44 
L 351.063125 7.2 
" style="fill:none;stroke:#000000;stroke-linecap:square;stroke-linejoin:miter;stroke-width:0.8;"/>
   </g>
   <g id="patch_5">
    <path d="M 30.103125 98.44 
L 351.063125 98.44 
" style="fill:none;stroke:#000000;stroke-linecap:square;stroke-linejoin:miter;stroke-width:0.8;"/>
   </g>
   <g id="patch_6">
    <path d="M 30.103125 7.2 
L 351.063125 7.2 
" style="fill:none;stroke:#000000;stroke-linecap:square;stroke-linejoin:miter;stroke-width:0.8;"/>
   </g>
   <g id="legend_1">
    <g id="patch_7">
     <path d="M 235.46625 93.44 
L 344.063125 93.44 
Q 346.063125 93.44 346.063125 91.44 
L 346.063125 77.761875 
Q 346.063125 75.761875 344.063125 75.761875 
L 235.46625 75.761875 
Q 233.46625 75.761875 233.46625 77.761875 
L 233.46625 91.44 
Q 233.46625 93.44 235.46625 93.44 
z
" style="fill:#ffffff;opacity:0.8;stroke:#cccccc;stroke-linejoin:miter;"/>
    </g>
    <g id="line2d_32">
     <path d="M 237.46625 83.860312 
L 257.46625 83.860312 
" style="fill:none;stroke:#1f77b4;stroke-linecap:square;stroke-width:1.5;"/>
    </g>
    <g id="line2d_33"/>
    <g id="text_14">
     <!-- Insertion Curve -->
     <g transform="translate(265.46625 87.360312)scale(0.1 -0.1)">
      <defs>
       <path d="M 30.609375 48.390625 
Q 23.390625 48.390625 19.1875 42.75 
Q 14.984375 37.109375 14.984375 27.296875 
Q 14.984375 17.484375 19.15625 11.84375 
Q 23.34375 6.203125 30.609375 6.203125 
Q 37.796875 6.203125 41.984375 11.859375 
Q 46.1875 17.53125 46.1875 27.296875 
Q 46.1875 37.015625 41.984375 42.703125 
Q 37.796875 48.390625 30.609375 48.390625 
z
M 30.609375 56 
Q 42.328125 56 49.015625 48.375 
Q 55.71875 40.765625 55.71875 27.296875 
Q 55.71875 13.875 49.015625 6.21875 
Q 42.328125 -1.421875 30.609375 -1.421875 
Q 18.84375 -1.421875 12.171875 6.21875 
Q 5.515625 13.875 5.515625 27.296875 
Q 5.515625 40.765625 12.171875 48.375 
Q 18.84375 56 30.609375 56 
z
" id="DejaVuSans-111"/>
       <path d="M 64.40625 67.28125 
L 64.40625 56.890625 
Q 59.421875 61.53125 53.78125 63.8125 
Q 48.140625 66.109375 41.796875 66.109375 
Q 29.296875 66.109375 22.65625 58.46875 
Q 16.015625 50.828125 16.015625 36.375 
Q 16.015625 21.96875 22.65625 14.328125 
Q 29.296875 6.6875 41.796875 6.6875 
Q 48.140625 6.6875 53.78125 8.984375 
Q 59.421875 11.28125 64.40625 15.921875 
L 64.40625 5.609375 
Q 59.234375 2.09375 53.4375 0.328125 
Q 47.65625 -1.421875 41.21875 -1.421875 
Q 24.65625 -1.421875 15.125 8.703125 
Q 5.609375 18.84375 5.609375 36.375 
Q 5.609375 53.953125 15.125 64.078125 
Q 24.65625 74.21875 41.21875 74.21875 
Q 47.75 74.21875 53.53125 72.484375 
Q 59.328125 70.75 64.40625 67.28125 
z
" id="DejaVuSans-67"/>
       <path d="M 8.5 21.578125 
L 8.5 54.6875 
L 17.484375 54.6875 
L 17.484375 21.921875 
Q 17.484375 14.15625 20.5 10.265625 
Q 23.53125 6.390625 29.59375 6.390625 
Q 36.859375 6.390625 41.078125 11.03125 
Q 45.3125 15.671875 45.3125 23.6875 
L 45.3125 54.6875 
L 54.296875 54.6875 
L 54.296875 0 
L 45.3125 0 
L 45.3125 8.40625 
Q 42.046875 3.421875 37.71875 1 
Q 33.40625 -1.421875 27.6875 -1.421875 
Q 18.265625 -1.421875 13.375 4.4375 
Q 8.5 10.296875 8.5 21.578125 
z
M 31.109375 56 
z
" id="DejaVuSans-117"/>
       <path d="M 2.984375 54.6875 
L 12.5 54.6875 
L 29.59375 8.796875 
L 46.6875 54.6875 
L 56.203125 54.6875 
L 35.6875 0 
L 23.484375 0 
z
" id="DejaVuSans-118"/>
      </defs>
      <use xlink:href="#DejaVuSans-73"/>
      <use x="29.492188" xlink:href="#DejaVuSans-110"/>
      <use x="92.871094" xlink:href="#DejaVuSans-115"/>
      <use x="144.970703" xlink:href="#DejaVuSans-101"/>
      <use x="206.494141" xlink:href="#DejaVuSans-114"/>
      <use x="247.607422" xlink:href="#DejaVuSans-116"/>
      <use x="286.816406" xlink:href="#DejaVuSans-105"/>
      <use x="314.599609" xlink:href="#DejaVuSans-111"/>
      <use x="375.78125" xlink:href="#DejaVuSans-110"/>
      <use x="439.160156" xlink:href="#DejaVuSans-32"/>
      <use x="470.947266" xlink:href="#DejaVuSans-67"/>
      <use x="540.771484" xlink:href="#DejaVuSans-117"/>
      <use x="604.150391" xlink:href="#DejaVuSans-114"/>
      <use x="645.263672" xlink:href="#DejaVuSans-118"/>
      <use x="704.443359" xlink:href="#DejaVuSans-101"/>
     </g>
    </g>
   </g>
  </g>
  <g id="axes_2">
   <g id="patch_8">
    <path d="M 384.703125 98.44 
L 705.663125 98.44 
L 705.663125 7.2 
L 384.703125 7.2 
z
" style="fill:#ffffff;"/>
   </g>
   <g id="PolyCollection_2">
    <path clip-path="url(#p2ab9011a07)" d="M 399.292216 11.347273 
L 399.292216 83.949046 
L 402.239507 74.674479 
L 405.186798 79.859683 
L 408.134089 94.292727 
L 411.08138 70.888033 
L 414.028671 84.839975 
L 416.975962 84.848884 
L 419.923254 84.768701 
L 422.870545 69.614004 
L 425.817836 70.986034 
L 428.765127 85.39235 
L 431.712418 87.610763 
L 434.659709 91.361572 
L 437.607 91.343754 
L 440.554291 91.343754 
L 443.501582 83.414488 
L 446.448873 68.78544 
L 449.396164 69.115084 
L 452.343456 83.165029 
L 455.290747 83.209575 
L 458.238038 74.371563 
L 461.185329 74.389382 
L 464.13262 74.398291 
L 467.079911 73.213356 
L 470.027202 72.946077 
L 472.974493 72.981715 
L 475.921784 82.630472 
L 478.869075 68.776531 
L 481.816367 70.941487 
L 484.763658 67.885604 
L 487.710949 72.028421 
L 490.65824 72.153151 
L 493.605531 78.02437 
L 496.552822 78.077826 
L 499.500113 84.260871 
L 502.447404 86.176367 
L 505.394695 74.701207 
L 508.341986 77.071077 
L 511.289277 77.088896 
L 514.236569 71.386953 
L 517.18386 81.703906 
L 520.131151 74.834847 
L 523.078442 73.427179 
L 526.025733 73.436088 
L 528.973024 73.373722 
L 531.920315 76.777071 
L 534.867606 90.167728 
L 537.814897 90.292458 
L 540.762188 90.791378 
L 543.709479 93.713624 
L 546.656771 91.940676 
L 549.604062 93.793807 
L 552.551353 89.713354 
L 555.498644 83.485763 
L 558.445935 83.494673 
L 561.393226 83.503582 
L 564.340517 83.494673 
L 567.287808 76.082147 
L 570.235099 77.890732 
L 573.18239 77.953096 
L 576.129681 78.042189 
L 579.076973 78.042189 
L 582.024264 77.79273 
L 584.971555 73.917189 
L 587.918846 72.500614 
L 590.866137 67.253043 
L 593.813428 58.07648 
L 596.760719 58.112116 
L 599.70801 48.142623 
L 602.655301 39.473889 
L 605.602592 45.229286 
L 608.549883 51.510337 
L 611.497175 52.445808 
L 614.444466 68.723077 
L 617.391757 68.723077 
L 620.339048 68.669621 
L 623.286339 65.854285 
L 626.23363 65.818649 
L 629.180921 52.721996 
L 632.128212 52.713087 
L 635.075503 39.527343 
L 638.022794 39.500616 
L 640.970086 41.157743 
L 643.917377 45.19365 
L 646.864668 48.142623 
L 649.811959 48.178264 
L 652.75925 54.352397 
L 655.706541 54.352397 
L 658.653832 60.882904 
L 661.601123 64.642623 
L 664.548414 50.815413 
L 667.495705 50.815413 
L 670.442996 40.373729 
L 673.390288 18.777615 
L 676.337579 11.454185 
L 679.28487 11.454185 
L 679.28487 11.347273 
L 679.28487 11.347273 
L 676.337579 11.347273 
L 673.390288 11.347273 
L 670.442996 11.347273 
L 667.495705 11.347273 
L 664.548414 11.347273 
L 661.601123 11.347273 
L 658.653832 11.347273 
L 655.706541 11.347273 
L 652.75925 11.347273 
L 649.811959 11.347273 
L 646.864668 11.347273 
L 643.917377 11.347273 
L 640.970086 11.347273 
L 638.022794 11.347273 
L 635.075503 11.347273 
L 632.128212 11.347273 
L 629.180921 11.347273 
L 626.23363 11.347273 
L 623.286339 11.347273 
L 620.339048 11.347273 
L 617.391757 11.347273 
L 614.444466 11.347273 
L 611.497175 11.347273 
L 608.549883 11.347273 
L 605.602592 11.347273 
L 602.655301 11.347273 
L 599.70801 11.347273 
L 596.760719 11.347273 
L 593.813428 11.347273 
L 590.866137 11.347273 
L 587.918846 11.347273 
L 584.971555 11.347273 
L 582.024264 11.347273 
L 579.076973 11.347273 
L 576.129681 11.347273 
L 573.18239 11.347273 
L 570.235099 11.347273 
L 567.287808 11.347273 
L 564.340517 11.347273 
L 561.393226 11.347273 
L 558.445935 11.347273 
L 555.498644 11.347273 
L 552.551353 11.347273 
L 549.604062 11.347273 
L 546.656771 11.347273 
L 543.709479 11.347273 
L 540.762188 11.347273 
L 537.814897 11.347273 
L 534.867606 11.347273 
L 531.920315 11.347273 
L 528.973024 11.347273 
L 526.025733 11.347273 
L 523.078442 11.347273 
L 520.131151 11.347273 
L 517.18386 11.347273 
L 514.236569 11.347273 
L 511.289277 11.347273 
L 508.341986 11.347273 
L 505.394695 11.347273 
L 502.447404 11.347273 
L 499.500113 11.347273 
L 496.552822 11.347273 
L 493.605531 11.347273 
L 490.65824 11.347273 
L 487.710949 11.347273 
L 484.763658 11.347273 
L 481.816367 11.347273 
L 478.869075 11.347273 
L 475.921784 11.347273 
L 472.974493 11.347273 
L 470.027202 11.347273 
L 467.079911 11.347273 
L 464.13262 11.347273 
L 461.185329 11.347273 
L 458.238038 11.347273 
L 455.290747 11.347273 
L 452.343456 11.347273 
L 449.396164 11.347273 
L 446.448873 11.347273 
L 443.501582 11.347273 
L 440.554291 11.347273 
L 437.607 11.347273 
L 434.659709 11.347273 
L 431.712418 11.347273 
L 428.765127 11.347273 
L 425.817836 11.347273 
L 422.870545 11.347273 
L 419.923254 11.347273 
L 416.975962 11.347273 
L 414.028671 11.347273 
L 411.08138 11.347273 
L 408.134089 11.347273 
L 405.186798 11.347273 
L 402.239507 11.347273 
L 399.292216 11.347273 
z
" style="fill:#0000ff;fill-opacity:0.1;stroke:#0000ff;stroke-opacity:0.1;"/>
    <path clip-path="url(#p2ab9011a07)" d="M 685.179452 11.347273 
L 685.179452 38.520594 
L 688.126743 50.521402 
L 691.074034 44.445272 
L 691.074034 11.347273 
L 691.074034 11.347273 
L 688.126743 11.347273 
L 685.179452 11.347273 
z
" style="fill:#0000ff;fill-opacity:0.1;stroke:#0000ff;stroke-opacity:0.1;"/>
   </g>
   <g id="matplotlib.axis_3">
    <g id="xtick_7">
     <g id="line2d_34">
      <path clip-path="url(#p2ab9011a07)" d="M 399.292216 98.44 
L 399.292216 7.2 
" style="fill:none;stroke:#808080;stroke-linecap:square;stroke-opacity:0.5;stroke-width:0.5;"/>
     </g>
     <g id="line2d_35">
      <g>
       <use style="stroke:#000000;stroke-width:0.8;" x="399.292216" xlink:href="#m0a0132c060" y="98.44"/>
      </g>
     </g>
     <g id="text_15">
      <!-- 0.0 -->
      <g transform="translate(391.340653 113.038438)scale(0.1 -0.1)">
       <use xlink:href="#DejaVuSans-48"/>
       <use x="63.623047" xlink:href="#DejaVuSans-46"/>
       <use x="95.410156" xlink:href="#DejaVuSans-48"/>
      </g>
     </g>
    </g>
    <g id="xtick_8">
     <g id="line2d_36">
      <path clip-path="url(#p2ab9011a07)" d="M 457.64858 98.44 
L 457.64858 7.2 
" style="fill:none;stroke:#808080;stroke-linecap:square;stroke-opacity:0.5;stroke-width:0.5;"/>
     </g>
     <g id="line2d_37">
      <g>
       <use style="stroke:#000000;stroke-width:0.8;" x="457.64858" xlink:href="#m0a0132c060" y="98.44"/>
      </g>
     </g>
     <g id="text_16">
      <!-- 0.2 -->
      <g transform="translate(449.697017 113.038438)scale(0.1 -0.1)">
       <use xlink:href="#DejaVuSans-48"/>
       <use x="63.623047" xlink:href="#DejaVuSans-46"/>
       <use x="95.410156" xlink:href="#DejaVuSans-50"/>
      </g>
     </g>
    </g>
    <g id="xtick_9">
     <g id="line2d_38">
      <path clip-path="url(#p2ab9011a07)" d="M 516.004943 98.44 
L 516.004943 7.2 
" style="fill:none;stroke:#808080;stroke-linecap:square;stroke-opacity:0.5;stroke-width:0.5;"/>
     </g>
     <g id="line2d_39">
      <g>
       <use style="stroke:#000000;stroke-width:0.8;" x="516.004943" xlink:href="#m0a0132c060" y="98.44"/>
      </g>
     </g>
     <g id="text_17">
      <!-- 0.4 -->
      <g transform="translate(508.053381 113.038438)scale(0.1 -0.1)">
       <use xlink:href="#DejaVuSans-48"/>
       <use x="63.623047" xlink:href="#DejaVuSans-46"/>
       <use x="95.410156" xlink:href="#DejaVuSans-52"/>
      </g>
     </g>
    </g>
    <g id="xtick_10">
     <g id="line2d_40">
      <path clip-path="url(#p2ab9011a07)" d="M 574.361307 98.44 
L 574.361307 7.2 
" style="fill:none;stroke:#808080;stroke-linecap:square;stroke-opacity:0.5;stroke-width:0.5;"/>
     </g>
     <g id="line2d_41">
      <g>
       <use style="stroke:#000000;stroke-width:0.8;" x="574.361307" xlink:href="#m0a0132c060" y="98.44"/>
      </g>
     </g>
     <g id="text_18">
      <!-- 0.6 -->
      <g transform="translate(566.409744 113.038438)scale(0.1 -0.1)">
       <use xlink:href="#DejaVuSans-48"/>
       <use x="63.623047" xlink:href="#DejaVuSans-46"/>
       <use x="95.410156" xlink:href="#DejaVuSans-54"/>
      </g>
     </g>
    </g>
    <g id="xtick_11">
     <g id="line2d_42">
      <path clip-path="url(#p2ab9011a07)" d="M 632.71767 98.44 
L 632.71767 7.2 
" style="fill:none;stroke:#808080;stroke-linecap:square;stroke-opacity:0.5;stroke-width:0.5;"/>
     </g>
     <g id="line2d_43">
      <g>
       <use style="stroke:#000000;stroke-width:0.8;" x="632.71767" xlink:href="#m0a0132c060" y="98.44"/>
      </g>
     </g>
     <g id="text_19">
      <!-- 0.8 -->
      <g transform="translate(624.766108 113.038438)scale(0.1 -0.1)">
       <use xlink:href="#DejaVuSans-48"/>
       <use x="63.623047" xlink:href="#DejaVuSans-46"/>
       <use x="95.410156" xlink:href="#DejaVuSans-56"/>
      </g>
     </g>
    </g>
    <g id="xtick_12">
     <g id="line2d_44">
      <path clip-path="url(#p2ab9011a07)" d="M 691.074034 98.44 
L 691.074034 7.2 
" style="fill:none;stroke:#808080;stroke-linecap:square;stroke-opacity:0.5;stroke-width:0.5;"/>
     </g>
     <g id="line2d_45">
      <g>
       <use style="stroke:#000000;stroke-width:0.8;" x="691.074034" xlink:href="#m0a0132c060" y="98.44"/>
      </g>
     </g>
     <g id="text_20">
      <!-- 1.0 -->
      <g transform="translate(683.122472 113.038438)scale(0.1 -0.1)">
       <use xlink:href="#DejaVuSans-49"/>
       <use x="63.623047" xlink:href="#DejaVuSans-46"/>
       <use x="95.410156" xlink:href="#DejaVuSans-48"/>
      </g>
     </g>
    </g>
    <g id="text_21">
     <!-- Pixels Inserted -->
     <g transform="translate(508.837813 126.716562)scale(0.1 -0.1)">
      <use xlink:href="#DejaVuSans-80"/>
      <use x="58.052734" xlink:href="#DejaVuSans-105"/>
      <use x="85.835938" xlink:href="#DejaVuSans-120"/>
      <use x="141.890625" xlink:href="#DejaVuSans-101"/>
      <use x="203.414062" xlink:href="#DejaVuSans-108"/>
      <use x="231.197266" xlink:href="#DejaVuSans-115"/>
      <use x="283.296875" xlink:href="#DejaVuSans-32"/>
      <use x="315.083984" xlink:href="#DejaVuSans-73"/>
      <use x="344.576172" xlink:href="#DejaVuSans-110"/>
      <use x="407.955078" xlink:href="#DejaVuSans-115"/>
      <use x="460.054688" xlink:href="#DejaVuSans-101"/>
      <use x="521.578125" xlink:href="#DejaVuSans-114"/>
      <use x="562.691406" xlink:href="#DejaVuSans-116"/>
      <use x="601.900391" xlink:href="#DejaVuSans-101"/>
      <use x="663.423828" xlink:href="#DejaVuSans-100"/>
     </g>
    </g>
   </g>
   <g id="matplotlib.axis_4">
    <g id="ytick_7">
     <g id="line2d_46">
      <path clip-path="url(#p2ab9011a07)" d="M 384.703125 94.292727 
L 705.663125 94.292727 
" style="fill:none;stroke:#808080;stroke-linecap:square;stroke-opacity:0.5;stroke-width:0.5;"/>
     </g>
     <g id="line2d_47">
      <g>
       <use style="stroke:#000000;stroke-width:0.8;" x="384.703125" xlink:href="#m8b384fed75" y="94.292727"/>
      </g>
     </g>
     <g id="text_22">
      <!-- 0.0 -->
      <g transform="translate(361.8 98.091946)scale(0.1 -0.1)">
       <use xlink:href="#DejaVuSans-48"/>
       <use x="63.623047" xlink:href="#DejaVuSans-46"/>
       <use x="95.410156" xlink:href="#DejaVuSans-48"/>
      </g>
     </g>
    </g>
    <g id="ytick_8">
     <g id="line2d_48">
      <path clip-path="url(#p2ab9011a07)" d="M 384.703125 77.703636 
L 705.663125 77.703636 
" style="fill:none;stroke:#808080;stroke-linecap:square;stroke-opacity:0.5;stroke-width:0.5;"/>
     </g>
     <g id="line2d_49">
      <g>
       <use style="stroke:#000000;stroke-width:0.8;" x="384.703125" xlink:href="#m8b384fed75" y="77.703636"/>
      </g>
     </g>
     <g id="text_23">
      <!-- 0.2 -->
      <g transform="translate(361.8 81.502855)scale(0.1 -0.1)">
       <use xlink:href="#DejaVuSans-48"/>
       <use x="63.623047" xlink:href="#DejaVuSans-46"/>
       <use x="95.410156" xlink:href="#DejaVuSans-50"/>
      </g>
     </g>
    </g>
    <g id="ytick_9">
     <g id="line2d_50">
      <path clip-path="url(#p2ab9011a07)" d="M 384.703125 44.525455 
L 705.663125 44.525455 
" style="fill:none;stroke:#808080;stroke-linecap:square;stroke-opacity:0.5;stroke-width:0.5;"/>
     </g>
     <g id="line2d_51">
      <g>
       <use style="stroke:#000000;stroke-width:0.8;" x="384.703125" xlink:href="#m8b384fed75" y="44.525455"/>
      </g>
     </g>
     <g id="text_24">
      <!-- 0.6 -->
      <g transform="translate(361.8 48.324673)scale(0.1 -0.1)">
       <use xlink:href="#DejaVuSans-48"/>
       <use x="63.623047" xlink:href="#DejaVuSans-46"/>
       <use x="95.410156" xlink:href="#DejaVuSans-54"/>
      </g>
     </g>
    </g>
    <g id="ytick_10">
     <g id="line2d_52">
      <path clip-path="url(#p2ab9011a07)" d="M 384.703125 61.114545 
L 705.663125 61.114545 
" style="fill:none;stroke:#808080;stroke-linecap:square;stroke-opacity:0.5;stroke-width:0.5;"/>
     </g>
     <g id="line2d_53">
      <g>
       <use style="stroke:#000000;stroke-width:0.8;" x="384.703125" xlink:href="#m8b384fed75" y="61.114545"/>
      </g>
     </g>
     <g id="text_25">
      <!-- 0.4 -->
      <g transform="translate(361.8 64.913764)scale(0.1 -0.1)">
       <use xlink:href="#DejaVuSans-48"/>
       <use x="63.623047" xlink:href="#DejaVuSans-46"/>
       <use x="95.410156" xlink:href="#DejaVuSans-52"/>
      </g>
     </g>
    </g>
    <g id="ytick_11">
     <g id="line2d_54">
      <path clip-path="url(#p2ab9011a07)" d="M 384.703125 27.936364 
L 705.663125 27.936364 
" style="fill:none;stroke:#808080;stroke-linecap:square;stroke-opacity:0.5;stroke-width:0.5;"/>
     </g>
     <g id="line2d_55">
      <g>
       <use style="stroke:#000000;stroke-width:0.8;" x="384.703125" xlink:href="#m8b384fed75" y="27.936364"/>
      </g>
     </g>
     <g id="text_26">
      <!-- 0.8 -->
      <g transform="translate(361.8 31.735582)scale(0.1 -0.1)">
       <use xlink:href="#DejaVuSans-48"/>
       <use x="63.623047" xlink:href="#DejaVuSans-46"/>
       <use x="95.410156" xlink:href="#DejaVuSans-56"/>
      </g>
     </g>
    </g>
    <g id="ytick_12">
     <g id="line2d_56">
      <path clip-path="url(#p2ab9011a07)" d="M 384.703125 11.347273 
L 705.663125 11.347273 
" style="fill:none;stroke:#808080;stroke-linecap:square;stroke-opacity:0.5;stroke-width:0.5;"/>
     </g>
     <g id="line2d_57">
      <g>
       <use style="stroke:#000000;stroke-width:0.8;" x="384.703125" xlink:href="#m8b384fed75" y="11.347273"/>
      </g>
     </g>
     <g id="text_27">
      <!-- 1.0 -->
      <g transform="translate(361.8 15.146491)scale(0.1 -0.1)">
       <use xlink:href="#DejaVuSans-49"/>
       <use x="63.623047" xlink:href="#DejaVuSans-46"/>
       <use x="95.410156" xlink:href="#DejaVuSans-48"/>
      </g>
     </g>
    </g>
   </g>
   <g id="line2d_58">
    <path clip-path="url(#p2ab9011a07)" d="M 399.292216 83.949046 
L 402.239507 74.674479 
L 405.186798 79.859683 
L 408.134089 94.292727 
L 411.08138 70.888033 
L 414.028671 84.839975 
L 416.975962 84.848884 
L 419.923254 84.768701 
L 422.870545 69.614004 
L 425.817836 70.986034 
L 428.765127 85.39235 
L 431.712418 87.610763 
L 434.659709 91.361572 
L 437.607 91.343754 
L 440.554291 91.343754 
L 443.501582 83.414488 
L 446.448873 68.78544 
L 449.396164 69.115084 
L 452.343456 83.165029 
L 455.290747 83.209575 
L 458.238038 74.371563 
L 461.185329 74.389382 
L 464.13262 74.398291 
L 467.079911 73.213356 
L 470.027202 72.946077 
L 472.974493 72.981715 
L 475.921784 82.630472 
L 478.869075 68.776531 
L 481.816367 70.941487 
L 484.763658 67.885604 
L 487.710949 72.028421 
L 490.65824 72.153151 
L 493.605531 78.02437 
L 496.552822 78.077826 
L 499.500113 84.260871 
L 502.447404 86.176367 
L 505.394695 74.701207 
L 508.341986 77.071077 
L 511.289277 77.088896 
L 514.236569 71.386953 
L 517.18386 81.703906 
L 520.131151 74.834847 
L 523.078442 73.427179 
L 526.025733 73.436088 
L 528.973024 73.373722 
L 531.920315 76.777071 
L 534.867606 90.167728 
L 537.814897 90.292458 
L 540.762188 90.791378 
L 543.709479 93.713624 
L 546.656771 91.940676 
L 549.604062 93.793807 
L 552.551353 89.713354 
L 555.498644 83.485763 
L 558.445935 83.494673 
L 561.393226 83.503582 
L 564.340517 83.494673 
L 567.287808 76.082147 
L 570.235099 77.890732 
L 573.18239 77.953096 
L 576.129681 78.042189 
L 579.076973 78.042189 
L 582.024264 77.79273 
L 584.971555 73.917189 
L 587.918846 72.500614 
L 590.866137 67.253043 
L 593.813428 58.07648 
L 596.760719 58.112116 
L 599.70801 48.142623 
L 602.655301 39.473889 
L 605.602592 45.229286 
L 608.549883 51.510337 
L 611.497175 52.445808 
L 614.444466 68.723077 
L 617.391757 68.723077 
L 620.339048 68.669621 
L 623.286339 65.854285 
L 626.23363 65.818649 
L 629.180921 52.721996 
L 632.128212 52.713087 
L 635.075503 39.527343 
L 638.022794 39.500616 
L 640.970086 41.157743 
L 643.917377 45.19365 
L 646.864668 48.142623 
L 649.811959 48.178264 
L 652.75925 54.352397 
L 655.706541 54.352397 
L 658.653832 60.882904 
L 661.601123 64.642623 
L 664.548414 50.815413 
L 667.495705 50.815413 
L 670.442996 40.373729 
L 673.390288 18.777615 
L 676.337579 11.454185 
L 679.28487 11.454185 
L 682.232161 11.347273 
L 685.179452 38.520594 
L 688.126743 50.521402 
L 691.074034 44.445272 
" style="fill:none;stroke:#1f77b4;stroke-linecap:square;stroke-width:1.5;"/>
   </g>
   <g id="line2d_59">
    <path clip-path="url(#p2ab9011a07)" d="M 384.703125 94.292727 
L 705.663125 94.292727 
" style="fill:none;stroke:#808080;stroke-linecap:square;stroke-opacity:0.5;stroke-width:0.5;"/>
   </g>
   <g id="line2d_60">
    <path clip-path="url(#p2ab9011a07)" d="M 384.703125 77.703636 
L 705.663125 77.703636 
" style="fill:none;stroke:#808080;stroke-linecap:square;stroke-opacity:0.5;stroke-width:0.5;"/>
   </g>
   <g id="line2d_61">
    <path clip-path="url(#p2ab9011a07)" d="M 384.703125 44.525455 
L 705.663125 44.525455 
" style="fill:none;stroke:#808080;stroke-linecap:square;stroke-opacity:0.5;stroke-width:0.5;"/>
   </g>
   <g id="line2d_62">
    <path clip-path="url(#p2ab9011a07)" d="M 384.703125 61.114545 
L 705.663125 61.114545 
" style="fill:none;stroke:#808080;stroke-linecap:square;stroke-opacity:0.5;stroke-width:0.5;"/>
   </g>
   <g id="line2d_63">
    <path clip-path="url(#p2ab9011a07)" d="M 384.703125 27.936364 
L 705.663125 27.936364 
" style="fill:none;stroke:#808080;stroke-linecap:square;stroke-opacity:0.5;stroke-width:0.5;"/>
   </g>
   <g id="line2d_64">
    <path clip-path="url(#p2ab9011a07)" d="M 384.703125 11.347273 
L 705.663125 11.347273 
" style="fill:none;stroke:#808080;stroke-linecap:square;stroke-opacity:0.5;stroke-width:0.5;"/>
   </g>
   <g id="patch_9">
    <path d="M 384.703125 98.44 
L 384.703125 7.2 
" style="fill:none;stroke:#000000;stroke-linecap:square;stroke-linejoin:miter;stroke-width:0.8;"/>
   </g>
   <g id="patch_10">
    <path d="M 705.663125 98.44 
L 705.663125 7.2 
" style="fill:none;stroke:#000000;stroke-linecap:square;stroke-linejoin:miter;stroke-width:0.8;"/>
   </g>
   <g id="patch_11">
    <path d="M 384.703125 98.44 
L 705.663125 98.44 
" style="fill:none;stroke:#000000;stroke-linecap:square;stroke-linejoin:miter;stroke-width:0.8;"/>
   </g>
   <g id="patch_12">
    <path d="M 384.703125 7.2 
L 705.663125 7.2 
" style="fill:none;stroke:#000000;stroke-linecap:square;stroke-linejoin:miter;stroke-width:0.8;"/>
   </g>
   <g id="legend_2">
    <g id="patch_13">
     <path d="M 391.703125 93.44 
L 498.323438 93.44 
Q 500.323438 93.44 500.323438 91.44 
L 500.323438 77.761875 
Q 500.323438 75.761875 498.323438 75.761875 
L 391.703125 75.761875 
Q 389.703125 75.761875 389.703125 77.761875 
L 389.703125 91.44 
Q 389.703125 93.44 391.703125 93.44 
z
" style="fill:#ffffff;opacity:0.8;stroke:#cccccc;stroke-linejoin:miter;"/>
    </g>
    <g id="line2d_65">
     <path d="M 393.703125 83.860312 
L 413.703125 83.860312 
" style="fill:none;stroke:#1f77b4;stroke-linecap:square;stroke-width:1.5;"/>
    </g>
    <g id="line2d_66"/>
    <g id="text_28">
     <!-- Deletion Curve -->
     <g transform="translate(421.703125 87.360312)scale(0.1 -0.1)">
      <defs>
       <path d="M 19.671875 64.796875 
L 19.671875 8.109375 
L 31.59375 8.109375 
Q 46.6875 8.109375 53.6875 14.9375 
Q 60.6875 21.78125 60.6875 36.53125 
Q 60.6875 51.171875 53.6875 57.984375 
Q 46.6875 64.796875 31.59375 64.796875 
z
M 9.8125 72.90625 
L 30.078125 72.90625 
Q 51.265625 72.90625 61.171875 64.09375 
Q 71.09375 55.28125 71.09375 36.53125 
Q 71.09375 17.671875 61.125 8.828125 
Q 51.171875 0 30.078125 0 
L 9.8125 0 
z
" id="DejaVuSans-68"/>
      </defs>
      <use xlink:href="#DejaVuSans-68"/>
      <use x="77.001953" xlink:href="#DejaVuSans-101"/>
      <use x="138.525391" xlink:href="#DejaVuSans-108"/>
      <use x="166.308594" xlink:href="#DejaVuSans-101"/>
      <use x="227.832031" xlink:href="#DejaVuSans-116"/>
      <use x="267.041016" xlink:href="#DejaVuSans-105"/>
      <use x="294.824219" xlink:href="#DejaVuSans-111"/>
      <use x="356.005859" xlink:href="#DejaVuSans-110"/>
      <use x="419.384766" xlink:href="#DejaVuSans-32"/>
      <use x="451.171875" xlink:href="#DejaVuSans-67"/>
      <use x="520.996094" xlink:href="#DejaVuSans-117"/>
      <use x="584.375" xlink:href="#DejaVuSans-114"/>
      <use x="625.488281" xlink:href="#DejaVuSans-118"/>
      <use x="684.667969" xlink:href="#DejaVuSans-101"/>
     </g>
    </g>
   </g>
  </g>
 </g>
 <defs>
  <clipPath id="pe0d457554d">
   <rect height="91.24" width="320.96" x="30.103125" y="7.2"/>
  </clipPath>
  <clipPath id="p2ab9011a07">
   <rect height="91.24" width="320.96" x="384.703125" y="7.2"/>
  </clipPath>
 </defs>
</svg>
